<svg data-v-d3f97b9e="" xmlns="http://www.w3.org/2000/svg" viewBox="0 0 290.6374657802112 60"><!----><!----><!----><g data-v-d3f97b9e="" id="8eae0930-69c4-4372-84eb-5f7c230b67ce" fill="black" transform="matrix(6.007039546966553,0,0,6.007039546966553,-4.20024299621582,-22.33867835998535)"><path d="M2.34 3.72L4.17 3.72L4.17 3.72Q4.80 3.72 5.30 3.89L5.30 3.89L5.30 3.89Q5.80 4.06 6.20 4.27L6.20 4.27L6.20 4.27Q7.03 4.69 7.56 5.44L7.56 5.44L7.56 5.44Q8.09 6.19 8.33 7.10L8.33 7.10L8.33 7.10Q8.57 8.01 8.52 8.98L8.52 8.98L8.52 8.98Q8.47 9.95 8.13 10.82L8.13 10.82L8.13 10.82Q7.78 11.68 7.15 12.34L7.15 12.34L7.15 12.34Q6.52 13.01 5.61 13.29L5.61 13.29L5.61 13.29Q5.25 13.40 4.63 13.45L4.63 13.45L4.63 13.45Q4.00 13.50 3.30 13.52L3.30 13.52L3.30 13.52Q2.60 13.54 1.91 13.53L1.91 13.53L1.91 13.53Q1.22 13.52 0.70 13.52L0.70 13.52L0.70 5.39L0.70 5.39Q0.70 5.04 0.78 4.73L0.78 4.73L0.78 4.73Q0.87 4.42 1.06 4.20L1.06 4.20L1.06 4.20Q1.25 3.98 1.56 3.85L1.56 3.85L1.56 3.85Q1.88 3.72 2.34 3.72L2.34 3.72ZM2.56 5.59L2.56 11.70L2.56 11.70Q3.18 11.70 3.72 11.70L3.72 11.70L3.72 11.70Q4.27 11.70 4.73 11.60L4.73 11.60L4.73 11.60Q5.18 11.49 5.56 11.23L5.56 11.23L5.56 11.23Q5.94 10.96 6.22 10.43L6.22 10.43L6.22 10.43Q6.44 10.00 6.55 9.44L6.55 9.44L6.55 9.44Q6.66 8.88 6.63 8.30L6.63 8.30L6.63 8.30Q6.59 7.73 6.41 7.20L6.41 7.20L6.41 7.20Q6.22 6.68 5.84 6.30L5.84 6.30L5.84 6.30Q5.52 5.98 5.07 5.78L5.07 5.78L5.07 5.78Q4.62 5.59 4.13 5.59L4.13 5.59L2.56 5.59ZM15.34 13.52L15.34 12.73L15.34 12.73Q14.81 13.24 14.19 13.48L14.19 13.48L14.19 13.48Q13.57 13.72 12.94 13.70L12.94 13.70L12.94 13.70Q12.31 13.68 11.71 13.41L11.71 13.41L11.71 13.41Q11.12 13.15 10.66 12.65L10.66 12.65L10.66 12.65Q10.21 12.15 9.93 11.46L9.93 11.46L9.93 11.46Q9.66 10.77 9.66 9.88L9.66 9.88L9.66 9.88Q9.66 9.04 9.95 8.33L9.95 8.33L9.95 8.33Q10.25 7.62 10.75 7.11L10.75 7.11L10.75 7.11Q11.24 6.61 11.88 6.34L11.88 6.34L11.88 6.34Q12.52 6.06 13.20 6.09L13.20 6.09L13.20 6.09Q13.87 6.12 14.28 6.39L14.28 6.39L14.28 6.39Q14.69 6.66 14.88 7.03L14.88 7.03L14.88 7.03Q15.06 7.39 15.07 7.76L15.07 7.76L15.07 7.76Q15.08 8.13 14.95 8.36L14.95 8.36L14.95 8.36Q14.71 8.01 14.28 7.89L14.28 7.89L14.28 7.89Q13.85 7.77 13.44 7.77L13.44 7.77L13.44 7.77Q12.80 7.77 12.36 8.09L12.36 8.09L12.36 8.09Q11.93 8.40 11.70 8.88L11.70 8.88L11.70 8.88Q11.48 9.35 11.47 9.91L11.47 9.91L11.47 9.91Q11.47 10.46 11.68 10.93L11.68 10.93L11.68 10.93Q11.90 11.41 12.34 11.73L12.34 11.73L12.34 11.73Q12.78 12.04 13.44 12.04L13.44 12.04L13.44 12.04Q14 12.04 14.36 11.79L14.36 11.79L14.36 11.79Q14.73 11.54 14.95 11.14L14.95 11.14L14.95 11.14Q15.16 10.74 15.25 10.24L15.25 10.24L15.25 10.24Q15.34 9.74 15.34 9.25L15.34 9.25L15.34 7.04L15.34 6.27L17.16 6.27L17.16 13.52L15.34 13.52ZM22.16 8.50L22.16 8.50L22.16 8.50Q22.05 8.23 21.85 8.07L21.85 8.07L21.85 8.07Q21.66 7.91 21.43 7.83L21.43 7.83L21.43 7.83Q21.20 7.74 20.98 7.74L20.98 7.74L20.98 7.74Q20.76 7.73 20.62 7.78L20.62 7.78L20.62 7.78Q20.37 7.87 20.29 8.07L20.29 8.07L20.29 8.07Q20.22 8.27 20.37 8.46L20.37 8.46L20.37 8.46Q20.50 8.60 20.77 8.73L20.77 8.73L20.77 8.73Q21.04 8.86 21.38 9.02L21.38 9.02L21.38 9.02Q21.71 9.18 22.07 9.39L22.07 9.39L22.07 9.39Q22.43 9.59 22.72 9.87L22.72 9.87L22.72 9.87Q23.02 10.15 23.21 10.53L23.21 10.53L23.21 10.53Q23.39 10.91 23.39 11.42L23.39 11.42L23.39 11.42Q23.39 12.03 23.13 12.48L23.13 12.48L23.13 12.48Q22.86 12.94 22.42 13.22L22.42 13.22L22.42 13.22Q21.98 13.50 21.43 13.60L21.43 13.60L21.43 13.60Q20.87 13.71 20.31 13.62L20.31 13.62L20.31 13.62Q19.74 13.54 19.21 13.24L19.21 13.24L19.21 13.24Q18.68 12.94 18.28 12.42L18.28 12.42L19.40 11.21L19.40 11.21Q19.75 11.63 20.14 11.82L20.14 11.82L20.14 11.82Q20.52 12.00 20.85 12.02L20.85 12.02L20.85 12.02Q21.18 12.04 21.41 11.92L21.41 11.92L21.41 11.92Q21.63 11.80 21.68 11.60L21.68 11.60L21.68 11.60Q21.73 11.40 21.56 11.15L21.56 11.15L21.56 11.15Q21.39 10.91 20.92 10.67L20.92 10.67L20.92 10.67Q20.47 10.44 20.04 10.21L20.04 10.21L20.04 10.21Q19.61 9.97 19.29 9.67L19.29 9.67L19.29 9.67Q18.96 9.38 18.75 9.02L18.75 9.02L18.75 9.02Q18.55 8.65 18.55 8.16L18.55 8.16L18.55 8.16Q18.55 7.66 18.76 7.27L18.76 7.27L18.76 7.27Q18.97 6.87 19.32 6.61L19.32 6.61L19.32 6.61Q19.67 6.34 20.12 6.22L20.12 6.22L20.12 6.22Q20.57 6.09 21.04 6.10L21.04 6.10L21.04 6.10Q21.85 6.15 22.28 6.46L22.28 6.46L22.28 6.46Q22.71 6.78 22.81 7.18L22.81 7.18L22.81 7.18Q22.92 7.57 22.74 7.95L22.74 7.95L22.74 7.95Q22.57 8.33 22.16 8.50ZM29.92 13.52L29.92 12.73L29.92 12.73Q29.39 13.24 28.76 13.48L28.76 13.48L28.76 13.48Q28.14 13.72 27.51 13.70L27.51 13.70L27.51 13.70Q26.88 13.68 26.29 13.41L26.29 13.41L26.29 13.41Q25.69 13.15 25.23 12.65L25.23 12.65L25.23 12.65Q24.78 12.15 24.51 11.46L24.51 11.46L24.51 11.46Q24.23 10.77 24.23 9.88L24.23 9.88L24.23 9.88Q24.23 9.04 24.53 8.33L24.53 8.33L24.53 8.33Q24.82 7.62 25.32 7.11L25.32 7.11L25.32 7.11Q25.82 6.61 26.45 6.34L26.45 6.34L26.45 6.34Q27.09 6.06 27.78 6.09L27.78 6.09L27.78 6.09Q28.45 6.12 28.85 6.39L28.85 6.39L28.85 6.39Q29.26 6.66 29.45 7.03L29.45 7.03L29.45 7.03Q29.64 7.39 29.64 7.76L29.64 7.76L29.64 7.76Q29.65 8.13 29.53 8.36L29.53 8.36L29.53 8.36Q29.29 8.01 28.85 7.89L28.85 7.89L28.85 7.89Q28.42 7.77 28.01 7.77L28.01 7.77L28.01 7.77Q27.37 7.77 26.94 8.09L26.94 8.09L26.94 8.09Q26.50 8.40 26.28 8.88L26.28 8.88L26.28 8.88Q26.05 9.35 26.05 9.91L26.05 9.91L26.05 9.91Q26.04 10.46 26.26 10.93L26.26 10.93L26.26 10.93Q26.47 11.41 26.91 11.73L26.91 11.73L26.91 11.73Q27.36 12.04 28.01 12.04L28.01 12.04L28.01 12.04Q28.57 12.04 28.94 11.79L28.94 11.79L28.94 11.79Q29.30 11.54 29.52 11.14L29.52 11.14L29.52 11.14Q29.74 10.74 29.83 10.24L29.83 10.24L29.83 10.24Q29.92 9.74 29.92 9.25L29.92 9.25L29.92 7.04L29.92 6.27L31.74 6.27L31.74 13.52L29.92 13.52ZM34.90 12.75L34.90 13.52L33.14 13.52L33.14 5.17L33.14 5.17Q33.14 4.59 33.61 4.17L33.61 4.17L33.61 4.17Q34.08 3.75 34.90 3.72L34.90 3.72L34.90 9.37L34.90 9.37Q34.90 9.84 34.99 10.33L34.99 10.33L34.99 10.33Q35.08 10.81 35.29 11.20L35.29 11.20L35.29 11.20Q35.50 11.59 35.87 11.84L35.87 11.84L35.87 11.84Q36.23 12.08 36.78 12.08L36.78 12.08L36.78 12.08Q37.42 12.08 37.85 11.77L37.85 11.77L37.85 11.77Q38.28 11.47 38.49 11.00L38.49 11.00L38.49 11.00Q38.70 10.54 38.69 10.00L38.69 10.00L38.69 10.00Q38.68 9.45 38.47 8.99L38.47 8.99L38.47 8.99Q38.25 8.53 37.82 8.22L37.82 8.22L37.82 8.22Q37.39 7.91 36.76 7.91L36.76 7.91L36.76 7.91Q36.39 7.91 35.96 8.03L35.96 8.03L35.96 8.03Q35.53 8.15 35.29 8.48L35.29 8.48L35.29 8.48Q35.17 8.26 35.16 7.90L35.16 7.90L35.16 7.90Q35.15 7.53 35.34 7.18L35.34 7.18L35.34 7.18Q35.52 6.83 35.91 6.57L35.91 6.57L35.91 6.57Q36.30 6.30 37.00 6.27L37.00 6.27L37.00 6.27Q37.67 6.26 38.30 6.52L38.30 6.52L38.30 6.52Q38.92 6.79 39.40 7.28L39.40 7.28L39.40 7.28Q39.89 7.77 40.17 8.46L40.17 8.46L40.17 8.46Q40.46 9.16 40.46 9.98L40.46 9.98L40.46 9.98Q40.46 10.84 40.19 11.52L40.19 11.52L40.19 11.52Q39.93 12.19 39.48 12.67L39.48 12.67L39.48 12.67Q39.03 13.15 38.46 13.41L38.46 13.41L38.46 13.41Q37.88 13.68 37.27 13.70L37.27 13.70L37.27 13.70Q36.65 13.72 36.04 13.50L36.04 13.50L36.04 13.50Q35.42 13.27 34.90 12.75L34.90 12.75ZM45.23 6.10L45.23 6.10L45.23 6.10Q46.34 6.10 47.20 6.64L47.20 6.64L47.20 6.64Q48.06 7.17 48.55 7.99L48.55 7.99L48.55 7.99Q49.04 8.82 49.08 9.83L49.08 9.83L49.08 9.83Q49.11 10.84 48.57 11.80L48.57 11.80L48.57 11.80Q48.10 12.60 47.36 13.08L47.36 13.08L47.36 13.08Q46.62 13.55 45.78 13.67L45.78 13.67L45.78 13.67Q44.94 13.79 44.09 13.53L44.09 13.53L44.09 13.53Q43.25 13.27 42.57 12.60L42.57 12.60L42.57 12.60Q41.82 11.83 41.57 10.82L41.57 10.82L41.57 10.82Q41.31 9.81 41.61 8.81L41.61 8.81L41.61 8.81Q41.73 8.40 42.02 8.13L42.02 8.13L42.02 8.13Q42.31 7.87 42.67 7.74L42.67 7.74L42.67 7.74Q43.04 7.62 43.43 7.63L43.43 7.63L43.43 7.63Q43.82 7.64 44.16 7.79L44.16 7.79L44.16 7.79Q44.49 7.94 44.72 8.21L44.72 8.21L44.72 8.21Q44.95 8.48 45.00 8.88L45.00 8.88L45.00 8.88Q44.79 8.72 44.49 8.71L44.49 8.71L44.49 8.71Q44.20 8.71 43.93 8.84L43.93 8.84L43.93 8.84Q43.65 8.97 43.46 9.25L43.46 9.25L43.46 9.25Q43.27 9.52 43.27 9.93L43.27 9.93L43.27 9.93Q43.27 10.63 43.57 11.09L43.57 11.09L43.57 11.09Q43.86 11.55 44.30 11.78L44.30 11.78L44.30 11.78Q44.74 12.01 45.26 12.01L45.26 12.01L45.26 12.01Q45.77 12.01 46.21 11.77L46.21 11.77L46.21 11.77Q46.65 11.54 46.94 11.07L46.94 11.07L46.94 11.07Q47.24 10.60 47.24 9.90L47.24 9.90L47.24 9.90Q47.24 9.35 47.04 8.93L47.04 8.93L47.04 8.93Q46.84 8.51 46.52 8.24L46.52 8.24L46.52 8.24Q46.19 7.97 45.75 7.86L45.75 7.86L45.75 7.86Q45.32 7.76 44.83 7.85L44.83 7.85L44.83 7.85Q44.62 7.60 44.32 7.46L44.32 7.46L44.32 7.46Q44.02 7.31 43.67 7.26L43.67 7.26L43.67 7.26Q43.32 7.21 42.97 7.27L42.97 7.27L42.97 7.27Q42.62 7.34 42.31 7.52L42.31 7.52L42.31 7.52Q42.87 6.85 43.61 6.48L43.61 6.48L43.61 6.48Q44.35 6.10 45.23 6.10Z"></path></g><!----><!----></svg>