<?xml version="1.0" encoding="iso-8859-1"?>
<!-- Generator: Adobe Illustrator 19.0.0, SVG Export Plug-In . SVG Version: 6.00 Build 0)  -->
<svg version="1.1" id="Capa_1" xmlns="http://www.w3.org/2000/svg" xmlns:xlink="http://www.w3.org/1999/xlink" x="0px" y="0px"
	 viewBox="0 0 496 496" style="enable-background:new 0 0 496 496;" xml:space="preserve">
<path style="fill:#FFCB57;" d="M216,488h256c8.84,0,16-7.16,16-16V216c0-8.84-7.16-16-16-16H216c-8.84,0-16,7.16-16,16v256
	C200,480.84,207.16,488,216,488z"/>
<path style="fill:#E56565;" d="M174.616,397.104c-27.072-4.752-53.176-15.512-75.864-31.224l-16.224,10.816L39.32,333.488
	l10.816-16.224c-15.544-22.448-26.192-48.12-31.04-74.872L0,238.552V177.44l19.088-3.824c4.84-26.76,15.496-52.432,31.04-74.872
	L39.312,82.52L82.52,39.312l16.224,10.816c22.448-15.544,48.12-26.192,74.872-31.04L177.448,0h61.112l3.824,19.088
	c26.76,4.84,52.432,15.496,74.872,31.04l16.224-10.816l43.208,43.208l-10.816,16.224c15.712,22.688,26.48,48.8,31.224,75.864
	l-15.768,2.768c-4.64-26.496-15.576-51.984-31.616-73.728l-3.328-4.512l9.704-14.568l-24.664-24.664l-14.568,9.704l-4.512-3.328
	c-22.928-16.912-49.872-28.088-77.912-32.296l-5.552-0.832L225.448,16H190.56l-3.432,17.152l-5.552,0.832
	c-28.04,4.208-54.984,15.384-77.912,32.296l-4.512,3.328l-14.568-9.704L59.92,84.568l9.704,14.568l-3.328,4.512
	C49.384,126.576,38.208,153.52,34,181.56l-0.832,5.552L16,190.552v34.888l17.152,3.432l0.832,5.552
	c4.208,28.04,15.384,54.984,32.296,77.912l3.328,4.512l-9.704,14.568l24.664,24.664l14.568-9.704l4.512,3.328
	c21.744,16.04,47.232,26.976,73.728,31.616L174.616,397.104z"/>
<g>
	<path style="fill:#3F3A34;" d="M166.072,333.208l12.144-10.424c-6.352-7.4-13.088-16.544-19.288-27.368
		c5.672-1.848,11.8-3.488,18.52-4.72l-2.888-15.736c-8.424,1.552-16.024,3.656-23,6.032c-8.16-17.96-14.264-39.6-15.344-65H176v-16
		h-39.616c1.088-25.184,7.048-46.808,15.336-64.912c13.392,4.56,29.464,7.872,48.288,8.632V176h16v-32.272
		c18.888-0.768,35.008-4.104,48.432-8.68c5.68,12.456,10.36,26.48,13.032,42.288l15.784-2.672
		c-2.88-17.064-7.856-32.192-13.88-45.64c15.184-7.112,25.76-15.224,31.976-20.92c18.312,18.856,31.688,42.664,37.456,69.576
		l15.64-3.36C348.768,101.128,282.968,48,208,48c-88.224,0-160,71.776-160,160c0,74.968,53.128,140.768,126.32,156.448l3.36-15.64
		c-23.072-4.944-43.856-15.512-61.216-29.944c5.432-4.776,14.528-11.552,27.424-17.552
		C150.96,314.016,158.752,324.672,166.072,333.208z M159.048,120.688C172.544,97.232,189,81.016,200,71.88v55.864
		C184.112,127.04,170.504,124.36,159.048,120.688z M143.64,114.704c-12.976-6.024-22.016-12.824-27.368-17.616
		c18.456-15.288,40.8-25.976,65.28-30.544C169.832,77.344,155.536,93.288,143.64,114.704z M216,127.736V71.848
		c11.024,9.096,27.496,25.248,41.04,48.816C245.568,124.344,231.928,127.032,216,127.736z M234.368,66.52
		c24.256,4.576,46.64,15.312,65.248,30.672c-5.384,4.808-14.44,11.576-27.4,17.576C260.304,93.328,246.064,77.312,234.368,66.52z
		 M104.576,108.04c6.192,5.68,16.744,13.8,31.92,20.928c-8.856,19.768-15.264,43.384-16.312,71.032H64.408
		C66.376,164.36,81.256,132.16,104.576,108.04z M104.6,307.968C81.128,283.584,66.336,251.136,64.352,216h55.856
		c1.08,27.696,7.64,51.336,16.48,70.968C121.4,294.112,110.824,302.272,104.6,307.968z"/>
	<path style="fill:#3F3A34;" d="M472,192H216c-13.232,0-24,10.768-24,24v56h16v-56c0-4.416,3.584-8,8-8h256c4.416,0,8,3.584,8,8v56
		h16v-56C496,202.768,485.232,192,472,192z"/>
	<path style="fill:#3F3A34;" d="M440,464c13.232,0,24-10.768,24-24s-10.768-24-24-24s-24,10.768-24,24S426.768,464,440,464z
		 M440,432c4.416,0,8,3.584,8,8s-3.584,8-8,8s-8-3.584-8-8S435.584,432,440,432z"/>
	<path style="fill:#3F3A34;" d="M376,464c13.232,0,24-10.768,24-24s-10.768-24-24-24s-24,10.768-24,24S362.768,464,376,464z
		 M376,432c4.416,0,8,3.584,8,8s-3.584,8-8,8s-8-3.584-8-8S371.584,432,376,432z"/>
	<path style="fill:#3F3A34;" d="M304,416h-80v48h80V416z M288,448h-48v-16h48V448z"/>
	<path style="fill:#3F3A34;" d="M464,344c0-13.232-10.768-24-24-24s-24,10.768-24,24s10.768,24,24,24S464,357.232,464,344z M432,344
		c0-4.416,3.584-8,8-8s8,3.584,8,8s-3.584,8-8,8S432,348.416,432,344z"/>
	<path style="fill:#3F3A34;" d="M400,344c0-13.232-10.768-24-24-24s-24,10.768-24,24s10.768,24,24,24S400,357.232,400,344z M368,344
		c0-4.416,3.584-8,8-8s8,3.584,8,8s-3.584,8-8,8S368,348.416,368,344z"/>
	<path style="fill:#3F3A34;" d="M224,320v48h80v-48H224z M288,352h-48v-16h48V352z"/>
	<path style="fill:#3F3A34;" d="M464,248c0-13.232-10.768-24-24-24s-24,10.768-24,24s10.768,24,24,24S464,261.232,464,248z M432,248
		c0-4.416,3.584-8,8-8s8,3.584,8,8c0,4.416-3.584,8-8,8S432,252.416,432,248z"/>
	<path style="fill:#3F3A34;" d="M400,248c0-13.232-10.768-24-24-24s-24,10.768-24,24s10.768,24,24,24S400,261.232,400,248z M368,248
		c0-4.416,3.584-8,8-8s8,3.584,8,8c0,4.416-3.584,8-8,8S368,252.416,368,248z"/>
	<path style="fill:#3F3A34;" d="M224,224v48h80v-48H224z M288,256h-48v-16h48V256z"/>
	<polygon style="fill:#3F3A34;" points="192,368 208,368 208,304 480,304 480,368 496,368 496,288 192,288 	"/>
	<path style="fill:#3F3A34;" d="M192,472c0,13.232,10.768,24,24,24h256c13.232,0,24-10.768,24-24v-88H192V472z M208,400h272v72
		c0,4.416-3.584,8-8,8H216c-4.416,0-8-3.584-8-8V400z"/>
</g>
<g>
</g>
<g>
</g>
<g>
</g>
<g>
</g>
<g>
</g>
<g>
</g>
<g>
</g>
<g>
</g>
<g>
</g>
<g>
</g>
<g>
</g>
<g>
</g>
<g>
</g>
<g>
</g>
<g>
</g>
</svg>
