<svg height="438pt" viewBox="-45 0 438 438.29492" width="438pt" xmlns="http://www.w3.org/2000/svg"><path d="m173.863281 9.144531c-60.59375 0-109.714843 52.078125-109.714843 116.320313v84.820312h219.429687v-84.820312c0-64.242188-49.121094-116.320313-109.714844-116.320313zm75.953125 165.347657h-151.910156v-49.027344c0-44.402344 34.074219-80.53125 75.957031-80.53125 41.878907 0 75.953125 36.128906 75.953125 80.53125zm0 0" fill="#4b6981"/><path d="m292.71875 219.429688h-237.714844v-93.964844c0-69.183594 53.316406-125.464844 118.859375-125.464844 65.539063 0 118.855469 56.28125 118.855469 125.464844zm-219.429688-18.285157h201.144532v-75.679687c0-59.097656-45.117188-107.179688-100.570313-107.179688-55.457031 0-100.574219 48.082032-100.574219 107.179688zm185.671876-17.511719h-170.195313v-58.167968c0-49.445313 38.171875-89.675782 85.097656-89.675782 46.921875 0 85.097657 40.230469 85.097657 89.675782zm-151.910157-18.285156h133.625v-39.882812c0-39.363282-29.976562-71.386719-66.8125-71.386719-36.839843 0-66.8125 32.023437-66.8125 71.386719zm0 0" fill="#2a3d4f"/><path d="m320.148438 429.152344h-292.570313c-10.101563 0-18.285156-8.1875-18.285156-18.285156v-219.429688c0-10.101562 8.183593-18.285156 18.285156-18.285156h292.570313c10.097656 0 18.285156 8.183594 18.285156 18.285156v219.429688c0 10.097656-8.1875 18.285156-18.285156 18.285156zm0 0" fill="#ec763e"/><path d="m320.148438 438.292969h-292.574219c-15.125 0-27.425781-12.300781-27.425781-27.425781v-219.429688c0-15.125 12.300781-27.429688 27.425781-27.429688h292.574219c15.125 0 27.429687 12.304688 27.429687 27.429688v219.429688c0 15.125-12.304687 27.425781-27.429687 27.425781zm-292.574219-256c-5.039063 0-9.140625 4.105469-9.140625 9.144531v219.429688c0 5.039062 4.101562 9.140624 9.140625 9.140624h292.574219c5.039062 0 9.140624-4.101562 9.140624-9.140624v-219.429688c0-5.039062-4.101562-9.144531-9.140624-9.144531zm0 0" fill="#2a3d4f"/><path d="m192.148438 320c0 10.097656-8.1875 18.285156-18.285157 18.285156-10.097656 0-18.285156-8.1875-18.285156-18.285156s8.1875-18.285156 18.285156-18.285156c10.097657 0 18.285157 8.1875 18.285157 18.285156zm0 0" fill="#ec763e"/><g fill="#2a3d4f"><path d="m173.863281 347.429688c-15.125 0-27.429687-12.304688-27.429687-27.429688s12.304687-27.429688 27.429687-27.429688 27.425781 12.304688 27.425781 27.429688-12.300781 27.429688-27.425781 27.429688zm0-36.574219c-5.042969 0-9.144531 4.105469-9.144531 9.144531s4.101562 9.144531 9.144531 9.144531c5.039063 0 9.140625-4.105469 9.140625-9.144531s-4.101562-9.144531-9.140625-9.144531zm0 0"/><path d="m173.867188 384c-5.050782 0-9.144532-4.09375-9.144532-9.144531v-36.570313c0-5.046875 4.09375-9.140625 9.144532-9.140625 5.046874 0 9.140624 4.09375 9.140624 9.140625v36.570313c0 5.050781-4.09375 9.144531-9.140624 9.144531zm0 0"/></g></svg>