<?xml version="1.0" encoding="iso-8859-1"?>
<!-- Generator: Adobe Illustrator 19.0.0, SVG Export Plug-In . SVG Version: 6.00 Build 0)  -->
<svg version="1.1" id="Capa_1" xmlns="http://www.w3.org/2000/svg" xmlns:xlink="http://www.w3.org/1999/xlink" x="0px" y="0px"
	 viewBox="0 0 512.005 512.005" style="enable-background:new 0 0 512.005 512.005;" xml:space="preserve">
<g>
	<g transform="translate(1 1)">
		<path style="fill:#37474F;" d="M400.067,374.505v68.267c-0.028,9.414-7.652,17.039-17.067,17.067H24.6
			c-9.414-0.028-17.039-7.652-17.067-17.067v-68.267H400.067z"/>
		<g>
			<path style="fill:#607D8B;" d="M400.067,374.591h-34.219l-102.315-0.085H203.8l-169.387,0.085H7.533l0.085-0.085L96.28,286.1
				c3.651-3.552,8.56-5.515,13.653-5.461h187.733c5.094-0.054,10.002,1.91,13.653,5.461l88.661,88.405L400.067,374.591z"/>
			<path style="fill:#607D8B;" d="M374.467,374.505v68.267c-0.028,9.414-7.652,17.039-17.067,17.067H24.6
				c-9.414-0.028-17.039-7.652-17.067-17.067v-68.181"/>
		</g>
		<path style="fill:#CFD8DC;" d="M7.619,374.505L96.28,286.1c3.651-3.552,8.56-5.515,13.653-5.461h153.6
			c5.094-0.054,10.002,1.91,13.653,5.461l88.661,88.405v0.085l-102.315-0.085H96.28l-61.867,0.085"/>
		<path style="fill:#37474F;" d="M400.067,237.972v68.267c-0.028,9.414-7.652,17.039-17.067,17.067H24.6
			c-9.414-0.028-17.039-7.652-17.067-17.067v-68.267H400.067z"/>
		<g>
			<path style="fill:#607D8B;" d="M400.067,238.057h-34.219l-102.315-0.085H203.8l-169.387,0.085H7.533l0.085-0.085l88.661-88.405
				c3.651-3.552,8.56-5.515,13.653-5.461h187.733c5.094-0.054,10.002,1.91,13.653,5.461l88.661,88.405L400.067,238.057z"/>
			<path style="fill:#607D8B;" d="M374.467,237.972v68.267c-0.028,9.414-7.652,17.039-17.067,17.067H24.6
				c-9.414-0.028-17.039-7.652-17.067-17.067v-68.181"/>
		</g>
		<path style="fill:#CFD8DC;" d="M7.619,237.972l88.661-88.405c3.651-3.552,8.56-5.515,13.653-5.461h153.6
			c5.094-0.054,10.002,1.91,13.653,5.461l88.661,88.405v0.085l-102.315-0.085H96.28l-61.867,0.085"/>
		<path style="fill:#37474F;" d="M400.067,101.439v68.267c-0.028,9.414-7.652,17.039-17.067,17.067H24.6
			c-9.414-0.028-17.039-7.653-17.067-17.067v-68.267H400.067z"/>
		<g>
			<path style="fill:#607D8B;" d="M400.067,101.524h-34.219l-102.315-0.085H203.8l-169.387,0.085H7.533l0.085-0.085L96.28,13.033
				c3.651-3.552,8.56-5.515,13.653-5.461h187.733c5.094-0.054,10.002,1.91,13.653,5.461l88.661,88.405L400.067,101.524z"/>
			<path style="fill:#607D8B;" d="M374.467,101.439v68.267c-0.028,9.414-7.652,17.039-17.067,17.067H24.6
				c-9.414-0.028-17.039-7.653-17.067-17.067v-68.181"/>
		</g>
		<path style="fill:#CFD8DC;" d="M7.619,101.439L96.28,13.033c3.651-3.552,8.56-5.515,13.653-5.461h153.6
			c5.094-0.054,10.002,1.91,13.653,5.461l88.661,88.405v0.085l-102.315-0.085H96.28l-61.867,0.085"/>
		<circle style="fill:#283593;" cx="387.267" cy="387.305" r="115.2"/>
		<ellipse style="fill:#3F51B5;" cx="374.467" cy="387.305" rx="102.4" ry="115.2"/>
	</g>
	<g>
		<path d="M51.2,136.572h-8.533c-4.713,0-8.533,3.821-8.533,8.533s3.821,8.533,8.533,8.533H51.2c4.713,0,8.533-3.821,8.533-8.533
			S55.913,136.572,51.2,136.572z"/>
		<path d="M85.333,153.639h8.533c4.713,0,8.533-3.821,8.533-8.533s-3.821-8.533-8.533-8.533h-8.533
			c-4.713,0-8.533,3.821-8.533,8.533S80.621,153.639,85.333,153.639z"/>
		<path d="M51.2,273.105h-8.533c-4.713,0-8.533,3.821-8.533,8.533c0,4.713,3.821,8.533,8.533,8.533H51.2
			c4.713,0,8.533-3.821,8.533-8.533C59.733,276.926,55.913,273.105,51.2,273.105z"/>
		<path d="M85.333,290.172h8.533c4.713,0,8.533-3.821,8.533-8.533c0-4.713-3.821-8.533-8.533-8.533h-8.533
			c-4.713,0-8.533,3.821-8.533,8.533C76.8,286.351,80.621,290.172,85.333,290.172z"/>
		<path d="M51.2,409.639h-8.533c-4.713,0-8.533,3.82-8.533,8.533s3.821,8.533,8.533,8.533H51.2c4.713,0,8.533-3.82,8.533-8.533
			S55.913,409.639,51.2,409.639z"/>
		<path d="M93.867,409.639h-8.533c-4.713,0-8.533,3.82-8.533,8.533s3.821,8.533,8.533,8.533h8.533c4.713,0,8.533-3.82,8.533-8.533
			S98.579,409.639,93.867,409.639z"/>
		<path d="M409.6,266.544v-27.572c-0.044-0.313-0.107-0.624-0.188-0.93c-0.055-0.466-0.148-0.928-0.278-1.379
			c-0.133-0.527-0.319-1.04-0.553-1.53c-0.527-0.824-1.105-1.614-1.731-2.366l-36.587-36.462H384
			c14.132-0.015,25.585-11.468,25.6-25.6v-68.267c0-0.195-0.098-0.357-0.11-0.548c-0.052-0.694-0.19-1.38-0.411-2.04
			c-0.104-0.373-0.235-0.738-0.391-1.093c-0.551-0.897-1.174-1.746-1.865-2.541L318.358,8.014c-5.25-5.133-12.308-7.997-19.65-7.975
			H110.892c-7.343-0.022-14.4,2.842-19.65,7.975l-0.009,0.009L2.765,96.226c-0.338,0.353-0.644,0.736-0.916,1.142
			c-0.358,0.433-0.674,0.901-0.941,1.396c-0.152,0.349-0.28,0.708-0.383,1.074c-0.224,0.665-0.363,1.355-0.415,2.054
			C0.098,102.083,0,102.245,0,102.439v68.267c0.015,14.132,11.468,25.585,25.6,25.6h13.74L2.765,232.758
			c-0.34,0.356-0.649,0.742-0.922,1.152c-0.355,0.43-0.668,0.894-0.932,1.384c-0.154,0.353-0.284,0.715-0.387,1.086
			c-0.222,0.662-0.361,1.349-0.413,2.046C0.098,238.617,0,238.779,0,238.972v68.267c0.015,14.132,11.468,25.585,25.6,25.6h13.74
			l-36.7,36.577c-0.173,0.168-0.288,0.372-0.446,0.554c-0.538,0.6-0.988,1.275-1.335,2.002c-0.116,0.277-0.216,0.56-0.302,0.848
			c-0.253,0.726-0.405,1.483-0.452,2.249C0.094,375.25,0,375.405,0,375.589v68.183c0.015,14.132,11.468,25.585,25.6,25.6h269.413
			c35.657,41.079,93.975,54.025,143.664,31.892s79.073-74.145,72.386-128.128C504.375,319.153,463.188,275.883,409.6,266.544z
			 M388.267,264.572c-4.275,0.002-8.548,0.224-12.8,0.666v-17.649h17.067v17.199C391.104,264.739,389.706,264.572,388.267,264.572z
			 M358.4,247.589v20.781c-5.816,1.418-11.52,3.259-17.067,5.508v-26.289H358.4z M103.275,20.114
			c2.047-1.961,4.782-3.041,7.617-3.008h187.817c2.831-0.034,5.562,1.043,7.608,3l74.021,73.8H29.258L103.275,20.114z
			 M17.067,170.705v-59.654l187.733-0.08l119.467,0.053v25.547c0,4.713,3.82,8.533,8.533,8.533s8.533-3.821,8.533-8.533v-25.539
			l17.067,0.007v25.532c0,4.713,3.82,8.533,8.533,8.533s8.533-3.821,8.533-8.533v-25.524l17.067,0.008v59.649
			c-0.005,4.711-3.822,8.529-8.533,8.533H25.6C20.889,179.234,17.071,175.416,17.067,170.705z M346.079,196.305l34.254,34.133
			H29.267l34.254-34.133H346.079z M17.067,307.239v-59.65h307.2v35.023c-14.086,8.559-26.332,19.831-36.027,33.16H25.6
			C20.889,315.767,17.071,311.95,17.067,307.239L17.067,307.239z M277.819,332.839c-5.429,10.76-9.241,22.261-11.314,34.133H29.267
			l34.254-34.133H277.819z M25.6,452.305c-4.711-0.005-8.529-3.822-8.533-8.533v-59.65h247.679c-0.048,1.4-0.212,2.771-0.212,4.183
			c0.013,22.586,6.255,44.732,18.039,64H25.6z M388.267,494.972c-43.143,0-82.037-25.989-98.547-65.847
			s-7.384-85.738,23.122-116.244c30.506-30.506,76.386-39.632,116.244-23.122s65.847,55.405,65.847,98.547
			C494.867,447.188,447.15,494.906,388.267,494.972L388.267,494.972z"/>
		<path d="M384,435.239c-17.315,0.054-32.935-10.394-39.496-26.418c-6.561-16.024-2.753-34.426,9.629-46.531v17.482
			c0,4.713,3.82,8.533,8.533,8.533s8.533-3.82,8.533-8.533V346.03c0-0.251-0.121-0.461-0.143-0.707
			c-0.251-2.091-1.189-4.038-2.668-5.537c-0.534-0.468-1.125-0.867-1.758-1.186c-0.263-0.171-0.536-0.327-0.817-0.467
			c-0.968-0.399-2.001-0.614-3.048-0.635l-34.133-0.392c-2.282-0.09-4.501,0.763-6.134,2.359c-1.633,1.596-2.537,3.795-2.499,6.078
			c-0.05,4.71,3.723,8.571,8.433,8.629l9.775,0.112c-14.901,17.779-18.151,42.582-8.332,63.599
			c9.819,21.017,30.926,34.441,54.124,34.422c4.713,0,8.533-3.82,8.533-8.533S388.713,435.239,384,435.239L384,435.239z"/>
		<path d="M448.1,422.439l-9.775-0.112c14.901-17.779,18.151-42.582,8.332-63.599c-9.819-21.017-30.926-34.441-54.124-34.422
			c-4.713,0-8.533,3.82-8.533,8.533s3.82,8.533,8.533,8.533c17.315-0.054,32.935,10.394,39.496,26.418
			c6.561,16.024,2.753,34.426-9.629,46.531v-17.482c0-4.713-3.82-8.533-8.533-8.533s-8.533,3.82-8.533,8.533v33.742
			c0,0.251,0.122,0.461,0.143,0.706c-0.098,0.679,0.041,1.371,0.395,1.958c0.311,1.009,0.833,1.94,1.531,2.732
			c0.228,0.299,0.475,0.583,0.742,0.848c0.534,0.469,1.126,0.869,1.761,1.188c0.262,0.171,0.534,0.326,0.813,0.466
			c0.968,0.399,2.001,0.614,3.048,0.635l34.133,0.392h0.1c4.713,0.028,8.556-3.771,8.583-8.483
			C456.611,426.309,452.813,422.466,448.1,422.439L448.1,422.439z"/>
	</g>
</g>
<g>
</g>
<g>
</g>
<g>
</g>
<g>
</g>
<g>
</g>
<g>
</g>
<g>
</g>
<g>
</g>
<g>
</g>
<g>
</g>
<g>
</g>
<g>
</g>
<g>
</g>
<g>
</g>
<g>
</g>
</svg>
