<?xml version="1.0" encoding="iso-8859-1"?>
<!-- Generator: Adobe Illustrator 19.0.0, SVG Export Plug-In . SVG Version: 6.00 Build 0)  -->
<svg version="1.1" id="Layer_1" xmlns="http://www.w3.org/2000/svg" xmlns:xlink="http://www.w3.org/1999/xlink" x="0px" y="0px"
	 viewBox="0 0 512 512" style="enable-background:new 0 0 512 512;" xml:space="preserve">
<g>
	<path style="fill:#85BF4F;" d="M253.295,255.998c32.299,0,58.642-26.342,58.642-58.64c0-32.299-26.342-58.642-58.642-58.642
		c-32.297,0-58.641,26.342-58.641,58.642C194.653,229.655,220.996,255.998,253.295,255.998z"/>
	<path style="fill:#A7E2DE;" d="M302.11,164.863c5.715,8.555,9.23,18.702,9.756,29.633c0.048,0.951,0.071,1.906,0.069,2.863
		c0,32.386-26.254,58.64-58.64,58.64c-32.387,0-58.641-26.254-58.641-58.64c0-32.39,26.254-58.642,58.641-58.642
		c0.934,0,1.862,0.023,2.787,0.066c4.355,0.204,8.586,0.881,12.638,2C282.556,144.53,294.36,153.23,302.11,164.863L302.11,164.863z
		 M501.23,96.065H10.77v202.585h490.46V96.065z"/>
	<g>
		<path style="fill:#FFCD85;" d="M10.77,96.065h490.46V85.604c0-17.704-14.481-32.186-32.185-32.186H42.956
			c-17.704,0-32.186,14.482-32.186,32.186V96.065z"/>
		<path style="fill:#FFCD85;" d="M501.23,298.648H10.77v21.121c0,17.704,14.482,32.188,32.186,32.188H202.69h106.621h159.734
			c17.703,0,32.185-14.485,32.185-32.188v-21.121H501.23z"/>
		<polygon style="fill:#FFCD85;" points="309.311,351.958 202.689,351.958 181.363,415.931 330.634,415.931 		"/>
		<path style="fill:#FFCD85;" d="M330.634,415.931H181.363c-11.73,0-21.324,9.594-21.324,21.324v15.31
			c0,3.311,2.708,6.018,6.015,6.018h179.888c3.31,0,6.017-2.708,6.017-6.018v-15.31
			C351.961,425.525,342.366,415.931,330.634,415.931z"/>
	</g>
</g>
<g>
	<path style="fill:#000003;" d="M469.045,42.647H42.956C19.271,42.647,0,61.918,0,85.604v234.167
		c0,23.688,19.271,42.959,42.956,42.959h144.791L173.256,406.2c-13.782,3.602-23.985,16.159-23.985,31.054v15.31
		c0,9.258,7.529,16.788,16.785,16.788h179.888c9.256,0,16.787-7.53,16.787-16.788v-15.31c0-14.895-10.204-27.453-23.987-31.054
		l-14.49-43.471h144.791c23.686,0,42.955-19.271,42.955-42.959V85.604C512,61.918,492.73,42.647,469.045,42.647z M21.54,106.835
		h468.92v181.045H21.54V106.835z M42.956,64.187h426.088c11.704,0,21.232,9.443,21.399,21.107H21.555
		C21.723,73.631,31.253,64.187,42.956,64.187z M341.191,447.812h-170.38v-10.558c0-5.82,4.733-10.554,10.554-10.554h149.271
		c5.82,0,10.557,4.733,10.557,10.554v10.558H341.191z M315.693,405.161H196.307l14.144-42.432h91.097L315.693,405.161z
		 M469.045,341.188H309.311H202.689H42.956c-11.809,0-21.416-9.608-21.416-21.417V309.42h468.92v10.351
		C490.46,331.58,480.854,341.188,469.045,341.188z"/>
	<path style="fill:#000003;" d="M324.965,142.008c-4.205-4.205-11.024-4.205-15.231,0l-15.221,15.221
		c-0.034,0.033-0.069,0.069-0.104,0.103l-41.116,41.12l-13.036-13.036c-4.207-4.205-11.025-4.205-15.232,0
		c-4.205,4.205-4.206,11.024,0,15.232l20.651,20.651c2.02,2.019,4.76,3.156,7.617,3.156c2.856,0,5.595-1.136,7.614-3.156
		l38.114-38.114c1.412,4.558,2.143,9.325,2.143,14.173c0,26.395-21.474,47.87-47.872,47.87s-47.873-21.474-47.873-47.87
		c0-26.397,21.476-47.874,47.873-47.874c4.253,0,8.489,0.568,12.586,1.687c5.737,1.567,11.661-1.814,13.228-7.55
		c1.567-5.738-1.814-11.662-7.552-13.229c-5.946-1.624-12.092-2.448-18.263-2.448c-38.275,0-69.413,31.138-69.413,69.414
		c0,38.274,31.138,69.41,69.413,69.41c38.274,0,69.412-31.136,69.412-69.41c0-10.726-2.463-21.183-7.163-30.695l9.424-9.424
		C329.173,153.032,329.173,146.212,324.965,142.008z"/>
	<path style="fill:#000003;" d="M53.419,194.761c-5.948,0-10.77,4.824-10.77,10.77v50.467c0,5.948,4.822,10.77,10.77,10.77
		c5.947,0,10.77-4.822,10.77-10.77v-50.467C64.19,199.585,59.367,194.761,53.419,194.761z"/>
	<path style="fill:#000003;" d="M53.419,163.108c-5.948,0-10.77,4.822-10.77,10.77v0.783c0,5.946,4.822,10.77,10.77,10.77
		c5.947,0,10.77-4.824,10.77-10.77v-0.783C64.19,167.929,59.367,163.108,53.419,163.108z"/>
</g>
<g>
</g>
<g>
</g>
<g>
</g>
<g>
</g>
<g>
</g>
<g>
</g>
<g>
</g>
<g>
</g>
<g>
</g>
<g>
</g>
<g>
</g>
<g>
</g>
<g>
</g>
<g>
</g>
<g>
</g>
</svg>
