<svg height="496pt" viewBox="0 0 496 496" width="496pt" xmlns="http://www.w3.org/2000/svg"><path d="m328 456v24c0 4.398438-3.601562 8-8 8h-32c-4.398438 0-8-3.601562-8-8v-24zm0 0" fill="#434a54"/><path d="m72 456v24c0 4.398438-3.601562 8-8 8h-32c-4.398438 0-8-3.601562-8-8v-24zm0 0" fill="#434a54"/><g fill="#838f9b"><path d="m344 383.761719v56.238281c0 8.800781-7.199219 16-16 16h-16v-77.921875c10.238281 3.121094 20.960938 5.042969 32 5.683594zm0 0"/><path d="m344 40v72.238281c-11.039062.640625-21.761719 2.5625-32 5.683594v-77.921875zm0 0"/><path d="m40 328v128h-16c-8.800781 0-16-7.199219-16-16v-400h32zm0 0"/><path d="m344 24v16h-336v-16c0-8.800781 7.199219-16 16-16h304c8.800781 0 16 7.199219 16 16zm0 0"/></g><path d="m40 136h96v96h-96zm0 0" fill="#ccd1d9"/><path d="m136 232h80.960938c-.640626 5.199219-.960938 10.558594-.960938 16 0 29.921875 9.679688 57.601562 26 80h-202v-96zm0 0" fill="#aab2bd"/><path d="m216 136v-96h96v77.921875c-13.359375 4.15625-25.921875 10.316406-37.121094 18.078125zm0 0" fill="#ccd1d9"/><path d="m280 363.359375c9.921875 6.242187 20.640625 11.199219 32 14.71875v77.921875h-272v-128h202c9.039062 12.480469 20.160156 23.28125 32.878906 32zm0 0" fill="#ccd1d9"/><path d="m40 40h176v96h-176zm0 0" fill="#aab2bd"/><path d="m136 136h138.878906c-31.4375 21.679688-53.277344 56.238281-57.917968 96h-80.960938zm0 0" fill="#aab2bd"/><path d="m280 363.359375v28.640625h-208v-32h202.878906c1.601563 1.199219 3.359375 2.320312 5.121094 3.359375zm0 0" fill="#fcd770"/><path d="m104 280c0 8.835938-7.164062 16-16 16s-16-7.164062-16-16 7.164062-16 16-16 16 7.164062 16 16zm0 0" fill="#ed5565"/><path d="m104 88c0 8.835938-7.164062 16-16 16s-16-7.164062-16-16 7.164062-16 16-16 16 7.164062 16 16zm0 0" fill="#ed5565"/><path d="m344 112.238281c2.640625-.160156 5.359375-.238281 8-.238281 75.121094 0 136 60.878906 136 136s-60.878906 136-136 136c-2.640625 0-5.359375-.078125-8-.238281-11.039062-.640625-21.761719-2.5625-32-5.683594-11.359375-3.519531-22.078125-8.476563-32-14.71875-1.761719-1.039063-3.519531-2.160156-5.121094-3.359375-12.71875-8.71875-23.839844-19.519531-32.878906-32-16.320312-22.398438-26-50.078125-26-80 0-5.441406.320312-10.800781.960938-16 4.640624-39.761719 26.480468-74.320312 57.917968-96 11.199219-7.761719 23.761719-13.921875 37.121094-18.078125 10.238281-3.121094 20.960938-5.042969 32-5.683594zm0 0" fill="#e6e9ed"/><path d="m371.039062 308.238281c4.160157-7.277343 12-12.238281 20.960938-12.238281 13.28125 0 24 10.71875 24 24s-10.71875 24-24 24-24-10.71875-24-24c0-4.320312 1.121094-8.320312 3.039062-11.761719zm0 0" fill="#ffc729"/><path d="m371.039062 187.761719c-1.917968-3.441407-3.039062-7.441407-3.039062-11.761719 0-13.28125 10.71875-24 24-24s24 10.71875 24 24-10.71875 24-24 24c-8.960938 0-16.800781-4.960938-20.960938-12.238281zm0 0" fill="#ffc729"/><path d="m315.601562 219.039062c7.597657 7.28125 12.398438 17.601563 12.398438 28.960938s-4.800781 21.679688-12.398438 28.960938h-.082031c-7.199219 6.878906-16.878906 11.039062-27.519531 11.039062-22.078125 0-40-17.921875-40-40s17.921875-40 40-40c10.640625 0 20.320312 4.160156 27.519531 11.039062zm0 0" fill="#fcd770"/><path d="m88 64c-13.230469 0-24 10.769531-24 24s10.769531 24 24 24 24-10.769531 24-24-10.769531-24-24-24zm0 32c-4.414062 0-8-3.59375-8-8s3.585938-8 8-8 8 3.59375 8 8-3.585938 8-8 8zm0 0"/><path d="m272 64h16v16h-16zm0 0"/><path d="m272 96h16v16h-16zm0 0"/><path d="m240 64h16v16h-16zm0 0"/><path d="m240 96h16v16h-16zm0 0"/><path d="m128 64h16v48h-16zm0 0"/><path d="m160 64h16v48h-16zm0 0"/><path d="m64 160h16v16h-16zm0 0"/><path d="m64 192h16v16h-16zm0 0"/><path d="m96 160h16v16h-16zm0 0"/><path d="m96 192h16v16h-16zm0 0"/><path d="m176 160h16v48h-16zm0 0"/><path d="m88 256c-13.230469 0-24 10.769531-24 24s10.769531 24 24 24 24-10.769531 24-24-10.769531-24-24-24zm0 32c-4.414062 0-8-3.59375-8-8s3.585938-8 8-8 8 3.59375 8 8-3.585938 8-8 8zm0 0"/><path d="m128 256h16v48h-16zm0 0"/><path d="m160 256h16v48h-16zm0 0"/><path d="m64 416h16v16h-16zm0 0"/><path d="m96 416h16v16h-16zm0 0"/><path d="m272 416h16v16h-16zm0 0"/><path d="m392 208c17.648438 0 32-14.351562 32-32s-14.351562-32-32-32-32 14.351562-32 32c0 2.832031.488281 5.535156 1.183594 8.152344l-44.816406 25.207031c-7.960938-5.855469-17.75-9.359375-28.367188-9.359375-26.472656 0-48 21.527344-48 48s21.527344 48 48 48c10.617188 0 20.40625-3.503906 28.367188-9.367188l44.816406 25.207032c-.695313 2.625-1.183594 5.328125-1.183594 8.160156 0 17.648438 14.351562 32 32 32s32-14.351562 32-32-14.351562-32-32-32c-9.046875 0-17.191406 3.816406-23.023438 9.871094l-41.136718-23.136719c5.152344-7.644531 8.160156-16.847656 8.160156-26.734375s-3.007812-19.089844-8.152344-26.734375l41.136719-23.136719c5.824219 6.054688 13.96875 9.871094 23.015625 9.871094zm0 96c8.824219 0 16 7.175781 16 16s-7.175781 16-16 16-16-7.175781-16-16 7.175781-16 16-16zm-104-24c-17.648438 0-32-14.351562-32-32s14.351562-32 32-32 32 14.351562 32 32-14.351562 32-32 32zm104-120c8.824219 0 16 7.175781 16 16s-7.175781 16-16 16-16-7.175781-16-16 7.175781-16 16-16zm0 0"/><path d="m352 104v-80c0-13.230469-10.769531-24-24-24h-304c-13.230469 0-24 10.769531-24 24v416c0 10.414062 6.710938 19.214844 16 22.527344v17.472656c0 8.824219 7.175781 16 16 16h32c8.824219 0 16-7.175781 16-16v-16h192v16c0 8.824219 7.175781 16 16 16h32c8.824219 0 16-7.175781 16-16v-17.472656c9.289062-3.3125 16-12.113282 16-22.527344v-48c79.398438 0 144-64.601562 144-144s-64.601562-144-144-144zm-32 3.710938v-59.710938h16v56.945312c-5.441406.597657-10.761719 1.566407-16 2.765626zm-256 244.289062v48h224v-23.191406c5.167969 2.574218 10.503906 4.839844 16 6.792968v64.398438h-256v-112h190.273438c4.40625 5.6875 9.207031 11.039062 14.398437 16zm208 16v16h-192v-16zm-256-320h16v400h-8c-4.414062 0-8-3.59375-8-8zm32 80v-80h160v80zm0 96v-80h80v80zm0 96v-80h160.40625c-.148438 2.664062-.40625 5.296875-.40625 8 0 26.238281 7.167969 50.792969 19.488281 72zm162.167969-96h-66.167969v-80h108.671875c-21.960937 20.976562-37.230469 48.785156-42.503906 80zm62.40625-96h-48.574219v-80h80v64.398438c-11.152344 3.960937-21.71875 9.160156-31.425781 15.601562zm-248.574219-112h304c4.414062 0 8 3.59375 8 8v8h-320v-8c0-4.40625 3.585938-8 8-8zm40 464h-32v-16h32zm224 0v-16h32v16zm48-40c0 4.40625-3.585938 8-8 8h-8v-59.710938c5.238281 1.191407 10.558594 2.160157 16 2.765626zm16-64c-70.574219 0-128-57.425781-128-128s57.425781-128 128-128 128 57.425781 128 128-57.425781 128-128 128zm0 0"/></svg>