<svg id="cubecart" xmlns="http://www.w3.org/2000/svg" viewBox="0 0 264.23 51.02">
  <title>cubecart</title>
  <g>
    <path id="cubecart_copy" data-name="cubecart copy" d="M140.92,150.08h6.81a13.54,13.54,0,0,0-13.62-10.6,14.3,14.3,0,0,0-10.65,4.61,14,14,0,0,0-3.94,10,14.75,14.75,0,0,0,4.15,10.14,14,14,0,0,0,10.35,4.3c6.91,0,12-4,13.68-10.81h-6.81q-1.69,4.46-6.91,4.46a7.79,7.79,0,0,1-7.84-8.14c0-4.81,3.33-8.25,7.63-8.25A7.58,7.58,0,0,1,140.92,150.08ZM167.5,167.8h6.35v-27.5h-6.3v11.93c0,6.66-1.33,10.09-6,10.09s-5.68-3.18-5.68-9.68V140.29h-6.45v15.93c0,8,3.89,12.3,10.7,12.3a8.64,8.64,0,0,0,7.38-3.69v3h0Zm15.26-25.3V131.38h-6.3V167.8h6.3v-2.25a13.1,13.1,0,0,0,8.55,3,13.49,13.49,0,0,0,9-3.23A14.77,14.77,0,0,0,205.51,154a14.46,14.46,0,0,0-4.66-10.7,13.62,13.62,0,0,0-9.48-3.64A12.6,12.6,0,0,0,182.76,142.5ZM183,154.17a7.91,7.91,0,0,1,7.57-8.24h0.31a8.1,8.1,0,0,1,8,8.14,8,8,0,0,1-7.84,8.1H190.6a7.76,7.76,0,0,1-7.58-7.93v-0.06h0Zm30.58,1.89h22c0-.46.05-0.92,0.05-1.38a14.35,14.35,0,0,0-2.61-9,14.29,14.29,0,0,0-26.07,8.4,14.83,14.83,0,0,0,4.1,10.14,13.8,13.8,0,0,0,10.3,4.3c6.09,0,11-3.43,13.32-9.48h-6.91a7.4,7.4,0,0,1-6.56,3.43c-4.35,0-7.22-2.45-7.63-6.4h0ZM228.76,151h-15a7.58,7.58,0,0,1,7.32-5.63A7.34,7.34,0,0,1,228.76,151Zm29.91-.92h6.81a13.54,13.54,0,0,0-13.62-10.6,14.3,14.3,0,0,0-10.66,4.62,14,14,0,0,0-3.94,10,14.74,14.74,0,0,0,4.15,10.14,14,14,0,0,0,10.35,4.3c6.91,0,12-4,13.68-10.81h-6.81q-1.69,4.46-6.92,4.46a7.78,7.78,0,0,1-7.84-8.14c0-4.81,3.33-8.25,7.63-8.25a7.58,7.58,0,0,1,7.17,4.3h0Zm31.4,17.72h6.2v-27.5H290v3.33c-1.8-2.71-4.66-4-8.66-4a13.2,13.2,0,0,0-10.19,4.25,14.43,14.43,0,0,0-3.94,10.09,14.09,14.09,0,0,0,14.29,14.5c4.25,0,7-1.23,8.55-4v3.38h0Zm-16.29-14a7.85,7.85,0,0,1,7.81-7.89h0a8.07,8.07,0,0,1,7.73,8.2,7.79,7.79,0,0,1-15.58.08q0-.19,0-0.38h0Zm38-7.94v-5.65a8.14,8.14,0,0,0-7.07,3.24v-3.18h-6v27.5h6.4v-14c0-5.12,1.18-7.48,6.66-7.89h0Zm6.2,21.92h6.4V146h4.25V140.3h-4.25v-8.91h-6.4v8.91h-4.2V146h4.2V167.8h0Z" transform="translate(-67.63 -124.69)" fill="#434242"/>
    <path id="cubecart_copy-2" data-name="cubecart copy" d="M140.92,150.08h6.81a13.54,13.54,0,0,0-13.62-10.6,14.3,14.3,0,0,0-10.65,4.61,14,14,0,0,0-3.94,10,14.75,14.75,0,0,0,4.15,10.14,14,14,0,0,0,10.35,4.3c6.91,0,12-4,13.68-10.81h-6.81q-1.69,4.46-6.91,4.46a7.79,7.79,0,0,1-7.84-8.14c0-4.81,3.33-8.25,7.63-8.25A7.58,7.58,0,0,1,140.92,150.08ZM167.5,167.8h6.35v-27.5h-6.3v11.93c0,6.66-1.33,10.09-6,10.09s-5.68-3.18-5.68-9.68V140.29h-6.45v15.93c0,8,3.89,12.3,10.7,12.3a8.64,8.64,0,0,0,7.38-3.69v3h0Zm15.26-25.3V131.38h-6.3V167.8h6.3v-2.25a13.1,13.1,0,0,0,8.55,3,13.49,13.49,0,0,0,9-3.23A14.77,14.77,0,0,0,205.51,154a14.46,14.46,0,0,0-4.66-10.7,13.62,13.62,0,0,0-9.48-3.64A12.6,12.6,0,0,0,182.76,142.5ZM183,154.17a7.91,7.91,0,0,1,7.57-8.24h0.31a8.1,8.1,0,0,1,8,8.14,8,8,0,0,1-7.84,8.1H190.6a7.76,7.76,0,0,1-7.58-7.93v-0.06h0Zm30.58,1.89h22c0-.46.05-0.92,0.05-1.38a14.35,14.35,0,0,0-2.61-9,14.29,14.29,0,0,0-26.07,8.4,14.83,14.83,0,0,0,4.1,10.14,13.8,13.8,0,0,0,10.3,4.3c6.09,0,11-3.43,13.32-9.48h-6.91a7.4,7.4,0,0,1-6.56,3.43c-4.35,0-7.22-2.45-7.63-6.4h0ZM228.76,151h-15a7.58,7.58,0,0,1,7.32-5.63A7.34,7.34,0,0,1,228.76,151Zm29.91-.92h6.81a13.54,13.54,0,0,0-13.62-10.6,14.3,14.3,0,0,0-10.66,4.62,14,14,0,0,0-3.94,10,14.74,14.74,0,0,0,4.15,10.14,14,14,0,0,0,10.35,4.3c6.91,0,12-4,13.68-10.81h-6.81q-1.69,4.46-6.92,4.46a7.78,7.78,0,0,1-7.84-8.14c0-4.81,3.33-8.25,7.63-8.25a7.58,7.58,0,0,1,7.17,4.3h0Zm31.4,17.72h6.2v-27.5H290v3.33c-1.8-2.71-4.66-4-8.66-4a13.2,13.2,0,0,0-10.19,4.25,14.43,14.43,0,0,0-3.94,10.09,14.09,14.09,0,0,0,14.29,14.5c4.25,0,7-1.23,8.55-4v3.38h0Zm-16.29-14a7.85,7.85,0,0,1,7.81-7.89h0a8.07,8.07,0,0,1,7.73,8.2,7.79,7.79,0,0,1-15.58.08q0-.19,0-0.38h0Zm38-7.94v-5.65a8.14,8.14,0,0,0-7.07,3.24v-3.18h-6v27.5h6.4v-14c0-5.12,1.18-7.48,6.66-7.89h0Zm6.2,21.92h6.4V146h4.25V140.3h-4.25v-8.91h-6.4v8.91h-4.2V146h4.2V167.8h0Z" transform="translate(-67.63 -124.69)" fill="none" stroke="#1f2020" stroke-linejoin="round"/>
    <path d="M119.13,132.89l212.73-1v15.71s-52.6,8.61-104.48,9c-53.93.44-107.22-7.32-107.22-7.32Z" transform="translate(-67.63 -124.69)" fill="#fff" opacity="0.07" style="isolation: isolate"/>
    <path id="path-2" d="M69.93,132a148.17,148.17,0,0,1,18-4.18A167.21,167.21,0,0,1,107.26,126v49.17a181.83,181.83,0,0,1-21.94-1.45,59.63,59.63,0,0,1-15.39-4.48,130.63,130.63,0,0,1-1.8-19.82A96.93,96.93,0,0,1,69.93,132Z" transform="translate(-67.63 -124.69)" fill="#60bed5"/>
    <path id="path-2-2" data-name="path-2" d="M69.93,132a148.17,148.17,0,0,1,18-4.18A167.21,167.21,0,0,1,107.26,126v49.17a181.83,181.83,0,0,1-21.94-1.45,59.63,59.63,0,0,1-15.39-4.48,130.63,130.63,0,0,1-1.8-19.82A96.93,96.93,0,0,1,69.93,132Z" transform="translate(-67.63 -124.69)" fill="none" stroke="#3a7281" stroke-linejoin="round"/>
    <path id="path" d="M107.77,126a57.31,57.31,0,0,1,3.57,5.28,17.81,17.81,0,0,1,1.84,4.76,119.09,119.09,0,0,1,.77,12.87c0,7.48-.77,15.44-0.77,15.44a19.94,19.94,0,0,1-1.69,5.72,22.89,22.89,0,0,1-3.71,5V126Z" transform="translate(-67.63 -124.69)" fill="#fff"/>
    <path id="path-2-3" data-name="path" d="M107.77,126a57.31,57.31,0,0,1,3.57,5.28,17.81,17.81,0,0,1,1.84,4.76,119.09,119.09,0,0,1,.77,12.87c0,7.48-.77,15.44-0.77,15.44a19.94,19.94,0,0,1-1.69,5.72,22.89,22.89,0,0,1-3.71,5V126Z" transform="translate(-67.63 -124.69)" fill="none" stroke="#3a7281" stroke-linejoin="round"/>
    <path d="M70.06,132.22a143.72,143.72,0,0,1,17.61-4.16,159.54,159.54,0,0,1,19.46-1.76L107,147.66s-11.53,6.63-21.66,6C76.14,153,68.52,145,68.52,145s0.26-3.1.74-6.57C69.67,135.4,70.06,132.22,70.06,132.22Z" transform="translate(-67.63 -124.69)" fill="#95c9d6" opacity="0.25" style="isolation: isolate"/>
    <path id="CC" d="M73.6,142.45A13,13,0,0,0,71.13,150v1a13.7,13.7,0,0,0,1.57,6.12c1.58,2.6,3.34,4,5.28,4.23l0.77,0.08a5.91,5.91,0,0,0,2.58-.53c2.22-1.29,3.37-2.57,3.37-3.81v-0.81c-0.35-1.55-1-2.33-2-2.36a2.73,2.73,0,0,0-1,.3c-1.07,1.4-2.14,2.06-3.2,2l-0.36,0L77.31,156a5.78,5.78,0,0,1-2.87-5.38v-0.25a7.26,7.26,0,0,1,.42-2.47c0.82-2,1.92-3,3.3-3.08l0.36,0a3.09,3.09,0,0,1,2.28,1,2.63,2.63,0,0,0,1.89,1.32L83,147a2.53,2.53,0,0,0,1.71-2.55v-0.55a3.41,3.41,0,0,0-1.16-2.21c-1.71-1.58-3.31-2.28-4.79-2.13l-0.77.08c-1.47.15-2.93,1.1-4.38,2.83h0Zm15.63-1.22A13.79,13.79,0,0,0,86,149.91V151a14.21,14.21,0,0,0,2.07,7c2.1,3,4.45,4.7,7,5l1,0.1a9.08,9.08,0,0,0,3.49-.57c3-1.47,4.6-3,4.6-4.41V157.2c-0.47-1.82-1.4-2.74-2.74-2.78a4.18,4.18,0,0,0-1.33.34c-1.45,1.62-2.9,2.38-4.33,2.31l-0.49,0-1.15-.21a6.56,6.56,0,0,1-3.83-6.24v-0.28a7.39,7.39,0,0,1,.57-2.86c1.1-2.29,2.56-3.49,4.41-3.59l0.49,0A4.51,4.51,0,0,1,98.91,145a3.63,3.63,0,0,0,2.57,1.52l0.4-.09a3,3,0,0,0,2.34-3v-0.64a3.78,3.78,0,0,0-1.59-2.57c-2.34-1.82-4.5-2.6-6.5-2.4l-1,.1a9.67,9.67,0,0,0-5.85,3.34h0Z" transform="translate(-67.63 -124.69)" fill="#fff" stroke="#437d8b" stroke-linejoin="round"/>
    <path d="M107.08,124.69h0.82l-0.13,50.24-0.7.39V124.69h0Z" transform="translate(-67.63 -124.69)" fill="#fff"/>
  </g>
</svg>
