<svg id="opencart" xmlns="http://www.w3.org/2000/svg" xmlns:xlink="http://www.w3.org/1999/xlink" viewBox="0 0 278.63 54.17">
  <defs>
    <linearGradient id="linear-gradient" x1="60.68" y1="150.81" x2="88.3" y2="150.81" gradientUnits="userSpaceOnUse">
      <stop offset="0" stop-color="#3cb9ec"/>
      <stop offset="1" stop-color="#52c3ee"/>
    </linearGradient>
    <linearGradient id="linear-gradient-2" x1="90.36" y1="156.28" x2="117.98" y2="156.28" xlink:href="#linear-gradient"/>
    <linearGradient id="linear-gradient-3" x1="120.23" y1="150.81" x2="147.85" y2="150.81" xlink:href="#linear-gradient"/>
    <linearGradient id="linear-gradient-4" x1="150.03" y1="150.54" x2="175.43" y2="150.54" xlink:href="#linear-gradient"/>
    <linearGradient id="linear-gradient-5" x1="177.65" y1="150.81" x2="201.18" y2="150.81" xlink:href="#linear-gradient"/>
    <linearGradient id="linear-gradient-6" x1="203.4" y1="150.81" x2="231.02" y2="150.81" xlink:href="#linear-gradient"/>
    <linearGradient id="linear-gradient-7" x1="233.9" y1="150.54" x2="251.96" y2="150.54" xlink:href="#linear-gradient"/>
    <linearGradient id="linear-gradient-8" x1="253.36" y1="146.1" x2="273.37" y2="146.1" xlink:href="#linear-gradient"/>
    <linearGradient id="linear-gradient-9" x1="173.85" y1="129.14" x2="183.63" y2="129.14" xlink:href="#linear-gradient"/>
    <linearGradient id="linear-gradient-10" x1="279.44" y1="138.13" x2="339.32" y2="138.13" xlink:href="#linear-gradient"/>
    <linearGradient id="linear-gradient-11" x1="291.02" y1="161.37" x2="299.57" y2="161.37" xlink:href="#linear-gradient"/>
    <linearGradient id="linear-gradient-12" x1="310.5" y1="161.37" x2="319.05" y2="161.37" xlink:href="#linear-gradient"/>
  </defs>
  <title>opencart</title>
  <g>
    <path d="M80.09,150.78A8.09,8.09,0,0,0,78.74,146a5.2,5.2,0,0,0-8.48,0,8,8,0,0,0-1.36,4.76,8.28,8.28,0,0,0,1.36,4.81,5.2,5.2,0,0,0,8.48,0A8.35,8.35,0,0,0,80.09,150.78Zm8.21,0a15.39,15.39,0,0,1-3.72,10.51,12.77,12.77,0,0,1-10.08,4.47,12.75,12.75,0,0,1-10.08-4.47,16.66,16.66,0,0,1,0-21,12.9,12.9,0,0,1,10.08-4.42,12.81,12.81,0,0,1,10.08,4.42A15.35,15.35,0,0,1,88.3,150.78Z" transform="translate(-60.68 -122.54)" fill-rule="evenodd" fill="url(#linear-gradient)"/>
    <path d="M109.77,150.78a8.09,8.09,0,0,0-1.36-4.76,5.2,5.2,0,0,0-8.48,0,8.09,8.09,0,0,0-1.35,4.76,8.35,8.35,0,0,0,1.35,4.81,5.2,5.2,0,0,0,8.48,0A8.36,8.36,0,0,0,109.77,150.78Zm8.21,0A16.17,16.17,0,0,1,114.61,161a11.16,11.16,0,0,1-9.28,4.78,10.25,10.25,0,0,1-6.76-2.31c0,0.35,0,1.21.12,2.57s0.12,2.49.12,3.38q0,7.32-4.36,7.32a3.83,3.83,0,0,1-2.94-1.26,4.37,4.37,0,0,1-1.15-3.05V140.66a4.26,4.26,0,0,1,1.18-3,3.85,3.85,0,0,1,2.92-1.26A4,4,0,0,1,98.29,139a8.61,8.61,0,0,1,7-3.15,11.19,11.19,0,0,1,9.29,4.72A16.28,16.28,0,0,1,118,150.78Z" transform="translate(-60.68 -122.54)" fill-rule="evenodd" fill="url(#linear-gradient-2)"/>
    <path d="M139.64,147.84a4.81,4.81,0,0,0-1.74-3.43,5.2,5.2,0,0,0-3.56-1.54,5.26,5.26,0,0,0-3.62,1.54,4.59,4.59,0,0,0-1.68,3.43h10.6Zm8.21,2.06a3.51,3.51,0,0,1-1,2.85,4.8,4.8,0,0,1-3,.78H129a4,4,0,0,0,2.21,3.62,8.87,8.87,0,0,0,4.36,1,11.84,11.84,0,0,0,4.81-1.32,12.24,12.24,0,0,1,3.6-1.32,3.2,3.2,0,0,1,2.42,1.05,3.55,3.55,0,0,1,1,2.51q0,3.37-5,5.25a22.49,22.49,0,0,1-7.82,1.42,13.52,13.52,0,0,1-10.38-4.26,15.1,15.1,0,0,1-4-10.71,14.83,14.83,0,0,1,4.12-10.53,13.42,13.42,0,0,1,10.21-4.39A12.32,12.32,0,0,1,144,140,14.17,14.17,0,0,1,147.85,149.9Z" transform="translate(-60.68 -122.54)" fill-rule="evenodd" fill="url(#linear-gradient-3)"/>
    <path d="M175.43,160.9a4.38,4.38,0,0,1-1.15,3.05,3.83,3.83,0,0,1-2.94,1.26q-4.3,0-4.3-6.82c0-.87.06-2.25,0.18-4.14s0.19-3.27.19-4.14q0-7.23-4.67-7.24t-4.66,7.24c0,0.87,0,2.26.14,4.14s0.15,3.27.15,4.14q0,6.82-4.24,6.82a3.79,3.79,0,0,1-2.93-1.26A4.34,4.34,0,0,1,150,160.9V140.65a4.21,4.21,0,0,1,1.16-3,3.83,3.83,0,0,1,2.94-1.24,4.12,4.12,0,0,1,4.09,2.61q2-3.15,7-3.15a10.65,10.65,0,0,1,7.4,2.46,9.5,9.5,0,0,1,2.78,7.25V160.9Z" transform="translate(-60.68 -122.54)" fill-rule="evenodd" fill="url(#linear-gradient-4)"/>
    <g>
      <path d="M201.18,160q0,2.78-3.62,4.41a14.59,14.59,0,0,1-6.1,1.31,12.75,12.75,0,0,1-10.08-4.47,16.63,16.63,0,0,1,.08-21.09,12.66,12.66,0,0,1,10-4.34,16.24,16.24,0,0,1,6.15,1.05q3.58,1.41,3.57,4.42a4.13,4.13,0,0,1-.94,2.68,3,3,0,0,1-2.41,1.16,9.61,9.61,0,0,1-2.89-.67,9.4,9.4,0,0,0-3-.67,5.47,5.47,0,0,0-4.57,2.09,7.49,7.49,0,0,0-1.52,4.86,8,8,0,0,0,1.37,4.75,4.84,4.84,0,0,0,4.25,2.25,10.9,10.9,0,0,0,3.31-.72,11.21,11.21,0,0,1,3-.72,3.05,3.05,0,0,1,2.37,1.16A3.81,3.81,0,0,1,201.18,160Z" transform="translate(-60.68 -122.54)" fill-rule="evenodd" fill="url(#linear-gradient-5)"/>
      <path d="M222.81,150.78a8.09,8.09,0,0,0-1.35-4.76,5,5,0,0,0-4.24-2.19A4.86,4.86,0,0,0,213,146a8,8,0,0,0-1.36,4.76,8.57,8.57,0,0,0,1.31,4.81,5,5,0,0,0,4.29,2.19,4.86,4.86,0,0,0,4.24-2.19A8.35,8.35,0,0,0,222.81,150.78ZM231,160.9a4.37,4.37,0,0,1-1.15,3.05,3.85,3.85,0,0,1-2.95,1.26,3.94,3.94,0,0,1-3.83-2.61,8.6,8.6,0,0,1-7,3.15,11.25,11.25,0,0,1-9.35-4.78,17.37,17.37,0,0,1,0-20.39,11.35,11.35,0,0,1,9.35-4.72,8.61,8.61,0,0,1,7,3.15,3.93,3.93,0,0,1,3.83-2.61,3.85,3.85,0,0,1,2.92,1.26,4.24,4.24,0,0,1,1.18,3V160.9Z" transform="translate(-60.68 -122.54)" fill-rule="evenodd" fill="url(#linear-gradient-6)"/>
      <path d="M252,140.11a3.61,3.61,0,0,1-2.56,3.62q-2.37.8-4.72,1.63c-1.72,1-2.57,2.81-2.57,5.46V160.9a4.39,4.39,0,0,1-1.16,3.05,4.08,4.08,0,0,1-5.89,0,4.33,4.33,0,0,1-1.16-3.05V140.65a4.24,4.24,0,0,1,1.15-3A3.87,3.87,0,0,1,238,136.4a4.12,4.12,0,0,1,4.09,2.61c1.76-2.1,3.64-3.15,5.68-3.15a4,4,0,0,1,3,1.26A4.18,4.18,0,0,1,252,140.11Z" transform="translate(-60.68 -122.54)" fill-rule="evenodd" fill="url(#linear-gradient-7)"/>
      <path d="M273.37,140.48c0,1.83-.72,3-2.14,3.47a16.27,16.27,0,0,1-4.39.37V160.9a4.39,4.39,0,0,1-1.16,3.05,4.06,4.06,0,0,1-5.87,0,4.32,4.32,0,0,1-1.18-3.05V144.32a8.08,8.08,0,0,1-3.69-.64,3.34,3.34,0,0,1-1.58-3.2,3.21,3.21,0,0,1,1.63-3.15,7.88,7.88,0,0,1,3.64-.63v-3.52q0-6.2,4.1-6.19c2.73,0,4.1,2.06,4.1,6.19v3.52a16.27,16.27,0,0,1,4.39.37A3.2,3.2,0,0,1,273.37,140.48Z" transform="translate(-60.68 -122.54)" fill-rule="evenodd" fill="url(#linear-gradient-8)"/>
    </g>
    <path d="M178.75,126.76h-1.13v2.06h1.13a2.64,2.64,0,0,0,1.33-.24,0.91,0.91,0,0,0,.36-0.83A0.79,0.79,0,0,0,180,127,2.52,2.52,0,0,0,178.75,126.76Zm0.15-.54a3.17,3.17,0,0,1,1.76.38,1.31,1.31,0,0,1,.56,1.18,1.41,1.41,0,0,1-.36,1,1.5,1.5,0,0,1-1,.47l1.26,2.66h-0.86L179,129.36h-1.42v2.54h-0.78v-5.69h2.05Zm4.25,2.93a4.43,4.43,0,0,0-1.28-3.1,4.29,4.29,0,0,0-1.44-1,4.51,4.51,0,0,0-1.7-.33,4.19,4.19,0,0,0-1.68.33,4.4,4.4,0,0,0-1.41.93,4.64,4.64,0,0,0-1,1.46,4.34,4.34,0,0,0,1,4.76,4.38,4.38,0,0,0,1.43,1,4.25,4.25,0,0,0,1.67.34,4.42,4.42,0,0,0,1.69-.34,4.61,4.61,0,0,0,1.45-1A4.24,4.24,0,0,0,183.15,129.14Zm-4.42-4.91a4.94,4.94,0,0,1,1.9.37,4.84,4.84,0,0,1,1.59,1.07,4.75,4.75,0,0,1,1,1.58,4.88,4.88,0,0,1,.36,1.88,4.76,4.76,0,0,1-1.41,3.44,5.2,5.2,0,0,1-1.62,1.09,4.68,4.68,0,0,1-1.87.37,4.59,4.59,0,0,1-1.86-.37,5.08,5.08,0,0,1-2.66-2.66,4.83,4.83,0,0,1-.36-1.87,4.74,4.74,0,0,1,.37-1.88,4.88,4.88,0,0,1,1.08-1.61,4.64,4.64,0,0,1,1.55-1.06A5,5,0,0,1,178.73,124.23Z" transform="translate(-60.68 -122.54)" fill-rule="evenodd" fill="url(#linear-gradient-9)"/>
    <path d="M279.44,122.54c7.68,8.08,14.86,9.29,43.14,9.29s15.85,6.29-1.62,21.88c5.54-9.63,24.57-18.15-6.63-17.67C284.44,136.5,282.67,127.4,279.44,122.54Z" transform="translate(-60.68 -122.54)" fill="url(#linear-gradient-10)"/>
    <path d="M299.57,161.38a4.28,4.28,0,1,1-4.27-4.28A4.27,4.27,0,0,1,299.57,161.38Z" transform="translate(-60.68 -122.54)" fill="url(#linear-gradient-11)"/>
    <path d="M319,161.38a4.28,4.28,0,1,1-4.27-4.28A4.27,4.27,0,0,1,319,161.38Z" transform="translate(-60.68 -122.54)" fill="url(#linear-gradient-12)"/>
  </g>
</svg>
