<svg xmlns="http://www.w3.org/2000/svg" viewBox="0 0 136.4 159.64"><defs><radialGradient id="a" cx="63.93" cy="33.71" r="33.71" gradientUnits="userSpaceOnUse"><stop offset="0" stop-color="#e8acab"/><stop offset="1" stop-color="#cf514b"/></radialGradient><radialGradient id="b" cx="225.19" cy="135.01" r="43.01" gradientUnits="userSpaceOnUse"><stop offset="0" stop-color="#afb4db"/><stop offset="1" stop-color="#5761a9"/></radialGradient><radialGradient id="c" cx="53.86" cy="105.78" r="53.86" gradientUnits="userSpaceOnUse"><stop offset=".08" stop-color="#9dcd9f"/><stop offset="1" stop-color="#0da753"/></radialGradient></defs><title>oscommerce</title><circle cx="63.93" cy="33.71" r="33.71" fill="url(#a)"/><g fill="#fff"><path d="M90.44 29.94c-3.5 3.5-11.09 1.58-17-4.29s-7.78-13.45-4.28-17 11.09-1.57 16.95 4.28 7.83 13.54 4.33 17.01z" opacity=".01"/><path d="M90.2 29.63c-3.41 3.41-10.8 1.54-16.52-4.18s-7.58-13.1-4.17-16.51 10.8-1.53 16.51 4.17 7.58 13.11 4.18 16.52z" opacity=".03"/><path d="M89.96 29.32c-3.32 3.32-10.52 1.5-16.08-4.07s-7.38-12.78-4.06-16.07 10.51-1.49 16.07 4.06 7.38 12.77 4.07 16.08z" opacity=".04"/><path d="M89.71 29.01c-3.23 3.23-10.23 1.46-15.64-4s-7.17-12.35-3.94-15.54 10.23-1.45 15.63 4 7.18 12.32 3.95 15.54z" opacity=".05"/><path d="M89.47 28.71c-3.14 3.14-9.94 1.42-15.2-3.84s-7-12.06-3.83-15.19 9.94-1.41 15.19 3.84 6.98 12.05 3.84 15.19z" opacity=".07"/><path d="M89.2 28.4c-3 3-9.65 1.38-14.76-3.73s-6.77-11.71-3.72-14.76 9.65-1.37 14.75 3.73 6.8 11.71 3.73 14.76z" opacity=".08"/><path d="M88.99 28.09c-3 3-9.37 1.33-14.32-3.62s-6.57-11.36-3.61-14.32 9.36-1.33 14.31 3.62 6.57 11.37 3.62 14.32z" opacity=".09"/><path d="M88.75 27.78c-2.86 2.87-9.08 1.29-13.88-3.51s-6.37-11-3.5-13.88 9.08-1.29 13.87 3.51 6.37 11.02 3.51 13.88z" opacity=".11"/><path d="M88.5 27.47c-2.77 2.78-8.79 1.25-13.45-3.4s-6.17-10.66-3.39-13.44 8.79-1.25 13.43 3.4 6.19 10.67 3.41 13.44z" opacity=".12"/><path d="M88.26 27.17c-2.68 2.69-8.51 1.21-13-3.29s-6-10.31-3.28-13 8.5-1.21 13 3.28 5.96 10.31 3.28 13.01z" opacity=".14"/><path d="M88.02 26.86c-2.59 2.59-8.22 1.17-12.57-3.18s-5.76-10-3.17-12.56 8.21-1.17 12.56 3.17 5.77 9.98 3.18 12.57z" opacity=".15"/><path d="M87.78 26.55c-2.5 2.5-7.93 1.13-12.13-3.07s-5.56-9.62-3.06-12.12 7.93-1.13 12.12 3.06 5.57 9.63 3.07 12.13z" opacity=".16"/><path d="M87.54 26.24c-2.41 2.41-7.64 1.09-11.69-3s-5.36-9.27-2.95-11.68 7.64-1.08 11.68 3 5.37 9.27 2.96 11.68z" opacity=".18"/><path d="M87.3 25.93c-2.32 2.32-7.36 1-11.25-2.84s-5.16-8.92-2.85-11.24 7.35-1 11.24 2.84 5.17 8.92 2.86 11.24z" opacity=".19"/><path d="M87.05 25.62c-2.23 2.23-7.07 1-10.81-2.73s-5-8.57-2.72-10.8 7.07-1 10.8 2.73 4.96 8.58 2.73 10.8z" opacity=".2"/><path d="M86.81 25.32c-2.14 2.14-6.78 1-10.37-2.62s-4.75-8.22-2.61-10.37 6.78-1 10.36 2.62 4.76 8.23 2.62 10.37z" opacity=".22"/><path d="M86.57 25.01c-2 2.05-6.5.93-9.93-2.51s-4.55-7.87-2.5-9.93 6.49-.92 9.92 2.51 4.56 7.88 2.51 9.93z" opacity=".23"/><path d="M86.33 24.7c-2 2-6.21.88-9.49-2.4s-4.35-7.53-2.39-9.49 6.2-.88 9.48 2.4 4.35 7.53 2.4 9.49z" opacity=".24"/><path d="M86.09 24.39c-1.87 1.87-5.92.84-9.05-2.29s-4.15-7.18-2.28-9 5.92-.84 9 2.29 4.19 7.13 2.33 9z" opacity=".26"/><path d="M85.84 24.08c-1.78 1.78-5.63.8-8.61-2.18s-3.95-6.83-2.17-8.61 5.63-.8 8.6 2.18 3.96 6.84 2.18 8.61z" opacity=".27"/><path d="M85.6 23.77c-1.69 1.69-5.35.76-8.17-2.07s-3.75-6.48-2.06-8.17 5.34-.76 8.16 2.07 3.76 6.49 2.07 8.17z" opacity=".28"/><path d="M85.36 23.47c-1.6 1.6-5.06.72-7.74-2s-3.55-6.13-1.95-7.73 5.05-.72 7.73 2 3.55 6.13 1.96 7.73z" opacity=".3"/><path d="M85.12 23.16c-1.51 1.51-4.77.68-7.3-1.84s-3.34-5.78-1.84-7.29 4.77-.68 7.29 1.84 3.35 5.78 1.85 7.29z" opacity=".31"/><path d="M84.88 22.85c-1.41 1.42-4.49.64-6.86-1.73s-3.14-5.43-1.73-6.85 4.48-.64 6.85 1.73 3.15 5.47 1.74 6.85z" opacity=".32"/><path d="M84.64 22.54c-1.32 1.33-4.2.6-6.42-1.62s-2.94-5.09-1.62-6.41 4.19-.59 6.41 1.62 2.95 5.09 1.63 6.41z" opacity=".34"/><path d="M84.39 22.23c-1.23 1.24-3.91.56-6-1.51s-2.74-4.74-1.5-6 3.91-.55 6 1.51 2.73 4.77 1.5 6z" opacity=".35"/><path d="M84.2 21.92c-1.14 1.15-3.62.52-5.54-1.4s-2.54-4.39-1.39-5.54 3.62-.51 5.53 1.4 2.49 4.4 1.4 5.54z" opacity=".36"/><path d="M83.91 21.62c-1.05 1.06-3.34.48-5.1-1.29s-2.34-4-1.28-5.1 3.33-.47 5.09 1.29 2.34 4.05 1.29 5.1z" opacity=".38"/><path d="M83.67 21.31c-1 1-3 .43-4.66-1.18s-2.14-3.66-1.17-4.66 3-.43 4.65 1.18 2.14 3.7 1.18 4.66z" opacity=".39"/><path d="M83.43 21c-.87.87-2.76.39-4.22-1.07s-1.93-3.34-1.06-4.22 2.76-.39 4.21 1.07 1.93 3.35 1.07 4.22z" opacity=".41"/><path d="M83.2 20.69c-.78.78-2.47.35-3.78-1s-1.73-3-1-3.78 2.47-.35 3.77 1 1.77 3 1.01 3.78z" opacity=".42"/><path d="M82.94 20.38c-.69.69-2.19.31-3.34-.84s-1.53-2.65-.84-3.34 2.18-.31 3.33.85 1.54 2.65.85 3.33z" opacity=".43"/><path d="M82.7 20.08c-.6.6-1.9.27-2.9-.73s-1.33-2.3-.73-2.9 1.89-.27 2.89.73 1.34 2.29.74 2.9z" opacity=".45"/><path d="M82.46 19.77c-.51.51-1.61.23-2.46-.62s-1.13-1.95-.62-2.46 1.61-.23 2.46.62 1.12 1.95.62 2.46z" opacity=".46"/><path d="M82.2 19.47c-.42.42-1.33.19-2-.51s-.93-1.6-.51-2 1.32-.19 2 .51.94 1.57.51 2z" opacity=".47"/><path d="M213.78 88.68a1.6 1.6 0 1 1-.4-1.58 1.23 1.23 0 0 1 .4 1.58z" transform="translate(-131.8 -69.53)" opacity=".49"/><path d="M213.53 88.37a1.16 1.16 0 1 1-.29-1.14.89.89 0 0 1 .29 1.14z" transform="translate(-131.8 -69.53)" opacity=".5"/></g><path d="M268.2 135a43 43 0 1 1-43-43 43 43 0 0 1 43 43z" transform="translate(-131.8 -69.53)" fill="url(#b)"/><g fill="#fff"><path d="M127.27 60.75c-4.49 4.49-14.23 2-21.76-5.49s-10-17.26-5.49-21.75 14.23-2 21.75 5.49 9.99 17.27 5.5 21.75z" opacity=".01"/><path d="M127.03 60.47c-4.4 4.4-13.94 2-21.32-5.38s-9.77-16.91-5.37-21.31 13.94-2 21.31 5.38 9.77 16.89 5.38 21.31z" opacity=".02"/><path d="M126.78 60.14c-4.31 4.31-13.65 2-20.88-5.27s-9.57-16.56-5.26-20.86 13.65-1.94 20.86 5.27 9.59 16.55 5.28 20.86z" opacity=".03"/><path d="M126.54 59.83c-4.22 4.22-13.36 1.91-20.44-5.16s-9.37-16.21-5.15-20.42 13.36-1.9 20.42 5.15 9.39 16.22 5.17 20.43z" opacity=".04"/><path d="M126.3 59.47c-4.12 4.13-13.08 1.87-20-5s-9.17-15.86-5-20 13.07-1.86 20 5 9.12 15.93 5 20z" opacity=".05"/><path d="M126.05 59.21c-4 4-12.79 1.83-19.55-4.94s-9-15.51-4.93-19.54 12.79-1.82 19.54 4.93 8.98 15.52 4.94 19.55z" opacity=".06"/><path d="M125.81 58.9c-3.94 3.95-12.5 1.79-19.11-4.83s-8.76-15.16-4.82-19.1 12.5-1.78 19.1 4.82 8.77 15.17 4.83 19.11z" opacity=".07"/><path d="M125.57 58.59c-3.85 3.85-12.21 1.75-18.67-4.71s-8.56-14.81-4.71-18.66 12.21-1.74 18.66 4.71 8.57 14.81 4.72 18.66z" opacity=".09"/><path d="M125.33 58.28c-3.76 3.76-11.92 1.71-18.23-4.6s-8.36-14.46-4.6-18.22 11.92-1.7 18.22 4.6 8.37 14.46 4.61 18.22z" opacity=".1"/><path d="M125.08 57.97c-3.67 3.67-11.63 1.67-17.79-4.49s-8.15-14.11-4.48-17.78 11.63-1.66 17.78 4.49 8.16 14.11 4.49 17.78z" opacity=".11"/><path d="M124.84 57.66c-3.58 3.58-11.34 1.62-17.35-4.38s-8-13.76-4.37-17.34 11.34-1.62 17.34 4.38 7.96 13.77 4.38 17.34z" opacity=".12"/><path d="M124.6 57.35c-3.49 3.49-11.06 1.58-16.91-4.27s-7.75-13.41-4.26-16.9 11.05-1.57 16.89 4.26 7.76 13.43 4.28 16.91z" opacity=".13"/><path d="M124.35 57.04c-3.4 3.4-10.77 1.54-16.46-4.16s-7.55-13.06-4.15-16.45 10.76-1.53 16.45 4.15 7.56 13.07 4.16 16.46z" opacity=".14"/><path d="M124.11 56.73c-3.3 3.31-10.48 1.5-16-4s-7.35-12.71-4-16 10.48-1.49 16 4 7.3 12.74 4 16z" opacity=".15"/><path d="M123.87 56.47c-3.21 3.22-10.19 1.46-15.58-3.93s-7.14-12.36-3.93-15.57 10.19-1.45 15.57 3.93 7.15 12.31 3.94 15.57z" opacity=".16"/><path d="M123.62 56.11c-3.12 3.13-9.9 1.42-15.14-3.82s-6.94-12-3.82-15.13 9.9-1.41 15.13 3.82 6.96 12.01 3.83 15.13z" opacity=".17"/><path d="M123.38 55.8c-3 3-9.61 1.38-14.7-3.71s-6.74-11.66-3.71-14.69 9.61-1.37 14.69 3.71 6.75 11.66 3.72 14.69z" opacity=".18"/><path d="M123.14 55.47c-2.94 2.94-9.32 1.33-14.26-3.6s-6.54-11.31-3.59-14.25 9.32-1.33 14.25 3.6 6.54 11.34 3.6 14.25z" opacity=".19"/><path d="M122.9 55.18c-2.85 2.85-9 1.29-13.82-3.49s-6.33-11-3.48-13.81 9-1.29 13.81 3.49 6.33 10.97 3.49 13.81z" opacity=".2"/><path d="M122.65 54.87c-2.76 2.76-8.75 1.25-13.37-3.38s-6.13-10.61-3.37-13.37 8.74-1.25 13.37 3.37 6.13 10.63 3.37 13.38z" opacity=".21"/><path d="M122.41 54.56c-2.67 2.67-8.46 1.21-12.93-3.27s-5.93-10.26-3.26-12.93 8.46-1.2 12.92 3.26 5.94 10.28 3.27 12.94z" opacity=".22"/><path d="M122.2 54.25c-2.58 2.58-8.17 1.17-12.49-3.15s-5.73-9.91-3.15-12.49 8.17-1.16 12.48 3.15 5.7 9.92 3.16 12.49z" opacity=".23"/><path d="M121.92 53.94c-2.49 2.49-7.88 1.13-12.05-3s-5.53-9.56-3-12 7.88-1.12 12 3 5.54 9.53 3.05 12z" opacity=".24"/><path d="M121.68 53.64c-2.39 2.4-7.59 1.09-11.61-2.93s-5.32-9.21-2.93-11.6 7.59-1.08 11.6 2.93 5.33 9.2 2.94 11.6z" opacity=".26"/><path d="M121.44 53.33c-2.3 2.31-7.3 1-11.17-2.82s-5.12-8.86-2.82-11.16 7.3-1 11.16 2.82 5.13 8.86 2.83 11.16z" opacity=".27"/><ellipse cx="246.28" cy="115.83" rx="5.67" ry="9.5" transform="translate(-141.57 138.55) rotate(-45)" opacity=".28"/><ellipse cx="246.31" cy="115.8" rx="5.43" ry="9.11" transform="translate(-141.54 138.56) rotate(-45)" opacity=".29"/><ellipse cx="246.34" cy="115.76" rx="5.2" ry="8.71" transform="translate(-141.51 138.58) rotate(-45)" opacity=".3"/><ellipse cx="246.38" cy="115.73" rx="4.97" ry="8.32" transform="translate(-141.47 138.59) rotate(-45)" opacity=".31"/><ellipse cx="246.41" cy="115.7" rx="4.73" ry="7.93" transform="translate(-141.44 138.6) rotate(-45)" opacity=".32"/><ellipse cx="246.44" cy="115.66" rx="4.5" ry="7.54" transform="translate(-141.41 138.61) rotate(-45)" opacity=".33"/><ellipse cx="246.48" cy="115.63" rx="4.27" ry="7.15" transform="translate(-141.38 138.62) rotate(-45)" opacity=".34"/><ellipse cx="246.51" cy="115.6" rx="4.03" ry="6.76" transform="translate(-141.34 138.64) rotate(-45)" opacity=".35"/><ellipse cx="246.55" cy="115.57" rx="3.8" ry="6.37" transform="translate(-141.31 138.65) rotate(-45)" opacity=".36"/><ellipse cx="246.58" cy="115.53" rx="3.57" ry="5.98" transform="translate(-141.28 138.66) rotate(-45)" opacity=".37"/><ellipse cx="246.61" cy="115.5" rx="3.34" ry="5.59" transform="translate(-141.25 138.67) rotate(-45)" opacity=".38"/><ellipse cx="246.65" cy="115.47" rx="3.1" ry="5.2" transform="translate(-141.21 138.68) rotate(-45)" opacity=".39"/><path d="M118.28 49.3c-1.12 1.12-3.55.51-5.43-1.37s-2.49-4.31-1.37-5.43 3.55-.51 5.42 1.37 2.5 4.31 1.38 5.43z" opacity=".4"/><path d="M118.04 48.99c-1 1-3.26.47-5-1.26s-2.29-4-1.26-5 3.26-.46 5 1.26 2.28 3.97 1.26 5z" opacity=".41"/><path d="M117.79 48.68c-.94.94-3 .42-4.55-1.15s-2.09-3.61-1.15-4.55 3-.42 4.54 1.15 2.1 3.62 1.16 4.55z" opacity=".43"/><path d="M117.55 48.37c-.85.85-2.69.38-4.11-1s-1.89-3.26-1-4.11 2.68-.38 4.1 1 1.85 3.27 1.01 4.11z" opacity=".44"/><path d="M117.31 48.06c-.76.76-2.4.34-3.66-.92s-1.68-2.91-.92-3.67 2.39-.34 3.66.93 1.67 2.91.92 3.66z" opacity=".45"/><path d="M117.06 47.75c-.66.67-2.11.3-3.22-.81s-1.48-2.56-.81-3.22 2.11-.3 3.22.81 1.48 2.56.81 3.22z" opacity=".46"/><path d="M116.82 47.47c-.57.58-1.82.26-2.78-.7s-1.28-2.21-.7-2.78 1.82-.26 2.78.7 1.27 2.18.7 2.78z" opacity=".47"/><path d="M116.58 47.14c-.48.49-1.53.22-2.34-.59s-1.08-1.86-.59-2.34 1.53-.22 2.34.59 1.07 1.85.59 2.34z" opacity=".48"/><path d="M116.34 46.83c-.39.4-1.24.18-1.9-.48s-.88-1.51-.48-1.9 1.24-.18 1.9.48.86 1.54.48 1.9z" opacity=".49"/><path d="M247.89 116a1.47 1.47 0 1 1-.37-1.46 1.13 1.13 0 0 1 .37 1.46z" transform="translate(-131.8 -69.53)" opacity=".5"/></g><circle cx="53.86" cy="105.78" r="53.86" fill="url(#c)"/><g fill="#fff"><path d="M96.35 99.95c-5.64 5.64-17.89 2.55-27.36-6.91s-12.54-21.7-6.9-27.35 17.89-2.55 27.34 6.91 12.56 21.71 6.92 27.35z" opacity=".01"/><path d="M96.11 99.64c-5.55 5.55-17.61 2.51-26.92-6.8s-12.34-21.37-6.79-26.91 17.6-2.51 26.9 6.8 12.36 21.36 6.81 26.91z" opacity=".02"/><path d="M95.87 99.33c-5.46 5.46-17.32 2.47-26.48-6.69s-12.14-21-6.68-26.47 17.31-2.47 26.46 6.68 12.16 21.02 6.7 26.48zM95.63 99.02c-5.37 5.37-17 2.43-26-6.58s-11.94-20.65-6.57-26 17-2.42 26 6.57 11.93 20.64 6.57 26.01z" opacity=".03"/><path d="M95.38 98.71c-5.28 5.28-16.74 2.39-25.6-6.47s-11.74-20.3-6.45-25.59 16.74-2.38 25.58 6.46 11.75 20.36 6.47 25.6z" opacity=".04"/><path d="M95.14 98.4c-5.19 5.19-16.45 2.35-25.16-6.36s-11.53-20-6.34-25.15 16.45-2.34 25.14 6.35 11.55 19.98 6.36 25.16z" opacity=".05"/><path d="M94.9 98.09c-5.1 5.1-16.17 2.31-24.72-6.24s-11.33-19.6-6.23-24.71 16.16-2.3 24.7 6.24 11.34 19.62 6.25 24.71z" opacity=".06"/><path d="M94.66 97.78c-5 5-15.88 2.27-24.28-6.13s-11.13-19.26-6.12-24.27 15.87-2.26 24.26 6.13 11.14 19.27 6.14 24.27z" opacity=".07"/><path d="M94.41 97.47c-4.92 4.92-15.59 2.22-23.84-6s-10.93-18.91-6-23.83 15.59-2.22 23.82 6 10.94 18.92 6.02 23.83zM94.2 97.17c-4.83 4.83-15.3 2.18-23.4-5.91s-10.73-18.56-5.9-23.39 15.3-2.18 23.38 5.91 10.72 18.56 5.92 23.39z" opacity=".08"/><path d="M93.93 96.86c-4.73 4.74-15 2.14-23-5.8s-10.53-18.21-5.79-22.95 15-2.14 22.94 5.8 10.58 18.22 5.85 22.95z" opacity=".09"/><path d="M93.69 96.55c-4.64 4.65-14.73 2.1-22.52-5.69s-10.32-17.86-5.68-22.51 14.72-2.1 22.5 5.69 10.34 17.87 5.7 22.51z" opacity=".1"/><path d="M93.44 96.24c-4.55 4.56-14.44 2.06-22.08-5.58s-10.16-17.51-5.56-22.07 14.43-2.05 22.06 5.57 10.14 17.53 5.58 22.08z" opacity=".11"/><path d="M93.2 95.93c-4.46 4.46-14.15 2-21.64-5.47s-9.92-17.16-5.46-21.63 14.15-2 21.62 5.46 9.94 17.18 5.48 21.64z" opacity=".12"/><path d="M92.96 95.62c-4.37 4.37-13.86 2-21.2-5.35s-9.72-16.81-5.34-21.19 13.86-2 21.18 5.35 9.73 16.82 5.36 21.19z" opacity=".13"/><path d="M92.72 95.31c-4.28 4.28-13.57 1.94-20.76-5.24s-9.52-16.46-5.23-20.75 13.57-1.93 20.74 5.24 9.53 16.48 5.25 20.75zM92.47 95c-4.19 4.19-13.29 1.9-20.32-5.13s-9.31-16.11-5.12-20.31 13.28-1.89 20.3 5.13 9.33 16.13 5.14 20.31z" opacity=".14"/><path d="M92.2 94.69c-4.1 4.1-13 1.86-19.88-5s-9.11-15.76-5-19.87 13-1.85 19.86 5 9.15 15.78 5.02 19.87z" opacity=".15"/><path d="M91.99 94.39c-4 4-12.71 1.81-19.44-4.91s-8.91-15.42-4.9-19.43 12.71-1.81 19.42 4.91 8.93 15.42 4.92 19.43z" opacity=".16"/><path d="M91.75 94.08c-3.92 3.92-12.42 1.77-19-4.8s-8.71-15.07-4.79-19 12.42-1.77 19 4.8 8.7 15.08 4.79 19z" opacity=".17"/><path d="M91.51 93.77c-3.83 3.83-12.14 1.73-18.55-4.69s-8.51-14.72-4.68-18.55 12.13-1.73 18.54 4.69 8.51 14.73 4.69 18.55z" opacity=".18"/><path d="M91.26 93.47c-3.74 3.74-11.85 1.69-18.11-4.58s-8.31-14.37-4.57-18.11 11.84-1.69 18.1 4.57 8.32 14.38 4.58 18.12zM91.02 93.15c-3.65 3.65-11.56 1.65-17.67-4.46s-8.1-14-4.46-17.67 11.56-1.64 17.66 4.46 8.11 13.99 4.47 17.67z" opacity=".19"/><path d="M90.78 92.84c-3.58 3.56-11.27 1.63-17.24-4.37s-7.9-13.67-4.35-17.23 11.27-1.6 17.22 4.35 7.92 13.7 4.37 17.25z" opacity=".2"/><path d="M90.54 92.53c-3.46 3.47-11 1.57-16.79-4.24s-7.7-13.32-4.23-16.79 11-1.56 16.78 4.24 7.7 13.33 4.24 16.79z" opacity=".21"/><path d="M90.29 92.22c-3.37 3.38-10.7 1.53-16.35-4.13s-7.5-13-4.12-16.35 10.69-1.52 16.34 4.13 7.5 12.99 4.13 16.35z" opacity=".22"/><path d="M90.05 91.91c-3.28 3.29-10.41 1.49-15.91-4s-7.3-12.62-4-15.91 10.4-1.48 15.9 4 7.29 12.64 4.01 15.91z" opacity=".23"/><path d="M89.81 91.61c-3.19 3.19-10.12 1.45-15.47-3.91s-7.1-12.27-3.9-15.47 10.12-1.44 15.46 3.91 7.1 12.28 3.91 15.47z" opacity=".24"/><path d="M89.57 91.3c-3.1 3.1-9.83 1.4-15-3.8s-6.89-11.92-3.79-15 9.83-1.4 15 3.8 6.88 11.9 3.79 15zM89.32 90.99c-3 3-9.54 1.36-14.59-3.69s-6.69-11.57-3.68-14.59 9.54-1.36 14.58 3.69 6.7 11.58 3.69 14.59z" opacity=".25"/><path d="M89.08 90.68c-2.92 2.92-9.26 1.32-14.15-3.57s-6.49-11.23-3.57-14.15 9.25-1.32 14.14 3.57 6.5 11.24 3.58 14.15z" opacity=".26"/><path d="M88.84 90.37c-2.83 2.83-9 1.28-13.71-3.46s-6.29-10.88-3.46-13.71 9-1.27 13.7 3.46 6.29 10.89 3.47 13.71z" opacity=".27"/><path d="M88.6 90.06c-2.74 2.74-8.68 1.24-13.27-3.35s-6.13-10.53-3.35-13.24 8.68-1.23 13.26 3.35 6.09 10.51 3.36 13.24z" opacity=".28"/><path d="M88.35 89.75c-2.65 2.65-8.39 1.2-12.83-3.24s-5.88-10.18-3.24-12.83 8.39-1.19 12.82 3.24 5.9 10.19 3.25 12.83z" opacity=".29"/><path d="M88.11 89.47c-2.56 2.56-8.1 1.16-12.39-3.13s-5.68-9.83-3.12-12.39 8.1-1.15 12.38 3.13 5.69 9.81 3.13 12.39z" opacity=".3"/><path d="M87.87 89.13c-2.47 2.47-7.82 1.12-12-3s-5.48-9.48-3-11.95 7.81-1.11 11.94 3 5.52 9.5 3.06 11.95zM87.63 88.83c-2.37 2.38-7.53 1.08-11.51-2.91s-5.28-9.13-2.9-11.51 7.53-1.07 11.5 2.91 5.28 9.15 2.91 11.51z" opacity=".31"/><path d="M87.39 88.47c-2.28 2.29-7.24 1-11.07-2.79s-5.08-8.78-2.79-11.07 7.24-1 11.06 2.8 5.08 8.83 2.8 11.06z" opacity=".32"/><path d="M87.14 88.21c-2.19 2.2-7 1-10.63-2.68s-4.88-8.43-2.68-10.63 7-1 10.62 2.69 4.88 8.43 2.69 10.62z" opacity=".33"/><path d="M86.9 87.9c-2.1 2.11-6.67 1-10.19-2.57s-4.67-8.08-2.57-10.19 6.66-.95 10.18 2.57 4.68 8.09 2.58 10.19z" opacity=".34"/><path d="M86.66 87.59c-2 2-6.38.91-9.75-2.46s-4.47-7.73-2.46-9.75 6.38-.91 9.74 2.46 4.48 7.75 2.47 9.75z" opacity=".35"/><path d="M86.42 87.28c-1.92 1.92-6.09.87-9.31-2.35s-4.27-7.38-2.35-9.31 6.09-.86 9.3 2.35 4.27 7.4 2.36 9.31zM86.2 86.97c-1.83 1.83-5.8.83-8.87-2.24s-4.07-7-2.24-8.87 5.8-.82 8.86 2.24 4.05 7.05 2.25 8.87z" opacity=".36"/><path d="M85.93 86.66c-1.74 1.74-5.51.79-8.43-2.13s-3.87-6.69-2.13-8.43 5.51-.78 8.42 2.13 3.88 6.7 2.14 8.43z" opacity=".37"/><path d="M85.69 86.35c-1.65 1.65-5.23.75-8-2s-3.66-6.34-2-8 5.22-.74 8 2 3.64 6.36 2 8z" opacity=".38"/><path d="M85.45 86.05c-1.56 1.56-4.94.71-7.55-1.9s-3.46-6-1.9-7.55 4.94-.7 7.54 1.91 3.46 5.96 1.91 7.54z" opacity=".39"/><path d="M85.2 85.74c-1.47 1.47-4.65.67-7.11-1.79s-3.26-5.64-1.79-7.11 4.65-.66 7.1 1.8 3.27 5.64 1.8 7.1z" opacity=".4"/><path d="M84.96 85.47c-1.38 1.38-4.36.63-6.67-1.68s-3.06-5.29-1.68-6.67 4.36-.62 6.66 1.69 3.06 5.25 1.69 6.66z" opacity=".41"/><path d="M84.72 85.12c-1.29 1.29-4.07.59-6.23-1.57s-2.86-4.94-1.57-6.23 4.07-.58 6.22 1.57 2.86 4.95 1.58 6.23zM84.48 84.81c-1.2 1.2-3.79.54-5.79-1.46s-2.66-4.59-1.46-5.79 3.79-.54 5.78 1.46 2.66 4.6 1.47 5.79z" opacity=".42"/><path d="M84.2 84.47c-1.1 1.11-3.5.5-5.35-1.35s-2.45-4.24-1.35-5.35 3.5-.49 5.34 1.35 2.49 4.28 1.36 5.35z" opacity=".43"/><path d="M83.99 84.19c-1 1-3.21.46-4.91-1.24s-2.25-3.89-1.24-4.91 3.21-.45 4.9 1.24 2.26 3.91 1.25 4.91z" opacity=".44"/><path d="M83.75 83.88c-.92.93-2.92.42-4.47-1.13s-2.05-3.54-1.13-4.47 2.92-.41 4.46 1.13 2.06 3.56 1.14 4.47z" opacity=".45"/><path d="M83.51 83.58c-.83.84-2.63.38-4-1s-1.85-3.2-1-4 2.63-.37 4 1 1.82 3.17 1 4z" opacity=".46"/><path d="M83.27 83.27c-.74.74-2.35.34-3.59-.9s-1.65-2.85-.9-3.59 2.35-.33 3.58.91 1.64 2.84.91 3.58zM83.02 82.96c-.65.65-2.06.3-3.15-.79s-1.44-2.5-.79-3.15 2.06-.29 3.14.8 1.45 2.49.8 3.14z" opacity=".47"/><path d="M82.78 82.65c-.56.56-1.77.26-2.71-.68s-1.24-2.15-.68-2.71 1.77-.25 2.7.69 1.24 2.15.69 2.7z" opacity=".48"/><path d="M82.54 82.34c-.47.47-1.48.22-2.27-.57s-1-1.8-.57-2.27 1.48-.21 2.26.57 1.04 1.81.58 2.27z" opacity=".49"/><path d="M214.1 151.56c-.38.38-1.2.18-1.83-.46a1.1 1.1 0 1 1 1.36-1.37c.63.64.84 1.46.47 1.83z" transform="translate(-131.8 -69.53)" opacity=".5"/></g></svg>