<svg id="wordpress" xmlns="http://www.w3.org/2000/svg" viewBox="0 0 158.78 158.78">
  <title>wordpress</title>
  <g>
    <path d="M132.51,148.61a68.11,68.11,0,0,0,38.38,61.29l-32.49-89A67.84,67.84,0,0,0,132.51,148.61Z" transform="translate(-121.22 -69.22)" fill="#4d4744"/>
    <path d="M246.58,145.17c0-8.42-3-14.25-5.61-18.78-3.45-5.61-6.69-10.36-6.69-16,0-6.26,4.75-12.09,11.44-12.09,0.3,0,.59,0,0.88.06A68.09,68.09,0,0,0,143.71,111.2c1.6,0.05,3.11.08,4.38,0.08,7.12,0,18.15-.87,18.15-0.87,3.67-.21,4.1,5.18.44,5.61,0,0-3.69.43-7.79,0.65l24.8,73.77,14.91-44.7L188,116.68c-3.67-.22-7.14-0.65-7.14-0.65-3.67-.22-3.24-5.83.43-5.61,0,0,11.24.87,17.94,0.87,7.12,0,18.15-.87,18.15-0.87,3.67-.21,4.1,5.18.43,5.61,0,0-3.69.43-7.79,0.65l24.61,73.21,6.79-22.7C244.34,157.76,246.58,151,246.58,145.17Z" transform="translate(-121.22 -69.22)" fill="#4d4744"/>
    <path d="M201.8,154.56l-20.44,59.38a68.13,68.13,0,0,0,41.86-1.09,6.36,6.36,0,0,1-.49-0.94Z" transform="translate(-121.22 -69.22)" fill="#4d4744"/>
    <path d="M260.37,115.94a52.26,52.26,0,0,1,.46,7c0,6.91-1.29,14.68-5.18,24.39l-20.8,60.14A68.12,68.12,0,0,0,260.37,115.94Z" transform="translate(-121.22 -69.22)" fill="#4d4744"/>
    <path d="M200.61,69.22A79.39,79.39,0,1,0,280,148.61,79.48,79.48,0,0,0,200.61,69.22Zm0,155.14a75.75,75.75,0,1,1,75.75-75.75A75.84,75.84,0,0,1,200.61,224.36Z" transform="translate(-121.22 -69.22)" fill="#4d4744"/>
  </g>
</svg>
