<svg id="Default" xmlns="http://www.w3.org/2000/svg" viewBox="0 0 222 154.29"><title>Guru-UK2</title><ellipse cx="185.56" cy="152.92" rx="4.02" ry="1.37" transform="translate(-0.2 0.24) rotate(-0.07)" fill="#5c5c5c"/><path d="M218.07,109.14l-33,0a1.51,1.51,0,0,0-1.5,1.51h0v6.44a42.42,42.42,0,0,1,4.9-.28,41.9,41.9,0,0,1,31.18,13.83l0-20.06a1.51,1.51,0,0,0-1.51-1.48" fill="#5f5f5f"/><path d="M188.43,116.85a42.42,42.42,0,0,0-4.9.28l0,14.27a.75.75,0,0,1,.4.3c.26.44,0,1.05-.39,1.71v1.25a1.51,1.51,0,0,0,1.51,1.5h0l22.52,0a11.73,11.73,0,0,1,.91-2.52c1.82-.82,2.47-2.16,4.56-2.19a10.41,10.41,0,0,1-.63,4.7h5.69a1.51,1.51,0,0,0,1.5-1.51v-4a41.9,41.9,0,0,0-31.18-13.83" fill="#545a5e"/><path d="M213,131.44c-2.08,0-2.73,1.37-4.56,2.19a11.73,11.73,0,0,0-.91,2.52h4.86a10.41,10.41,0,0,0,.63-4.7m-29.49,0v2c.42-.65.65-1.25.39-1.71a.75.75,0,0,0-.4-.3" fill="#485548"/><path d="M185.5,106.56h0a2.42,2.42,0,0,1,2.42,2.42l.06,43a1.63,1.63,0,0,1-1.62,1.63h-1.61a1.63,1.63,0,0,1-1.63-1.62l-.06-43a2.42,2.42,0,0,1,2.42-2.42Z" fill="#b4b4b4"/><path d="M185.82,108.17h0a.91.91,0,0,1,.89.91l0,25.55a.91.91,0,1,1-1.8,0l0-25.55A.91.91,0,0,1,185.82,108.17Z" fill="#555454"/><rect x="185.52" y="108.34" width="36" height="27.02" rx="1.51" ry="1.51" transform="translate(-0.16 0.26) rotate(-0.07)" fill="#263570"/><path d="M221.5,109.83a1.51,1.51,0,0,0-1.51-1.5h-4l-9.52,7.43v-7.41h-5.95v7.41l-9.7-7.4H187a1.51,1.51,0,0,0-1.5,1.51h0v2l9.19,7h-9.2v5.95h9.18l-9.17,7.07v2a1.51,1.51,0,0,0,1.51,1.5h4l9.62-7.43v7.41h5.95v-7.43l9.64,7.4h4a1.51,1.51,0,0,0,1.5-1.51v-2l-9.19-7h9v-5.95h-9.18l9.17-7.09Z" fill="#e7e6e6"/><polygon points="221.52 120.31 205.03 120.33 205.01 108.34 202 108.34 202.01 120.34 185.52 120.36 185.53 123.37 202.02 123.35 202.03 135.34 205.04 135.34 205.03 123.34 221.52 123.32 221.52 120.31" fill="#d11226"/><path d="M220.71,108.5,207.4,118.84h2.46l11.64-9A1.51,1.51,0,0,0,220.71,108.5Zm-10.84,16.27h-2.46l13.33,10.33a1.51,1.51,0,0,0,.75-1.27Zm-12.74,0-11.62,9a1.51,1.51,0,0,0,.75,1.27l13.35-10.28h-2.48Zm0-5.95h2.5l-13.37-10.29a1.51,1.51,0,0,0-.75,1.27Z" fill="#d11226"/><g opacity="0.96"><path d="M27.78,59a49.46,49.46,0,0,1-12.85-1.41,18.39,18.39,0,0,1-8.25-4.48,16.94,16.94,0,0,1-4.39-7.88A45.83,45.83,0,0,1,1,33.58V25.37A41.8,41.8,0,0,1,2.37,14,17.4,17.4,0,0,1,7,6.05a20.23,20.23,0,0,1,8.71-4.68A50.74,50.74,0,0,1,29.27-.17h9.41q2.2,0,4.44,0L48,0,45.85,11.44l-6.67-.12q-2.78,0-4.77,0h-6a31.07,31.07,0,0,0-6.63.58A8,8,0,0,0,17.75,14a8.29,8.29,0,0,0-2,4.31,39.39,39.39,0,0,0-.54,7.25v7.79a37.75,37.75,0,0,0,.58,7.42,9.22,9.22,0,0,0,2,4.35,6.79,6.79,0,0,0,3.81,2.07,30.64,30.64,0,0,0,6.05.5h8.46V36.89H26.78l2.32-11.28H49.83V50.24A15.3,15.3,0,0,1,49.42,54a5.85,5.85,0,0,1-1.53,2.74,7.11,7.11,0,0,1-3,1.7A17.14,17.14,0,0,1,40,59Z" fill="#1d9fb5"/><path d="M57.54,0H71.22V35.65a38.72,38.72,0,0,0,.46,6.51,8.9,8.9,0,0,0,1.7,4.15,6.58,6.58,0,0,0,3.36,2.16,20.06,20.06,0,0,0,5.51.62,20.17,20.17,0,0,0,5.47-.62,6.58,6.58,0,0,0,3.4-2.16,9.23,9.23,0,0,0,1.74-4.15,35.63,35.63,0,0,0,.5-6.51V0H107V35.57a46.86,46.86,0,0,1-1.16,11.15,17.19,17.19,0,0,1-4,7.75A17.21,17.21,0,0,1,94.19,59a40.32,40.32,0,0,1-11.94,1.49A40.32,40.32,0,0,1,70.31,59a17.21,17.21,0,0,1-7.59-4.56,17.17,17.17,0,0,1-4-7.75,46.8,46.8,0,0,1-1.16-11.15Z" fill="#1d9fb5"/><path d="M162.34,20.31q0,6.47-2.69,10.32a15.56,15.56,0,0,1-7.84,5.68L165.16,59h-15L138.88,38.3h-9.37V59H116.16V0H140a45.14,45.14,0,0,1,10.2,1,17.26,17.26,0,0,1,6.92,3.15,12.71,12.71,0,0,1,4,5.6,23.9,23.9,0,0,1,1.28,8.33ZM148.91,18.9a12.69,12.69,0,0,0-.5-3.85,5,5,0,0,0-1.58-2.4,6.33,6.33,0,0,0-2.86-1.2,24.92,24.92,0,0,0-4.44-.33h-10V27.53h10a24.8,24.8,0,0,0,4.44-.33A6,6,0,0,0,146.84,26a5.23,5.23,0,0,0,1.58-2.45,13,13,0,0,0,.5-3.94Z" fill="#1d9fb5"/><path d="M170.22,0H183.9V35.65a38.74,38.74,0,0,0,.46,6.51,8.9,8.9,0,0,0,1.7,4.15,6.57,6.57,0,0,0,3.36,2.16,24.58,24.58,0,0,0,11,0,6.58,6.58,0,0,0,3.4-2.16,9.23,9.23,0,0,0,1.74-4.15,35.58,35.58,0,0,0,.5-6.51V0h13.6V35.57a46.86,46.86,0,0,1-1.16,11.15,17.19,17.19,0,0,1-4,7.75A17.21,17.21,0,0,1,206.86,59a40.32,40.32,0,0,1-11.94,1.49A40.31,40.31,0,0,1,183,59a17.21,17.21,0,0,1-7.59-4.56,17.17,17.17,0,0,1-4-7.75,46.81,46.81,0,0,1-1.16-11.15Z" fill="#1d9fb5"/></g><path d="M6.05,88.57A13.58,13.58,0,0,0,6.24,91a3,3,0,0,0,.69,1.5,2.57,2.57,0,0,0,1.37.74,10.29,10.29,0,0,0,2.21.2h3.42l1.82,0L15,97.3q-1.74.06-2.77.06h-2A16.46,16.46,0,0,1,6,96.9a6.2,6.2,0,0,1-2.79-1.5,5.86,5.86,0,0,1-1.53-2.73,16.18,16.18,0,0,1-.46-4.19V86.16A15,15,0,0,1,1.76,82a6.17,6.17,0,0,1,1.55-2.73A6.13,6.13,0,0,1,6.1,77.77a16.23,16.23,0,0,1,4.16-.46h3.49l1.83,0-.76,3.89-2.17,0h-2.2a10.29,10.29,0,0,0-2.23.2,2.54,2.54,0,0,0-1.34.73,2.88,2.88,0,0,0-.66,1.48,14.86,14.86,0,0,0-.17,2.49Z" fill="#222d3a"/><path d="M22.74,77.37v16h9.38l-.76,3.89H18.12V77.37Z" fill="#222d3a"/><path d="M42.12,97.81a15.31,15.31,0,0,1-4.38-.53,5.85,5.85,0,0,1-4.28-4.45A16.65,16.65,0,0,1,33,88.76V85.85a16.58,16.58,0,0,1,.42-4,6.23,6.23,0,0,1,1.47-2.81,6.44,6.44,0,0,1,2.8-1.68,14.7,14.7,0,0,1,4.41-.56,15.17,15.17,0,0,1,4.37.53A6.3,6.3,0,0,1,49.27,79a6.23,6.23,0,0,1,1.48,2.8,16.49,16.49,0,0,1,.43,4v2.91a16.71,16.71,0,0,1-.42,4,5.91,5.91,0,0,1-4.24,4.49A14.71,14.71,0,0,1,42.12,97.81Zm0-3.86a9.56,9.56,0,0,0,2.14-.2,2.34,2.34,0,0,0,1.3-.77,3.4,3.4,0,0,0,.66-1.6,15.85,15.85,0,0,0,.18-2.67V85.93a15.92,15.92,0,0,0-.18-2.66,3.32,3.32,0,0,0-.66-1.6,2.45,2.45,0,0,0-1.3-.77,8.94,8.94,0,0,0-2.14-.21,9.77,9.77,0,0,0-2.16.2,2.34,2.34,0,0,0-1.32.77,3.39,3.39,0,0,0-.66,1.6,15.86,15.86,0,0,0-.18,2.67v2.77A15.64,15.64,0,0,0,38,91.35a3.4,3.4,0,0,0,.66,1.6,2.41,2.41,0,0,0,1.32.78A9.09,9.09,0,0,0,42.12,93.94Z" fill="#222d3a"/><path d="M53.85,77.37h4.62v12a13.12,13.12,0,0,0,.15,2.2A3,3,0,0,0,59.2,93a2.22,2.22,0,0,0,1.13.73,8.3,8.3,0,0,0,3.71,0A2.22,2.22,0,0,0,65.19,93a3.12,3.12,0,0,0,.59-1.4,12,12,0,0,0,.17-2.2v-12h4.59v12a15.85,15.85,0,0,1-.39,3.77,5.46,5.46,0,0,1-3.92,4.16,13.62,13.62,0,0,1-4,.5,13.62,13.62,0,0,1-4-.5,5.46,5.46,0,0,1-3.92-4.16,15.79,15.79,0,0,1-.39-3.77Z" fill="#222d3a"/><path d="M73.65,77.37h8.23a14.29,14.29,0,0,1,4.28.55,5.75,5.75,0,0,1,4.13,4.37,16.09,16.09,0,0,1,.41,3.85v2.38a15.82,15.82,0,0,1-.41,3.79,6.3,6.3,0,0,1-1.41,2.76,6.14,6.14,0,0,1-2.69,1.68A13.58,13.58,0,0,1,82,97.3H73.65Zm4.54,16.07h3.33a8.66,8.66,0,0,0,2.07-.21,2.73,2.73,0,0,0,1.36-.76A3.22,3.22,0,0,0,85.69,91a11.34,11.34,0,0,0,.22-2.48V86.16a11.14,11.14,0,0,0-.22-2.46,3.21,3.21,0,0,0-.74-1.5,2.73,2.73,0,0,0-1.36-.76,8.68,8.68,0,0,0-2.07-.21H78.18Z" fill="#222d3a"/><path d="M117,77.37V97.3H112.4V89.18h-7.81V97.3H100V77.37h4.62v7.76h7.81V77.37Z" fill="#222d3a"/><path d="M128.92,97.81a15.32,15.32,0,0,1-4.38-.53,6.29,6.29,0,0,1-2.8-1.64,6.21,6.21,0,0,1-1.48-2.81,16.6,16.6,0,0,1-.43-4.06V85.85a16.63,16.63,0,0,1,.42-4,6.22,6.22,0,0,1,1.47-2.81,6.44,6.44,0,0,1,2.8-1.68,14.7,14.7,0,0,1,4.41-.56,15.16,15.16,0,0,1,4.37.53A6.29,6.29,0,0,1,136.07,79a6.23,6.23,0,0,1,1.48,2.8,16.49,16.49,0,0,1,.43,4v2.91a16.71,16.71,0,0,1-.42,4,5.91,5.91,0,0,1-4.24,4.49A14.71,14.71,0,0,1,128.92,97.81Zm0-3.86a9.55,9.55,0,0,0,2.14-.2,2.33,2.33,0,0,0,1.3-.77,3.39,3.39,0,0,0,.66-1.6,15.85,15.85,0,0,0,.18-2.67V85.93a15.92,15.92,0,0,0-.18-2.66,3.31,3.31,0,0,0-.66-1.6,2.44,2.44,0,0,0-1.3-.77,8.94,8.94,0,0,0-2.14-.21,9.77,9.77,0,0,0-2.16.2,2.34,2.34,0,0,0-1.32.77,3.39,3.39,0,0,0-.66,1.6,15.75,15.75,0,0,0-.18,2.67v2.77a15.52,15.52,0,0,0,.18,2.65,3.4,3.4,0,0,0,.66,1.6,2.41,2.41,0,0,0,1.32.78A9.09,9.09,0,0,0,128.92,93.94Z" fill="#222d3a"/><path d="M149.95,85.54a10,10,0,0,1,2.44.7,4.49,4.49,0,0,1,1.57,1.13,4.09,4.09,0,0,1,.84,1.62,8.4,8.4,0,0,1,.25,2.17v.42a7.62,7.62,0,0,1-.39,2.59A3.92,3.92,0,0,1,153.33,96a6.09,6.09,0,0,1-2.44,1,17.47,17.47,0,0,1-3.72.34h-4.83l-2.45,0,.7-3.75q2.21.06,3.77.06h2.87a9.77,9.77,0,0,0,1.53-.1,2.53,2.53,0,0,0,1-.32,1.12,1.12,0,0,0,.48-.6,3.11,3.11,0,0,0,.13-1,4.93,4.93,0,0,0-.07-.9,1.13,1.13,0,0,0-.31-.6,1.8,1.8,0,0,0-.64-.39,5.81,5.81,0,0,0-1.08-.27l-2.94-.5a12.52,12.52,0,0,1-2.66-.71A4.48,4.48,0,0,1,141,87.14a3.62,3.62,0,0,1-.83-1.6,9.16,9.16,0,0,1-.22-2.16v-.45a6.69,6.69,0,0,1,.39-2.38,4.12,4.12,0,0,1,1.29-1.76,6.13,6.13,0,0,1,2.34-1.11,14,14,0,0,1,3.51-.38h4.83l2.2,0-.7,3.75q-2.18-.06-3.71-.06h-2.7a8.37,8.37,0,0,0-1.4.1,2.25,2.25,0,0,0-.87.31,1.12,1.12,0,0,0-.43.57,2.76,2.76,0,0,0-.13.9,4,4,0,0,0,.07.81,1.14,1.14,0,0,0,.28.56,1.63,1.63,0,0,0,.6.38,5.44,5.44,0,0,0,1,.27Z" fill="#222d3a"/><path d="M173.86,77.37l-.76,3.89h-6v16h-4.62v-16h-6.66l.73-3.89Z" fill="#222d3a"/><path d="M180.46,77.37V97.3h-4.62V77.37Z" fill="#222d3a"/><path d="M187.46,77.37,196.31,90V77.37h4.37V97.3h-3.81l-8.76-12.52V97.3h-4.4V77.37Z" fill="#222d3a"/><path d="M212.52,97.3a16.71,16.71,0,0,1-4.34-.48,6.21,6.21,0,0,1-2.79-1.51,5.72,5.72,0,0,1-1.48-2.66,15.44,15.44,0,0,1-.43-3.95V85.93a14.13,14.13,0,0,1,.46-3.84,5.89,5.89,0,0,1,1.57-2.69,6.83,6.83,0,0,1,2.94-1.58,17.13,17.13,0,0,1,4.58-.52h4.68l1.65,0-.73,3.86-2.25,0h-3.63a10.49,10.49,0,0,0-2.24.2,2.69,2.69,0,0,0-1.37.71,2.8,2.8,0,0,0-.69,1.46,13.25,13.25,0,0,0-.18,2.45v2.63a12.74,12.74,0,0,0,.2,2.51,3.11,3.11,0,0,0,.67,1.47,2.29,2.29,0,0,0,1.29.7,10.32,10.32,0,0,0,2,.17h2.86V89.83h-3.14L213,86h7v8.32a5.18,5.18,0,0,1-.14,1.27,2,2,0,0,1-.52.92,2.4,2.4,0,0,1-1,.57,5.79,5.79,0,0,1-1.65.2Z" fill="#222d3a"/><path d="M1.16,114.56H6.6a9.44,9.44,0,0,1,2.83.36,3.8,3.8,0,0,1,2.73,2.89,10.66,10.66,0,0,1,.27,2.54v1.57a10.48,10.48,0,0,1-.27,2.51,4.17,4.17,0,0,1-.93,1.82,4,4,0,0,1-1.78,1.11,8.94,8.94,0,0,1-2.79.37H1.16Zm3,10.62h2.2A5.79,5.79,0,0,0,7.73,125a1.81,1.81,0,0,0,.9-.5,2.11,2.11,0,0,0,.49-1,7.45,7.45,0,0,0,.15-1.64v-1.54a7.32,7.32,0,0,0-.15-1.63,2.1,2.1,0,0,0-.49-1,1.8,1.8,0,0,0-.9-.5,5.79,5.79,0,0,0-1.37-.14H4.16Z" fill="#1d9fb5"/><path d="M16.87,123.88a3.51,3.51,0,0,0,.1.78,1,1,0,0,0,.3.48,1.17,1.17,0,0,0,.56.25,5.06,5.06,0,0,0,.89.06h1.64l2,0-.43,2.29q-.93,0-1.72,0H18.44a7.53,7.53,0,0,1-2.18-.27,3.15,3.15,0,0,1-1.39-.81,3.05,3.05,0,0,1-.73-1.37,7.8,7.8,0,0,1-.21-1.93v-1a7.85,7.85,0,0,1,.23-2,3.26,3.26,0,0,1,.78-1.43,3.35,3.35,0,0,1,1.42-.86,7.08,7.08,0,0,1,2.17-.29,4.68,4.68,0,0,1,3.33,1,3.6,3.6,0,0,1,1,2.71v.39a5.46,5.46,0,0,1-.07,1,1.4,1.4,0,0,1-.27.63,1,1,0,0,1-.51.33,2.8,2.8,0,0,1-.78.09Zm1.59-4a3.15,3.15,0,0,0-.8.08.92.92,0,0,0-.48.3,1.24,1.24,0,0,0-.24.58,5.81,5.81,0,0,0-.06,1h3.2a5.81,5.81,0,0,0-.06-1,1.17,1.17,0,0,0-.25-.58,1,1,0,0,0-.49-.3A3.15,3.15,0,0,0,18.46,119.92Z" fill="#1d9fb5"/><path d="M26.93,120.85a.51.51,0,0,0,.19.43,1.86,1.86,0,0,0,.83.19l1.7.15a4.81,4.81,0,0,1,1.42.32,2.59,2.59,0,0,1,.92.61,2.09,2.09,0,0,1,.48.86,3.88,3.88,0,0,1,.14,1.06v.31a2.58,2.58,0,0,1-1,2.26,5.6,5.6,0,0,1-3.2.72H25.25l-1.2,0,.41-2.28,2,0h2a2.76,2.76,0,0,0,1-.13.53.53,0,0,0,.27-.54.58.58,0,0,0-.19-.47,1.57,1.57,0,0,0-.83-.19L27,124a3,3,0,0,1-2.18-.89,2.88,2.88,0,0,1-.65-1.91v-.35a3.11,3.11,0,0,1,.22-1.21,2.17,2.17,0,0,1,.71-.9,3.5,3.5,0,0,1,1.29-.56A8.35,8.35,0,0,1,28.3,118H31l1.42,0L32,120.33l-1.47,0H28.12a3.14,3.14,0,0,0-.92.09A.43.43,0,0,0,26.93,120.85Z" fill="#1d9fb5"/><path d="M37.28,115.39a1.45,1.45,0,0,1-.35,1.09,1.94,1.94,0,0,1-1.31.33,2,2,0,0,1-1.33-.33,1.45,1.45,0,0,1-.35-1.09,1.43,1.43,0,0,1,.35-1.06,1.94,1.94,0,0,1,1.33-.34,1.9,1.9,0,0,1,1.31.34A1.43,1.43,0,0,1,37.28,115.39Zm-3.14,2.66h2.94v9.68H34.13Z" fill="#1d9fb5"/><path d="M45.19,126.75a2.93,2.93,0,0,1-.91.41,5.46,5.46,0,0,1-1.41.15,6.41,6.41,0,0,1-1.91-.25,3,3,0,0,1-1.3-.79,3.26,3.26,0,0,1-.75-1.38,7.45,7.45,0,0,1-.24-2v-.67a7.11,7.11,0,0,1,.24-2,3.17,3.17,0,0,1,.79-1.39,3.37,3.37,0,0,1,1.46-.82,8.08,8.08,0,0,1,2.26-.27,8,8,0,0,1,2.29.28,3.37,3.37,0,0,1,1.44.82,3,3,0,0,1,.75,1.33,6.86,6.86,0,0,1,.21,1.79v5a6,6,0,0,1-.25,1.86,2.75,2.75,0,0,1-.81,1.26,3.55,3.55,0,0,1-1.48.72,9.23,9.23,0,0,1-2.23.23H41l-1.37,0,.44-2.39,1.14,0h2a6.16,6.16,0,0,0,1-.06,1.39,1.39,0,0,0,.63-.25,1,1,0,0,0,.33-.54,3.66,3.66,0,0,0,.09-.91Zm-1.76-1.83a3.81,3.81,0,0,0,.88-.08,1.07,1.07,0,0,0,.54-.29,1.12,1.12,0,0,0,.27-.56,4.45,4.45,0,0,0,.07-.89v-.78a8.7,8.7,0,0,0-.06-1.09,1.37,1.37,0,0,0-.24-.67,1,1,0,0,0-.54-.33,4.7,4.7,0,0,0-1.86,0,1,1,0,0,0-.54.33,1.32,1.32,0,0,0-.25.67,8.72,8.72,0,0,0-.05,1.09v.41a7.4,7.4,0,0,0,.06,1.09,1.43,1.43,0,0,0,.25.67,1,1,0,0,0,.54.33A3.76,3.76,0,0,0,43.44,124.92Z" fill="#1d9fb5"/><path d="M49.91,127.73V121.4a4.92,4.92,0,0,1,.26-1.71,2.54,2.54,0,0,1,.8-1.13,3.36,3.36,0,0,1,1.42-.62,11.87,11.87,0,0,1,4.18,0,3.37,3.37,0,0,1,1.42.62,2.56,2.56,0,0,1,.8,1.13A4.94,4.94,0,0,1,59,121.4v6.33H56.11v-6.11a3.44,3.44,0,0,0-.06-.67,1,1,0,0,0-.22-.46,1,1,0,0,0-.49-.27,4.5,4.5,0,0,0-1.72,0,1,1,0,0,0-.49.27,1,1,0,0,0-.22.46,3.53,3.53,0,0,0-.05.67v6.11Z" fill="#1d9fb5"/><path d="M63.6,123.88a3.51,3.51,0,0,0,.1.78,1,1,0,0,0,.3.48,1.17,1.17,0,0,0,.56.25,5.06,5.06,0,0,0,.89.06h1.64l2,0-.43,2.29q-.93,0-1.72,0H65.17A7.53,7.53,0,0,1,63,127.5a3.15,3.15,0,0,1-1.39-.81,3.05,3.05,0,0,1-.73-1.37,7.8,7.8,0,0,1-.21-1.93v-1a7.85,7.85,0,0,1,.23-2,3.26,3.26,0,0,1,.78-1.43,3.35,3.35,0,0,1,1.42-.86,7.08,7.08,0,0,1,2.17-.29,4.68,4.68,0,0,1,3.33,1,3.6,3.6,0,0,1,1,2.71v.39a5.46,5.46,0,0,1-.07,1,1.4,1.4,0,0,1-.27.63,1,1,0,0,1-.51.33,2.8,2.8,0,0,1-.78.09Zm1.59-4a3.15,3.15,0,0,0-.8.08.92.92,0,0,0-.48.3,1.24,1.24,0,0,0-.24.58,5.81,5.81,0,0,0-.06,1h3.2a5.81,5.81,0,0,0-.06-1,1.17,1.17,0,0,0-.25-.58A1,1,0,0,0,66,120,3.15,3.15,0,0,0,65.19,119.92Z" fill="#1d9fb5"/><path d="M75.42,127.73a9.27,9.27,0,0,1-2.27-.23,3.12,3.12,0,0,1-1.44-.77,2.93,2.93,0,0,1-.77-1.4,8.6,8.6,0,0,1-.22-2.12v-.85a7.93,7.93,0,0,1,.25-2.14,3.37,3.37,0,0,1,.77-1.42,3,3,0,0,1,1.32-.8,6.4,6.4,0,0,1,1.9-.25,5.68,5.68,0,0,1,1.32.15,2.69,2.69,0,0,1,1,.41V114H80.2v11.84a1.92,1.92,0,0,1-.47,1.49,2.49,2.49,0,0,1-1.64.42Zm1.83-2.31V122a4.58,4.58,0,0,0-.08-1,1.17,1.17,0,0,0-.3-.58,1.09,1.09,0,0,0-.55-.29,4.2,4.2,0,0,0-.86-.07,3.46,3.46,0,0,0-.88.09,1,1,0,0,0-.54.33,1.44,1.44,0,0,0-.27.67,6.79,6.79,0,0,0-.07,1.11v.89a7.27,7.27,0,0,0,.07,1.16A1.52,1.52,0,0,0,74,125a.94.94,0,0,0,.55.33,3.94,3.94,0,0,0,.89.08Z" fill="#1d9fb5"/><path d="M82.92,130.76H81l1.13-3.29a1.35,1.35,0,0,1-.59-1.24,1.5,1.5,0,0,1,.38-1.09,1.69,1.69,0,0,1,1.25-.39,1.71,1.71,0,0,1,1.24.4,1.47,1.47,0,0,1,.41,1.1,3.1,3.1,0,0,1-.23,1.13q-.23.59-.69,1.5Z" fill="#1d9fb5"/><path d="M99.86,123.4a7.85,7.85,0,0,1-.25,2.12,3.15,3.15,0,0,1-.82,1.43,3.45,3.45,0,0,1-1.49.81,9.8,9.8,0,0,1-4.39,0,3.31,3.31,0,0,1-1.45-.78,3.11,3.11,0,0,1-.82-1.41,7.52,7.52,0,0,1-.26-2.13V114h2.94v4.35a3.37,3.37,0,0,1,1-.42,5.47,5.47,0,0,1,1.43-.16,6.08,6.08,0,0,1,1.84.25,3,3,0,0,1,1.3.8,3.45,3.45,0,0,1,.77,1.43,7.93,7.93,0,0,1,.25,2.14Zm-4.74-3.33a4.09,4.09,0,0,0-.91.08,1,1,0,0,0-.56.31,1.3,1.3,0,0,0-.28.63,5.7,5.7,0,0,0-.07,1v1.37a7.42,7.42,0,0,0,.07,1.17,1.35,1.35,0,0,0,.28.68,1,1,0,0,0,.56.31,3.93,3.93,0,0,0,.89.08,4,4,0,0,0,.84-.07,1,1,0,0,0,.55-.3,1.34,1.34,0,0,0,.3-.68,6.67,6.67,0,0,0,.08-1.18v-1.13a6.71,6.71,0,0,0-.08-1.17,1.46,1.46,0,0,0-.29-.69,1,1,0,0,0-.54-.32A3.64,3.64,0,0,0,95.12,120.07Z" fill="#1d9fb5"/><path d="M106,128a10,10,0,0,1-2.06-.18,3.51,3.51,0,0,1-1.42-.61,2.45,2.45,0,0,1-.81-1.13,5.06,5.06,0,0,1-.26-1.74v-6.31h2.94v6.18a3.44,3.44,0,0,0,.06.67.88.88,0,0,0,.7.73,3.45,3.45,0,0,0,.85.08,3.36,3.36,0,0,0,.83-.08.88.88,0,0,0,.7-.73,3.44,3.44,0,0,0,.06-.67v-6.18h2.94v6.31a5.09,5.09,0,0,1-.26,1.74,2.46,2.46,0,0,1-.81,1.13,3.51,3.51,0,0,1-1.42.61A9.86,9.86,0,0,1,106,128Z" fill="#1d9fb5"/><path d="M115.47,115.39a1.45,1.45,0,0,1-.35,1.09,1.94,1.94,0,0,1-1.31.33,2,2,0,0,1-1.33-.33,1.45,1.45,0,0,1-.35-1.09,1.43,1.43,0,0,1,.35-1.06,1.94,1.94,0,0,1,1.33-.34,1.9,1.9,0,0,1,1.31.34A1.43,1.43,0,0,1,115.47,115.39Zm-3.15,2.66h2.94v9.68h-2.94Z" fill="#1d9fb5"/><path d="M117,114H120v13.75H117Z" fill="#1d9fb5"/><path d="M124.71,120.37v3.5a4.53,4.53,0,0,0,.06.79.92.92,0,0,0,.22.48.86.86,0,0,0,.45.24,3.63,3.63,0,0,0,.77.06H128l-.44,2.31h-1.68a9.7,9.7,0,0,1-2-.18,2.56,2.56,0,0,1-1.25-.61,2.27,2.27,0,0,1-.62-1.17,8.7,8.7,0,0,1-.17-1.87v-8.1l2.94-.43v2.66h3.37l-.44,2.31Z" fill="#1d9fb5"/><path d="M142.3,125.82a3.18,3.18,0,0,1-.11.91,1.25,1.25,0,0,1-.36.59,1.45,1.45,0,0,1-.66.31,4.43,4.43,0,0,1-1,.09h-3.27a6.51,6.51,0,0,1-1.73-.19,2.78,2.78,0,0,1-1.12-.57,2.13,2.13,0,0,1-.61-.92,3.71,3.71,0,0,1-.19-1.22v-.39a2.61,2.61,0,0,1,.92-2.23,4.72,4.72,0,0,1,2.83-.69,6.08,6.08,0,0,1,1.49.15,4.16,4.16,0,0,1,.93.35v-.2a3,3,0,0,0-.06-.67,1,1,0,0,0-.26-.47,1.19,1.19,0,0,0-.55-.29,4.08,4.08,0,0,0-1-.09H135l-.89,0,.42-2.28,1.35,0h1.89a5.82,5.82,0,0,1,3.41.8,3.12,3.12,0,0,1,1.1,2.69Zm-6.2-1.17a.94.94,0,0,0,.3.78,1.76,1.76,0,0,0,1.07.24h2V124.6a1.06,1.06,0,0,0-.31-.84,2.09,2.09,0,0,0-1.29-.27h-.26a2.08,2.08,0,0,0-1.17.23,1,1,0,0,0-.3.8Z" fill="#1d9fb5"/><path d="M144.07,127.73V121.4a4.92,4.92,0,0,1,.26-1.71,2.54,2.54,0,0,1,.8-1.13,3.36,3.36,0,0,1,1.42-.62,11.87,11.87,0,0,1,4.18,0,3.36,3.36,0,0,1,1.42.62,2.55,2.55,0,0,1,.8,1.13,4.92,4.92,0,0,1,.26,1.71v6.33h-2.94v-6.11a3.44,3.44,0,0,0-.06-.67,1,1,0,0,0-.22-.46,1,1,0,0,0-.49-.27,4.5,4.5,0,0,0-1.72,0,.88.88,0,0,0-.71.73,3.44,3.44,0,0,0-.06.67v6.11Z" fill="#1d9fb5"/><path d="M159.52,127.73a9.27,9.27,0,0,1-2.27-.23,3.12,3.12,0,0,1-1.44-.77,3,3,0,0,1-.77-1.4,8.65,8.65,0,0,1-.22-2.12v-.85a7.89,7.89,0,0,1,.25-2.14,3.35,3.35,0,0,1,.77-1.42,3,3,0,0,1,1.32-.8,6.41,6.41,0,0,1,1.9-.25,5.68,5.68,0,0,1,1.32.15,2.69,2.69,0,0,1,1,.41V114h2.94v11.84a1.92,1.92,0,0,1-.47,1.49,2.49,2.49,0,0,1-1.64.42Zm1.83-2.31V122a4.52,4.52,0,0,0-.08-1,1.17,1.17,0,0,0-.3-.58,1.1,1.1,0,0,0-.56-.29,4.2,4.2,0,0,0-.86-.07,3.45,3.45,0,0,0-.88.09,1,1,0,0,0-.54.33,1.44,1.44,0,0,0-.27.67,6.67,6.67,0,0,0-.07,1.11v.89a7.14,7.14,0,0,0,.07,1.16,1.52,1.52,0,0,0,.27.68.94.94,0,0,0,.55.33,3.94,3.94,0,0,0,.89.08Z" fill="#1d9fb5"/><path d="M3.51,140.85a.51.51,0,0,0,.19.43,1.86,1.86,0,0,0,.83.19l1.7.15a4.81,4.81,0,0,1,1.42.32,2.59,2.59,0,0,1,.92.61,2.09,2.09,0,0,1,.48.86,3.88,3.88,0,0,1,.14,1.06v.31a2.58,2.58,0,0,1-1,2.26,5.6,5.6,0,0,1-3.2.72H1.83l-1.2,0L1,145.45l2,0h2a2.76,2.76,0,0,0,1-.13.53.53,0,0,0,.27-.54.58.58,0,0,0-.19-.47,1.57,1.57,0,0,0-.83-.19L3.55,144a3,3,0,0,1-2.18-.89,2.88,2.88,0,0,1-.65-1.91v-.35a3.11,3.11,0,0,1,.22-1.21,2.17,2.17,0,0,1,.71-.9,3.5,3.5,0,0,1,1.29-.56A8.35,8.35,0,0,1,4.88,138H7.59l1.42,0-.43,2.28-1.47,0H4.7a3.14,3.14,0,0,0-.92.09A.43.43,0,0,0,3.51,140.85Z" fill="#1d9fb5"/><path d="M15.26,148a10,10,0,0,1-2.06-.18,3.51,3.51,0,0,1-1.42-.61A2.45,2.45,0,0,1,11,146.1a5.06,5.06,0,0,1-.26-1.74v-6.31h2.94v6.18a3.53,3.53,0,0,0,.05.67.88.88,0,0,0,.7.73,3.45,3.45,0,0,0,.85.08,3.36,3.36,0,0,0,.83-.08.88.88,0,0,0,.7-.73,3.44,3.44,0,0,0,.06-.67v-6.18h2.94v6.31a5.06,5.06,0,0,1-.26,1.74,2.46,2.46,0,0,1-.81,1.13,3.51,3.51,0,0,1-1.42.61A9.86,9.86,0,0,1,15.26,148Z" fill="#1d9fb5"/><path d="M31,143.36a8.16,8.16,0,0,1-.25,2.18A3.38,3.38,0,0,1,30,147a3,3,0,0,1-1.34.8,6.92,6.92,0,0,1-1.94.24,5.22,5.22,0,0,1-1.29-.14,2.77,2.77,0,0,1-.91-.4V151H21.57v-8.66a7.3,7.3,0,0,1,.27-2.13,3.11,3.11,0,0,1,.85-1.41,3.47,3.47,0,0,1,1.49-.78,8.61,8.61,0,0,1,2.18-.24,8.53,8.53,0,0,1,2.13.23,3.26,3.26,0,0,1,1.45.77,3.13,3.13,0,0,1,.82,1.44,8.3,8.3,0,0,1,.26,2.24Zm-4.74,2.35a3.82,3.82,0,0,0,.88-.08,1,1,0,0,0,.54-.32,1.46,1.46,0,0,0,.27-.69,7.48,7.48,0,0,0,.07-1.17v-1.07a7.65,7.65,0,0,0-.07-1.19,1.41,1.41,0,0,0-.28-.69,1,1,0,0,0-.55-.32,4.5,4.5,0,0,0-1.72,0,1,1,0,0,0-.54.31,1.4,1.4,0,0,0-.29.68,6.55,6.55,0,0,0-.08,1.17v1.33a5.28,5.28,0,0,0,.08,1,1.35,1.35,0,0,0,.29.63,1,1,0,0,0,.54.31A3.72,3.72,0,0,0,26.29,145.71Z" fill="#1d9fb5"/><path d="M42.08,143.36a8.21,8.21,0,0,1-.25,2.18,3.39,3.39,0,0,1-.78,1.44,3,3,0,0,1-1.34.8,6.92,6.92,0,0,1-1.94.24,5.23,5.23,0,0,1-1.29-.14,2.79,2.79,0,0,1-.91-.4V151H32.63v-8.66a7.3,7.3,0,0,1,.27-2.13,3.11,3.11,0,0,1,.85-1.41,3.48,3.48,0,0,1,1.49-.78,8.62,8.62,0,0,1,2.18-.24,8.52,8.52,0,0,1,2.13.23,3.25,3.25,0,0,1,1.45.77,3.13,3.13,0,0,1,.82,1.44,8.26,8.26,0,0,1,.26,2.24Zm-4.74,2.35a3.82,3.82,0,0,0,.88-.08,1,1,0,0,0,.54-.32,1.47,1.47,0,0,0,.27-.69,7.62,7.62,0,0,0,.07-1.17v-1.07a7.79,7.79,0,0,0-.07-1.19,1.42,1.42,0,0,0-.28-.69,1,1,0,0,0-.55-.32,4.5,4.5,0,0,0-1.72,0,1,1,0,0,0-.55.31,1.41,1.41,0,0,0-.29.68,6.64,6.64,0,0,0-.08,1.17v1.33a5.36,5.36,0,0,0,.08,1,1.36,1.36,0,0,0,.29.63,1,1,0,0,0,.55.31A3.71,3.71,0,0,0,37.35,145.71Z" fill="#1d9fb5"/><path d="M48.3,137.76a9.37,9.37,0,0,1,2.2.22,3.18,3.18,0,0,1,1.47.76,3.13,3.13,0,0,1,.82,1.42,8.05,8.05,0,0,1,.26,2.22v1a8,8,0,0,1-.26,2.2A3.12,3.12,0,0,1,52,147a3.24,3.24,0,0,1-1.47.77,10.59,10.59,0,0,1-4.4,0,3.3,3.3,0,0,1-1.48-.77,3.08,3.08,0,0,1-.83-1.42,8,8,0,0,1-.26-2.2v-1a8.05,8.05,0,0,1,.26-2.22,3.09,3.09,0,0,1,.83-1.42A3.24,3.24,0,0,1,46.1,138,9.36,9.36,0,0,1,48.3,137.76Zm1.78,4.53a7.14,7.14,0,0,0-.07-1.16,1.33,1.33,0,0,0-.28-.67,1,1,0,0,0-.55-.31,4.69,4.69,0,0,0-1.76,0,1,1,0,0,0-.55.31,1.4,1.4,0,0,0-.29.67,6.4,6.4,0,0,0-.08,1.16v1.18a6.55,6.55,0,0,0,.08,1.17,1.4,1.4,0,0,0,.29.68,1,1,0,0,0,.55.31,4.69,4.69,0,0,0,1.76,0,1,1,0,0,0,.55-.31,1.34,1.34,0,0,0,.28-.68,7.31,7.31,0,0,0,.07-1.17Z" fill="#1d9fb5"/><path d="M57.61,147.73H54.67v-6.09a5.06,5.06,0,0,1,.26-1.74,2.55,2.55,0,0,1,.79-1.13,3.17,3.17,0,0,1,1.31-.6,8.48,8.48,0,0,1,1.82-.18h1q.51,0,1.17,0l-.44,2.39-.61,0h-.87a2.87,2.87,0,0,0-.81.09,1,1,0,0,0-.47.28.92.92,0,0,0-.21.49,4.76,4.76,0,0,0,0,.71Z" fill="#1d9fb5"/><path d="M64.88,140.37v3.5a4.53,4.53,0,0,0,.06.79.93.93,0,0,0,.22.48.86.86,0,0,0,.45.24,3.65,3.65,0,0,0,.77.06h1.76l-.44,2.31H66a9.69,9.69,0,0,1-2-.18,2.56,2.56,0,0,1-1.25-.61,2.27,2.27,0,0,1-.62-1.17,8.7,8.7,0,0,1-.17-1.87v-8.1l2.94-.43v2.66h3.37l-.44,2.31Z" fill="#1d9fb5"/><path d="M72,143.88a3.51,3.51,0,0,0,.1.78,1,1,0,0,0,.3.48,1.17,1.17,0,0,0,.56.25,5.06,5.06,0,0,0,.89.06h1.64l2,0-.43,2.29q-.93,0-1.72,0H73.61a7.53,7.53,0,0,1-2.18-.27,3.15,3.15,0,0,1-1.39-.81,3.05,3.05,0,0,1-.73-1.37,7.8,7.8,0,0,1-.21-1.93v-1a7.85,7.85,0,0,1,.23-2,3.26,3.26,0,0,1,.78-1.43,3.35,3.35,0,0,1,1.42-.86,7.08,7.08,0,0,1,2.17-.29,4.68,4.68,0,0,1,3.33,1,3.6,3.6,0,0,1,1,2.71v.39a5.46,5.46,0,0,1-.07,1,1.4,1.4,0,0,1-.27.63,1,1,0,0,1-.51.33,2.8,2.8,0,0,1-.78.09Zm1.59-4a3.15,3.15,0,0,0-.8.08.92.92,0,0,0-.48.3,1.24,1.24,0,0,0-.24.58,5.81,5.81,0,0,0-.06,1h3.2a5.81,5.81,0,0,0-.06-1,1.17,1.17,0,0,0-.25-.58,1,1,0,0,0-.49-.3A3.15,3.15,0,0,0,73.63,139.92Z" fill="#1d9fb5"/><path d="M83.86,147.73a9.27,9.27,0,0,1-2.27-.23,3.12,3.12,0,0,1-1.44-.77,2.93,2.93,0,0,1-.77-1.4,8.6,8.6,0,0,1-.22-2.12v-.85a7.93,7.93,0,0,1,.25-2.14,3.37,3.37,0,0,1,.77-1.42,3,3,0,0,1,1.32-.8,6.4,6.4,0,0,1,1.9-.25,5.68,5.68,0,0,1,1.32.15,2.69,2.69,0,0,1,1,.41V134h2.94v11.84a1.92,1.92,0,0,1-.47,1.49,2.49,2.49,0,0,1-1.64.42Zm1.83-2.31V142a4.58,4.58,0,0,0-.08-1,1.17,1.17,0,0,0-.3-.58,1.09,1.09,0,0,0-.55-.29,4.2,4.2,0,0,0-.86-.07,3.46,3.46,0,0,0-.88.09,1,1,0,0,0-.54.33,1.44,1.44,0,0,0-.27.67,6.79,6.79,0,0,0-.07,1.11v.89a7.27,7.27,0,0,0,.07,1.16,1.52,1.52,0,0,0,.27.68.94.94,0,0,0,.55.33,3.94,3.94,0,0,0,.89.08Z" fill="#1d9fb5"/><path d="M97.83,135.39a1.45,1.45,0,0,1-.35,1.09,1.94,1.94,0,0,1-1.31.33,2,2,0,0,1-1.33-.33,1.45,1.45,0,0,1-.35-1.09,1.43,1.43,0,0,1,.35-1.06,1.94,1.94,0,0,1,1.33-.34,1.9,1.9,0,0,1,1.31.34A1.43,1.43,0,0,1,97.83,135.39Zm-3.15,2.66h2.94v9.68H94.68Z" fill="#1d9fb5"/><path d="M99.4,147.73V141.4a4.92,4.92,0,0,1,.26-1.71,2.54,2.54,0,0,1,.8-1.13,3.36,3.36,0,0,1,1.42-.62,11.87,11.87,0,0,1,4.18,0,3.36,3.36,0,0,1,1.42.62,2.55,2.55,0,0,1,.8,1.13,4.92,4.92,0,0,1,.26,1.71v6.33H105.6v-6.11a3.44,3.44,0,0,0-.06-.67,1,1,0,0,0-.22-.46,1,1,0,0,0-.49-.27,4.5,4.5,0,0,0-1.72,0,.88.88,0,0,0-.71.73,3.44,3.44,0,0,0-.06.67v6.11Z" fill="#1d9fb5"/><path d="M117.53,140.37v3.5a4.53,4.53,0,0,0,.06.79.92.92,0,0,0,.22.48.86.86,0,0,0,.45.24,3.63,3.63,0,0,0,.77.06h1.76l-.44,2.31h-1.68a9.7,9.7,0,0,1-2-.18,2.56,2.56,0,0,1-1.25-.61,2.27,2.27,0,0,1-.62-1.17,8.7,8.7,0,0,1-.17-1.87v-8.1l2.94-.43v2.66h3.37l-.44,2.31Z" fill="#1d9fb5"/><path d="M122.1,147.73V134H125v4.44A3.1,3.1,0,0,1,126,138a5,5,0,0,1,1.55-.19,4.35,4.35,0,0,1,2.73.77,3,3,0,0,1,1,2.49v6.72h-2.94v-6.11a3.44,3.44,0,0,0-.06-.67.89.89,0,0,0-.69-.73,3.86,3.86,0,0,0-1.64,0,1,1,0,0,0-.8.84,4.09,4.09,0,0,0-.07.84v5.81Z" fill="#1d9fb5"/><path d="M135.79,143.88a3.4,3.4,0,0,0,.1.78,1,1,0,0,0,.3.48,1.17,1.17,0,0,0,.56.25,5.06,5.06,0,0,0,.89.06h1.64l2,0-.42,2.29q-.93,0-1.72,0h-1.74a7.52,7.52,0,0,1-2.18-.27,3.14,3.14,0,0,1-1.39-.81,3.05,3.05,0,0,1-.73-1.37,7.75,7.75,0,0,1-.21-1.93v-1a7.85,7.85,0,0,1,.23-2,3.26,3.26,0,0,1,.78-1.43,3.36,3.36,0,0,1,1.42-.86,7.08,7.08,0,0,1,2.17-.29,4.68,4.68,0,0,1,3.33,1,3.6,3.6,0,0,1,1,2.71v.39a5.55,5.55,0,0,1-.07,1,1.4,1.4,0,0,1-.27.63,1,1,0,0,1-.51.33,2.8,2.8,0,0,1-.78.09Zm1.59-4a3.15,3.15,0,0,0-.8.08.92.92,0,0,0-.48.3,1.23,1.23,0,0,0-.24.58,5.81,5.81,0,0,0-.06,1H139a5.81,5.81,0,0,0-.06-1,1.18,1.18,0,0,0-.25-.58,1,1,0,0,0-.49-.3A3.15,3.15,0,0,0,137.38,139.92Z" fill="#1d9fb5"/><path d="M147.68,134.56h3.05v8a8.6,8.6,0,0,0,.1,1.45,2,2,0,0,0,.38.92,1.47,1.47,0,0,0,.75.48,5.49,5.49,0,0,0,2.45,0,1.47,1.47,0,0,0,.76-.48,2.05,2.05,0,0,0,.39-.92,7.92,7.92,0,0,0,.11-1.45v-8h3v7.94a10.44,10.44,0,0,1-.26,2.49,3.6,3.6,0,0,1-2.59,2.75,10.82,10.82,0,0,1-5.33,0,3.61,3.61,0,0,1-2.59-2.75,10.45,10.45,0,0,1-.26-2.49Z" fill="#1d9fb5"/><path d="M163.82,140l4.53-5.42h3.5l-5.31,6.23,5.94,6.94h-3.92l-4.74-5.68v5.68h-3.05V134.56h3.05Z" fill="#1d9fb5"/></svg>