<svg xmlns="http://www.w3.org/2000/svg" viewBox="0 0 490.93 117.01"><title>guru--white-xmas</title><g><path d="M440.75 118.24h-5.58a2.79 2.79 0 0 1-2.79-2.79v-13.94h11.15v13.94a2.79 2.79 0 0 1-2.78 2.79z" transform="translate(0 -1.23)" fill="#a67c52"/><path d="M488.14 101.51h-100.35a2.79 2.79 0 0 1-2.23-4.46l29.27-39a2.78 2.78 0 0 1 2.23-1.11h41.81a2.78 2.78 0 0 1 2.23 1.06l29.27 39a2.79 2.79 0 0 1-2.23 4.46z" transform="translate(0 -1.23)" fill="#4da34d"/><path d="M477 62.49h-78.06a2.79 2.79 0 0 1-2.28-4.39l39-55.75a2.89 2.89 0 0 1 4.57 0l39 55.75a2.79 2.79 0 0 1-2.23 4.39z" transform="translate(0 -1.23)" fill="#72c472"/><circle cx="443.54" cy="30.59" r="5.58" fill="#fff"/><circle cx="424.03" cy="47.32" r="2.79" fill="#fff"/><circle cx="437.97" cy="14.99" r="2.79" fill="#fff"/><circle cx="426.81" cy="80.77" r="5.58" fill="#fff"/><circle cx="451.51" cy="72.02" r="3.18" fill="#fff"/><circle cx="469.07" cy="90.41" r="2.79" fill="#fff"/></g><g fill="#fff"><path d="M49 115.54c-9.4 0-17.2-.9-23.5-2.6s-11.3-4.4-15.1-8.2a29.92 29.92 0 0 1-8-14.4 82 82 0 0 1-2.4-21.4v-15a75.49 75.49 0 0 1 2.5-20.8 32 32 0 0 1 8.5-14.5 37.88 37.88 0 0 1 15.9-8.64c6.6-1.9 14.9-2.8 24.8-2.8h17.2c2.7 0 5.4 0 8.1.1s5.7.1 8.9.2l-3.9 20.94c-4.8-.1-8.8-.2-12.2-.2s-6.3-.1-8.7-.1h-10.9a56.06 56.06 0 0 0-12.1 1.1 14.26 14.26 0 0 0-7.4 3.9 15 15 0 0 0-3.7 7.86 68.56 68.56 0 0 0-1 13.3v14.3a69.38 69.38 0 0 0 1.1 13.6 17.45 17.45 0 0 0 3.6 8 12.3 12.3 0 0 0 7 3.8 56.36 56.36 0 0 0 11.1.9h15.5v-19.9h-17l4.2-20.6h37.9v45.1a28.44 28.44 0 0 1-.8 6.9 10.35 10.35 0 0 1-2.8 5 12.8 12.8 0 0 1-5.5 3.1 31.23 31.23 0 0 1-8.9 1.1h-22.4zM103.4 7.54h25v65.2a77.58 77.58 0 0 0 .8 11.9 17.1 17.1 0 0 0 3.1 7.6 11.56 11.56 0 0 0 6.1 3.9 35.27 35.27 0 0 0 10.1 1.1 39.52 39.52 0 0 0 10-1.1 12.74 12.74 0 0 0 6.2-3.9 17.14 17.14 0 0 0 3.2-7.6 66.31 66.31 0 0 0 .9-11.9v-65.2h24.9v65.1a86.47 86.47 0 0 1-2.1 20.36 29.54 29.54 0 0 1-21.3 22.5c-5.8 1.8-13 2.7-21.8 2.7s-16.1-.9-21.8-2.7a31.55 31.55 0 0 1-13.9-8.3 32.14 32.14 0 0 1-7.4-14.2 86.47 86.47 0 0 1-2.1-20.4v-65.06zM295.2 44.74c0 7.9-1.6 14.2-4.9 18.9a28.62 28.62 0 0 1-14.3 10.36l24.4 41.6h-27.5l-20.6-37.9h-17.1v37.9h-24.4v-108.06h43.5a84 84 0 0 1 18.7 1.8 30.47 30.47 0 0 1 12.7 5.8 23.09 23.09 0 0 1 7.3 10.2 42.91 42.91 0 0 1 2.4 15.2v4.2zm-24.6-2.6a24.06 24.06 0 0 0-.9-7.1 9.21 9.21 0 0 0-2.9-4.4 11.25 11.25 0 0 0-5.2-2.2 46.23 46.23 0 0 0-8.1-.6h-18.4v30h18.4a46.23 46.23 0 0 0 8.1-.6 10.87 10.87 0 0 0 5.2-2.3 9.53 9.53 0 0 0 2.9-4.5 24.31 24.31 0 0 0 .9-7.2zM309.6 7.54h25v65.2a77.58 77.58 0 0 0 .8 11.9 17.1 17.1 0 0 0 3.1 7.6 11.56 11.56 0 0 0 6.1 3.9 35.27 35.27 0 0 0 10.1 1.1 39.52 39.52 0 0 0 10-1.1 12.74 12.74 0 0 0 6.2-3.9 17.14 17.14 0 0 0 3.2-7.6 66.31 66.31 0 0 0 .9-11.9v-65.2h25v65.1a86.47 86.47 0 0 1-2.1 20.36 29.54 29.54 0 0 1-21.3 22.5c-5.8 1.8-13 2.7-21.8 2.7s-16.1-.9-21.8-2.7a32.13 32.13 0 0 1-13.9-8.3 32.14 32.14 0 0 1-7.4-14.2 86.47 86.47 0 0 1-2.1-20.4v-65.06z" transform="translate(0 -1.23)"/></g></svg>