<svg width="94" height="35" viewBox="0 0 94 35" xmlns="http://www.w3.org/2000/svg"><title>Fully Managed, included with GURU at no extra cost</title><g fill="#fff"><path d="M2.784 9h-2.064v-8.004h5.868v1.8h-3.804v1.248h3.72v1.8h-3.72v3.156zm9.712.144c-2.58 0-3.792-1.416-3.792-3.384v-4.764h2.1v4.692c0 .948.564 1.632 1.692 1.632 1.104 0 1.68-.684 1.68-1.632v-4.692h2.088v4.752c0 1.992-1.212 3.396-3.768 3.396zm11.488-.144h-5.28v-8.004h2.064v6.204h3.216v1.8zm7.348 0h-5.28v-8.004h2.064v6.204h3.216v1.8zm4.78 0h-2.064v-3.228l-3.036-4.776h2.328l1.74 2.952 1.716-2.952h2.34l-3.024 4.776v3.228z"/><path d="M7.7 26.622l-3.014-5.83v10.208h-3.41v-15.664h3.872l4.092 7.986 3.96-7.986h3.85v15.664h-3.41v-10.318l-3.014 5.94h-2.926zm14.718.726c0 .425.117.733.352.924.235.191.66.286 1.276.286h2.332v-1.276c0-.455-.121-.788-.363-1.001-.242-.213-.752-.319-1.529-.319h-.308c-.689 0-1.155.092-1.397.275-.242.183-.363.502-.363.957v.154zm7.37 1.386c0 .425-.044.785-.132 1.078-.088.293-.231.528-.429.704-.198.176-.458.301-.781.374-.323.073-.711.11-1.166.11h-3.894c-.821 0-1.507-.077-2.057-.231-.55-.154-.994-.381-1.331-.682-.337-.301-.579-.664-.726-1.089-.147-.425-.22-.909-.22-1.452v-.462c0-1.217.367-2.101 1.1-2.651.733-.55 1.855-.825 3.366-.825.733 0 1.324.059 1.771.176.447.117.818.257 1.111.418v-.242c0-.308-.026-.572-.077-.792-.051-.22-.154-.407-.308-.561-.154-.154-.374-.268-.66-.341-.286-.073-.671-.11-1.155-.11h-1.947c-.374 0-.752.004-1.133.011-.381.007-.733.018-1.056.033l.506-2.706c.425-.015.961-.026 1.606-.033.645-.007 1.393-.011 2.244-.011 1.833 0 3.186.319 4.059.957.873.638 1.309 1.705 1.309 3.201v5.126zm2.112 2.266v-7.524c0-.807.103-1.485.308-2.035.205-.55.524-.997.957-1.342.433-.345.994-.59 1.683-.737.689-.147 1.518-.22 2.486-.22.968 0 1.797.073 2.486.22.689.147 1.25.392 1.683.737.433.345.752.792.957 1.342.205.55.308 1.228.308 2.035v7.524h-3.498v-7.26c0-.308-.022-.572-.066-.792-.044-.22-.132-.403-.264-.55-.132-.147-.326-.253-.583-.319-.257-.066-.598-.099-1.023-.099-.425 0-.766.033-1.023.099-.257.066-.451.172-.583.319-.132.147-.22.33-.264.55-.044.22-.066.484-.066.792v7.26h-3.498zm16.016-3.652c0 .425.117.733.352.924.235.191.66.286 1.276.286h2.332v-1.276c0-.455-.121-.788-.363-1.001-.242-.213-.752-.319-1.529-.319h-.308c-.689 0-1.155.092-1.397.275-.242.183-.363.502-.363.957v.154zm7.37 1.386c0 .425-.044.785-.132 1.078-.088.293-.231.528-.429.704-.198.176-.458.301-.781.374-.323.073-.711.11-1.166.11h-3.894c-.821 0-1.507-.077-2.057-.231-.55-.154-.994-.381-1.331-.682-.337-.301-.579-.664-.726-1.089-.147-.425-.22-.909-.22-1.452v-.462c0-1.217.367-2.101 1.1-2.651.733-.55 1.855-.825 3.366-.825.733 0 1.324.059 1.771.176.447.117.818.257 1.111.418v-.242c0-.308-.026-.572-.077-.792-.051-.22-.154-.407-.308-.561-.154-.154-.374-.268-.66-.341-.286-.073-.671-.11-1.155-.11h-1.947c-.374 0-.752.004-1.133.011-.381.007-.733.018-1.056.033l.506-2.706c.425-.015.961-.026 1.606-.033.645-.007 1.393-.011 2.244-.011 1.833 0 3.186.319 4.059.957.873.638 1.309 1.705 1.309 3.201v5.126zm7.568-1.078c.425 0 .774-.033 1.045-.099.271-.066.484-.18.638-.341.154-.161.26-.381.319-.66s.088-.631.088-1.056v-.924c0-.528-.022-.961-.066-1.298-.044-.337-.139-.601-.286-.792-.147-.191-.359-.323-.638-.396-.279-.073-.645-.11-1.1-.11-.469 0-.84.037-1.111.11-.271.073-.484.205-.638.396-.154.191-.253.455-.297.792-.044.337-.066.77-.066 1.298v.484c0 .528.026.961.077 1.298.051.337.15.601.297.792.147.191.359.323.638.396.279.073.645.11 1.1.11zm2.09 2.178c-.293.205-.653.367-1.078.484-.425.117-.983.176-1.672.176-.88 0-1.635-.099-2.266-.297-.631-.198-1.148-.51-1.551-.935-.403-.425-.7-.972-.891-1.639-.191-.667-.286-1.47-.286-2.409v-.792c0-.895.095-1.672.286-2.332.191-.66.506-1.21.946-1.65.44-.44 1.019-.766 1.738-.979.719-.213 1.613-.319 2.684-.319 1.1 0 2.009.11 2.728.33.719.22 1.291.546 1.716.979.425.433.722.961.891 1.584.169.623.253 1.331.253 2.123v5.896c0 .865-.099 1.602-.297 2.211-.198.609-.521 1.107-.968 1.496-.447.389-1.034.675-1.76.858-.726.183-1.61.275-2.651.275h-1.639l-1.177-.011-1.628-.033.528-2.838 1.353.033.979.011h1.342c.469 0 .858-.026 1.166-.077.308-.051.557-.15.748-.297.191-.147.323-.359.396-.638.073-.279.11-.638.11-1.078v-.132zm8.91-3.41c.015.381.055.689.121.924.066.235.183.425.352.572.169.147.392.246.671.297.279.051.631.077 1.056.077h1.947c.697 0 1.478-.007 2.343-.022l-.506 2.728c-.733.029-1.415.044-2.046.044h-2.068c-1.041 0-1.907-.106-2.596-.319-.689-.213-1.239-.535-1.65-.968-.411-.433-.7-.975-.869-1.628-.169-.653-.253-1.419-.253-2.299v-1.21c0-.924.092-1.727.275-2.409.183-.682.491-1.25.924-1.705.433-.455.997-.796 1.694-1.023.697-.227 1.558-.341 2.585-.341 1.848 0 3.168.385 3.96 1.155.792.77 1.188 1.844 1.188 3.223v.462c0 .484-.029.88-.088 1.188-.059.308-.165.557-.319.748-.154.191-.356.323-.605.396-.249.073-.557.11-.924.11h-5.192zm1.892-4.708c-.396 0-.715.033-.957.099s-.433.183-.572.352c-.139.169-.235.4-.286.693-.051.293-.077.675-.077 1.144h3.806c0-.469-.026-.851-.077-1.144-.051-.293-.15-.524-.297-.693-.147-.169-.341-.286-.583-.352-.242-.066-.561-.099-.957-.099zm14.344 6.534v-4.092c0-.469-.033-.851-.099-1.144-.066-.293-.183-.524-.352-.693-.169-.169-.389-.282-.66-.341-.271-.059-.612-.088-1.023-.088-.425 0-.774.037-1.045.11-.271.073-.484.205-.638.396-.154.191-.26.455-.319.792s-.088.777-.088 1.32v1.056c0 .572.029 1.03.088 1.375s.165.616.319.814c.154.198.37.33.649.396s.631.099 1.056.099h2.112zm-2.178 2.75c-1.085 0-1.984-.092-2.695-.275-.711-.183-1.283-.488-1.716-.913-.433-.425-.737-.979-.913-1.661-.176-.682-.264-1.522-.264-2.519v-1.012c0-.997.099-1.844.297-2.541.198-.697.502-1.261.913-1.694.411-.433.935-.748 1.573-.946.638-.198 1.39-.297 2.255-.297.557 0 1.082.059 1.573.176.491.117.876.279 1.155.484v-5.148h3.498v14.08c0 .851-.187 1.441-.561 1.771-.374.33-1.023.495-1.947.495h-3.168z"/></g></svg>