<svg width="128" height="31" viewBox="0 0 128 31" xmlns="http://www.w3.org/2000/svg"><title>LiteSpeed, included with GURU at no extra cost</title><g fill="#fff" fill-rule="nonzero"><path d="M25.99 11.008l-1.99 1.992 2-2-.01.008zM22 14l1-1zM34.12 7.463v13.884c0 .13.104.241.237.252.753.061 1.588.061 2.467 0 .717-.053 1.592-.153 2.672-.304-.039.211-.059.44-.059.688 0 .211.022.467.065.744h-8.501v-15.26l.63.073c.377.063.764.064.995.005l.765-.003c.291-.039.532-.066.731-.078zm10.19.76c-.453.061-.756.063-.974.003h-.765l-.632-.073v14.574h2.96v-14.577c-.17.012-.364.036-.59.073zm2.931-.084c.029.206.043.413.043.616 0 .266-.013.501-.039.701h.494c1.401-.172 2.576-.26 3.478-.26.143 0 .26.113.26.252v13.279h2.871v-13.278c0-.139.116-.252.26-.252.656 0 1.594.058 2.792.173.302.043.624.069.959.081-.034-.201-.034-.432.002-.69-.038-.206-.035-.415.006-.622h-11.127v-.001zm13.482 0v14.587h8.108c-.04-.264-.061-.503-.061-.701 0-.227.017-.44.052-.636-.553.082-1.168.148-1.827.192-.767.058-1.824.089-3.142.089-.143 0-.259-.113-.259-.253v-5.639c0-.138.115-.252.259-.252h2.17c.723.042 1.305.082 1.885.124l.431.029-.043-.186-.008-1.014.014-.081.019-.058c-.764.092-1.463.131-2.298.131h-2.17c-.143 0-.259-.113-.259-.252v-4.771c0-.139.115-.252.259-.252 1.601 0 3.28.101 4.998.302-.055-.231-.082-.451-.082-.656 0-.246.026-.481.082-.702h-8.129v-.001zm20.313 10.105c-.061-1.801-1.487-3.401-4.244-4.741-2.042-1.023-3.034-2.017-3.034-3.036 0-1.643.99-2.545 2.864-2.611 1.274 0 2.255.664 2.92 1.975.07-.23.167-.526.293-.897l.391-.996c-.98-.567-2.16-.883-3.512-.938-3.4.175-5.116 1.697-5.235 4.654 0 1.992 1.298 3.592 3.862 4.75 2.142.947 3.227 2.03 3.227 3.22-.137 1.671-1.162 2.545-3.048 2.611-1.867-.063-3.035-.916-3.478-2.541h-.033c-.12.883-.309 1.753-.564 2.59 1.136.417 2.314.657 3.507.715 3.766 0 5.844-1.736 6.085-4.756zm4.959-2.099c-.045.004-.111.014-.165.067-.049.045-.076.109-.076.173v6.342h-2.979v-14.59h5.367c3.074 0 4.597 1.141 4.653 3.488.023 1.277-.338 2.293-1.072 3.019-1.01 1-2.777 1.507-5.252 1.507l-.475-.005zm-.027-.734l.364.025c.366 0 .788-.069 1.254-.204 1.352-.376 2.103-1.444 2.229-3.192-.127-1.971-.925-3.067-2.386-3.258h-1.424c-.137 0-.249.109-.249.242v6.15c0 .119.091.221.213.238zm18.745-7.273v14.59h8.121c-.04-.266-.061-.51-.061-.712 0-.232.017-.449.055-.647-.56.084-1.179.15-1.839.195-.773.058-1.798.087-3.135.087-.138 0-.249-.109-.249-.241v-5.631c0-.132.111-.241.249-.241h2.405c.903.053 1.726.103 2.48.154l-.047-.201-.008-1.01.013-.077.025-.075c-.751.087-1.579.132-2.463.132h-2.405c-.138 0-.249-.109-.249-.241v-4.765c0-.133.111-.241.249-.241 1.603 0 3.286.103 5.005.304-.057-.235-.085-.46-.085-.668 0-.251.028-.488.087-.712h-8.147v.001zm15.152 14.59h-4.945v-14.59l6.361-.001c4.289.283 6.487 2.529 6.72 6.849-.288 4.857-3.026 7.462-8.136 7.743zm4.799-7.729c0-4.011-1.852-6.045-5.505-6.045h-1.102c-.136 0-.248.109-.248.242v12.474c0 .132.112.241.248.241h.974c1.866 0 3.291-.592 4.233-1.76.927-1.15 1.399-2.884 1.399-5.153zm-30.206-6.861v14.59h8.12c-.039-.266-.061-.51-.061-.712 0-.232.017-.449.053-.647-.561.084-1.179.15-1.838.195-.773.058-1.799.087-3.137.087-.136 0-.248-.109-.248-.241v-5.631c0-.132.112-.241.248-.241h2.406c.904.053 1.726.103 2.48.154l-.046-.201-.008-1.01.013-.077.023-.075c-.749.087-1.576.132-2.461.132h-2.406c-.136 0-.248-.109-.248-.241v-4.765c0-.133.112-.241.248-.241 1.603 0 3.286.103 5.005.304-.056-.235-.084-.46-.084-.668 0-.251.03-.488.085-.712h-8.144v.001zM23.775 15.105l-7.09-7.105-3.02 3.842 3.257 3.264c.3.301.3.794 0 1.094l-.943.945s.635.952.664 1.01c.146.294.182.985-.234 1.302l-7.407 5.698c-.002 1.912-.004 5.844-.001 5.846.002.001 14.773-14.8 14.773-14.8.301-.302.301-.793 0-1.095zM7.078 15.895c-.3-.301-.3-.791 0-1.093l.943-.945-.644-.928c-.308-.437-.211-1.057.213-1.382l7.405-5.698.005-5.841-.005-.003-.004-.005-14.766 14.802c-.301.302-.301.792.001 1.094l7.088 7.104 3.02-3.843-3.255-3.262zM12 21l-3 3zM18.583 3.134c.102 0 .205.063.25.151.081.161-.025.313-.132.443l-6.717 8.245c-.097.12-.104.35-.015.475l3.75 5.259c.138.192.147.76-.169.991l-10.799 8.018c-.154.114-.241.151-.348.152-.097-.006-.197-.07-.238-.15-.081-.159.026-.314.132-.445l6.716-8.244c.097-.124.106-.345.016-.475l-3.748-5.215c-.238-.327-.164-.792.165-1.035l10.801-8.019c.175-.132.264-.151.335-.151zm0-.134c-.13 0-.251.051-.42.179l-10.8 8.019c-.388.287-.475.833-.195 1.218l3.748 5.213c.055.08.049.239-.013.317l-6.715 8.243c-.088.11-.272.339-.147.587.063.123.208.215.353.224.169-.001.289-.067.441-.18l10.799-8.019c.374-.274.375-.926.198-1.173l-3.75-5.259c-.055-.077-.05-.242.01-.316l6.716-8.245c.088-.108.273-.333.148-.584-.069-.135-.219-.226-.375-.226zM14.921 18.756c.078.133.148.634-.048.801l-9.702 8.341-.157.103c-.033.002-.009-.064.08-.192l6.03-8.573c.152-.22.162-.583.022-.809l-3.366-5.426s7.061 5.622 7.14 5.756zM15.183 18l-3.297-5.372c-.14-.228-.128-.593.022-.81l5.998-8.625c.089-.129.113-.193.08-.193l-.156.103-9.649 8.389c-.194.168-.239.494-.098.72l7.101 5.788z"/></g></svg>