<svg width="102" height="22" viewBox="0 0 102 22" xmlns="http://www.w3.org/2000/svg"><title>cPanel, included with GURU at no extra cost</title><path d="M8.435 5.422h6.374l-.987 3.682c-.136.491-.433.926-.846 1.236-.411.311-.918.475-1.438.467h-2.961c-.648-.01-1.281.194-1.796.577-.526.395-.908.944-1.09 1.566-.134.457-.147.939-.038 1.401.094.424.28.824.545 1.172.269.345.616.624 1.015.815.421.203.884.307 1.354.302h1.805c.324-.003.631.143.827.394.21.251.28.586.188.898l-1.128 4.067h-1.974c-1.3.01-2.583-.286-3.742-.861-1.11-.551-2.08-1.336-2.839-2.299-.758-.956-1.282-2.068-1.532-3.251-.263-1.246-.224-2.535.113-3.764l.113-.412c.235-.866.62-1.687 1.137-2.427.501-.725 1.12-1.366 1.833-1.896.714-.527 1.511-.938 2.36-1.218.869-.301 1.785-.453 2.707-.449zm3.215 16.568l5.556-20.278c.136-.491.433-.926.846-1.236.411-.311.918-.475 1.438-.467h5.894c1.301-.01 2.585.289 3.742.87 1.104.556 2.073 1.337 2.839 2.29.754.961 1.284 2.07 1.551 3.251.281 1.242.243 2.532-.113 3.755l-.113.412c-.236.864-.617 1.684-1.128 2.427-1.528 2.248-4.114 3.597-6.881 3.59h-5.105l1.015-3.709c.141-.481.438-.905.846-1.209.411-.311.918-.475 1.438-.467h1.626c.658.007 1.299-.206 1.814-.604.528-.386.9-.94 1.053-1.566.128-.438.144-.901.047-1.346-.099-.424-.288-.823-.555-1.172-.271-.345-.618-.627-1.015-.824-.418-.213-.882-.323-1.354-.321h-3.159l-4.118 14.92c-.141.481-.438.905-.846 1.209-.402.308-.899.472-1.41.467h-3.911v.009zm35.168-10.826l.085-.302c.046-.126.017-.267-.075-.366-.088-.103-.22-.161-.357-.156h-9.166c-.373.005-.741-.08-1.072-.247-.309-.154-.578-.373-.79-.641-.21-.27-.354-.584-.423-.916-.075-.355-.065-.721.028-1.072l.564-2.088h12.409c.736-.008 1.463.162 2.115.495.621.314 1.166.754 1.598 1.291.887 1.124 1.196 2.583.837 3.957l-2.228 8.078c-.207.8-.688 1.507-1.363 2.006-.675.509-1.506.78-2.36.769l-9.166-.027c-.775.011-1.54-.165-2.228-.513-.653-.319-1.222-.78-1.664-1.346-.438-.571-.746-1.227-.902-1.923-.169-.732-.15-1.493.056-2.216l.113-.412c.133-.51.356-.993.658-1.429.597-.861 1.465-1.51 2.472-1.85.516-.177 1.06-.267 1.608-.266h7.699l-.564 2.061c-.141.481-.438.905-.846 1.209-.402.308-.899.472-1.41.467h-3.441c-.32 0-.526.156-.62.467-.061.184-.018.386.113.531.123.15.311.235.508.229h5.556c.192.004.381-.054.536-.165.148-.106.249-.263.282-.44l.056-.22 1.382-4.964zm16.414-5.743c1.308-.013 2.599.285 3.76.87 1.104.556 2.073 1.337 2.839 2.29.756.964 1.28 2.082 1.532 3.27.269 1.246.227 2.537-.122 3.764l-1.41 5.166c-.088.353-.301.664-.602.879-.299.216-.662.331-1.034.33h-3.046c-.33.007-.643-.139-.844-.395-.201-.255-.264-.588-.171-.897l1.692-6.237c.13-.438.142-.902.038-1.346-.1-.422-.285-.821-.545-1.172-.271-.345-.618-.627-1.015-.824-.418-.21-.883-.317-1.354-.311h-3.159l-2.736 9.974c-.084.355-.298.667-.602.879-.305.217-.675.333-1.053.33h-3.018c-.325.009-.635-.138-.827-.394-.21-.251-.28-.586-.188-.898l4.174-15.277h7.69zm16.611 5.23c-.225.171-.392.404-.479.669l-1.269 4.671c-.071.249-.018.515.143.72.161.205.41.325.675.324h11.676l-.902 3.27c-.141.481-.438.905-.846 1.209-.402.308-.899.472-1.41.467h-10.632c-.734.01-1.46-.154-2.115-.476-.625-.308-1.172-.75-1.598-1.291-.425-.545-.723-1.173-.874-1.841-.158-.697-.132-1.422.075-2.107l1.72-6.237c.182-.666.478-1.297.874-1.868.384-.553.853-1.044 1.391-1.456.548-.406 1.157-.728 1.805-.953.667-.231 1.37-.349 2.078-.348h7.53c.736-.008 1.463.162 2.115.495.621.314 1.166.754 1.598 1.291.426.542.719 1.171.855 1.841.15.7.131 1.424-.056 2.116l-.508 1.868c-.205.798-.687 1.504-1.363 1.997-.67.496-1.49.761-2.331.751h-8.517l.564-2.033c.123-.482.412-.909.818-1.209.411-.311.918-.475 1.438-.467h3.441c.32 0 .526-.156.62-.467l.113-.412c.052-.189.011-.39-.11-.546-.121-.156-.309-.248-.51-.251h-5.246c-.276.016-.541.112-.761.275zm10.717 11.339l5.669-20.745c.092-.358.308-.675.611-.898.301-.228.672-.351 1.053-.348h3.018c.335-.006.654.14.865.394.211.251.279.588.179.898l-4.23 15.304c-.199.785-.539 1.529-1.006 2.198-.448.645-1 1.214-1.636 1.685-.637.469-1.344.84-2.096 1.099-.776.28-1.598.42-2.425.412z" fill="#fff" fill-rule="nonzero"/></svg>