<svg id="Layer_1" data-name="Layer 1" xmlns="http://www.w3.org/2000/svg" viewBox="0 0 48 36"><title>icon-uk</title><path d="M46,6H2A2,2,0,0,0,0,8V40a2,2,0,0,0,2,2H46a2,2,0,0,0,2-2V8A2,2,0,0,0,46,6Z" transform="translate(0 -6)" fill="#002781"/><path d="M48,8a2,2,0,0,0-2-2H40.84L28,15.88V6H20v9.88L7.16,6H2A2,2,0,0,0,0,8v2.59L12.24,20H0v8H12.24L0,37.42V40a2,2,0,0,0,2,2H7.16L20,32.12V42h8V32.12L40.84,42H46a2,2,0,0,0,2-2V37.42L35.76,28H48V20H35.76L48,10.59Z" transform="translate(0 -6)" fill="#e6e6e6"/><polygon points="48 16 26 16 26 0 22 0 22 16 0 16 0 20 22 20 22 36 26 36 26 20 48 20 48 16" fill="#d10d24"/><path d="M47,6.31,29.2,20h3.28L48,8.06V8A2,2,0,0,0,47,6.31Z" transform="translate(0 -6)" fill="#d10d24"/><path d="M32.48,28H29.2L47,41.69A2,2,0,0,0,48,40v-.06Z" transform="translate(0 -6)" fill="#d10d24"/><path d="M15.52,28,0,39.94V40a2,2,0,0,0,1,1.69L18.8,28Z" transform="translate(0 -6)" fill="#d10d24"/><path d="M15.52,20H18.8L1,6.31A2,2,0,0,0,0,8v.06Z" transform="translate(0 -6)" fill="#d10d24"/></svg>