<svg width="88" height="35" viewBox="0 0 88 35" xmlns="http://www.w3.org/2000/svg"><title>Offsite Backups, included with GURU at no extra cost</title><g fill="#fff"><path d="M4.596 9.144c-2.448 0-4.284-1.704-4.284-4.14s1.836-4.14 4.284-4.14c2.448 0 4.272 1.704 4.272 4.14s-1.824 4.14-4.272 4.14zm0-1.824c1.32 0 2.172-1.02 2.172-2.316 0-1.308-.852-2.316-2.172-2.316-1.332 0-2.184 1.008-2.184 2.316 0 1.296.852 2.316 2.184 2.316zm8.38 1.68h-2.064v-8.004h5.868v1.8h-3.804v1.248h3.72v1.8h-3.72v3.156zm7.984 0h-2.064v-8.004h5.868v1.8h-3.804v1.248h3.72v1.8h-3.72v3.156zm8.896.144c-1.62 0-2.748-.504-3.552-1.272l1.092-1.548c.576.576 1.464 1.056 2.556 1.056.708 0 1.14-.276 1.14-.66 0-1.092-4.536-.216-4.536-3.3 0-1.344 1.14-2.544 3.192-2.544 1.284 0 2.4.384 3.252 1.116l-1.128 1.476c-.672-.552-1.548-.828-2.34-.828-.6 0-.864.24-.864.576 0 1.02 4.524.276 4.524 3.252 0 1.608-1.188 2.676-3.336 2.676zm7.36-.144h-2.064v-8.004h2.064v8.004zm6.292 0h-2.064v-6.204h-2.244v-1.8h6.54v1.8h-2.232v6.204zm10.084 0h-5.868v-8.004h5.868v1.8h-3.804v1.248h3.72v1.8h-3.72v1.356h3.804v1.8z"/><path d="M1.276 15.336h7.194c1.643 0 2.842.323 3.597.968.755.645 1.133 1.621 1.133 2.926v.242c0 1.613-.645 2.691-1.936 3.234.748.249 1.331.667 1.749 1.254.418.587.627 1.364.627 2.332v.396c0 1.511-.458 2.607-1.375 3.289-.917.682-2.248 1.023-3.993 1.023h-6.996v-15.664zm3.41 12.892h3.322c.777 0 1.324-.128 1.639-.385.315-.257.473-.73.473-1.419v-.286c0-.704-.165-1.192-.495-1.463-.33-.271-.898-.407-1.705-.407h-3.234v3.96zm0-10.12v3.41h3.058c.719 0 1.225-.132 1.518-.396.293-.264.44-.682.44-1.254v-.264c0-.528-.136-.909-.407-1.144-.271-.235-.737-.352-1.397-.352h-3.212zm13.662 9.24c0 .425.117.733.352.924.235.191.66.286 1.276.286h2.332v-1.276c0-.455-.121-.788-.363-1.001-.242-.213-.752-.319-1.529-.319h-.308c-.689 0-1.155.092-1.397.275-.242.183-.363.502-.363.957v.154zm7.37 1.386c0 .425-.044.785-.132 1.078-.088.293-.231.528-.429.704-.198.176-.458.301-.781.374-.323.073-.711.11-1.166.11h-3.894c-.821 0-1.507-.077-2.057-.231-.55-.154-.994-.381-1.331-.682-.337-.301-.579-.664-.726-1.089-.147-.425-.22-.909-.22-1.452v-.462c0-1.217.367-2.101 1.1-2.651.733-.55 1.855-.825 3.366-.825.733 0 1.324.059 1.771.176.447.117.818.257 1.111.418v-.242c0-.308-.026-.572-.077-.792-.051-.22-.154-.407-.308-.561-.154-.154-.374-.268-.66-.341-.286-.073-.671-.11-1.155-.11h-1.947c-.374 0-.752.004-1.133.011-.381.007-.733.018-1.056.033l.506-2.706c.425-.015.961-.026 1.606-.033.645-.007 1.393-.011 2.244-.011 1.833 0 3.186.319 4.059.957.873.638 1.309 1.705 1.309 3.201v5.126zm7.59-9.284h1.375c.521 0 1.199.015 2.035.044l-.528 2.772-.682-.033-.616-.022-.649-.011h-.803c-.455 0-.829.029-1.122.088-.293.059-.524.176-.693.352-.169.176-.286.425-.352.748s-.099.748-.099 1.276v1.166c0 .528.033.953.099 1.276.066.323.187.572.363.748.176.176.411.293.704.352s.66.088 1.1.088h1.683c.491 0 1.038-.015 1.639-.044l-.528 2.75c-.587.015-1.133.026-1.639.033l-1.243.011c-1.085 0-1.991-.095-2.717-.286-.726-.191-1.313-.491-1.76-.902-.447-.411-.766-.946-.957-1.606-.191-.66-.286-1.467-.286-2.42v-1.166c0-.939.099-1.738.297-2.398.198-.66.524-1.199.979-1.617.455-.418 1.041-.722 1.76-.913.719-.191 1.599-.286 2.64-.286zm8.734 4.224l3.784-4.18h4.136l-4.884 5.17 5.324 6.336h-4.246l-4.114-5.038v5.038h-3.498v-16.346h3.498v9.02zm14.784 7.678c-.953 0-1.771-.073-2.453-.22-.682-.147-1.243-.389-1.683-.726-.44-.337-.763-.785-.968-1.342-.205-.557-.308-1.247-.308-2.068v-7.502h3.498v7.348c0 .308.022.572.066.792.044.22.132.403.264.55.132.147.323.253.572.319.249.066.587.099 1.012.099.411 0 .741-.033.99-.099s.44-.172.572-.319c.132-.147.22-.33.264-.55.044-.22.066-.484.066-.792v-7.348h3.498v7.502c0 .821-.103 1.511-.308 2.068-.205.557-.528 1.005-.968 1.342-.44.337-1.001.579-1.683.726-.682.147-1.492.22-2.431.22zm13.112-2.75c.425 0 .774-.033 1.045-.099.271-.066.484-.194.638-.385.154-.191.26-.466.319-.825.059-.359.088-.825.088-1.397v-1.276c0-.587-.029-1.06-.088-1.419s-.169-.634-.33-.825c-.161-.191-.378-.319-.649-.385s-.612-.099-1.023-.099c-.411 0-.752.033-1.023.099-.271.066-.488.191-.649.374-.161.183-.275.451-.341.803-.066.352-.099.814-.099 1.386v1.584c0 .513.033.928.099 1.243.066.315.18.565.341.748.161.183.378.308.649.374s.612.099 1.023.099zm5.632-2.794c0 1.027-.099 1.892-.297 2.596-.198.704-.506 1.276-.924 1.716-.418.44-.95.755-1.595.946-.645.191-1.415.286-2.31.286-.601 0-1.115-.055-1.54-.165-.425-.11-.785-.268-1.078-.473v4.136h-3.498v-10.296c0-.997.106-1.841.319-2.53.213-.689.55-1.247 1.012-1.672.462-.425 1.052-.733 1.771-.924.719-.191 1.584-.286 2.596-.286.983 0 1.826.092 2.53.275.704.183 1.28.488 1.727.913.447.425.774.997.979 1.716.205.719.308 1.606.308 2.662v1.1zm4.928-2.992c0 .235.073.407.22.517.147.11.477.187.99.231l2.024.176c.675.059 1.239.183 1.694.374.455.191.818.433 1.089.726s.462.634.572 1.023c.11.389.165.81.165 1.265v.374c0 1.217-.403 2.112-1.21 2.684-.807.572-2.075.858-3.806.858h-2.277c-.477 0-.964-.004-1.463-.011-.499-.007-.975-.018-1.43-.033l.484-2.706c.733.015 1.54.026 2.42.033.88.007 1.672.011 2.376.011.616 0 1.03-.051 1.243-.154.213-.103.319-.315.319-.638 0-.249-.073-.436-.22-.561-.147-.125-.477-.202-.99-.231l-2.156-.154c-1.217-.088-2.083-.44-2.596-1.056-.513-.616-.77-1.371-.77-2.266v-.418c0-.543.088-1.023.264-1.441.176-.418.458-.774.847-1.067.389-.293.898-.517 1.529-.671.631-.154 1.401-.231 2.31-.231h1.914c.381 0 .818.004 1.309.011.491.007 1.052.018 1.683.033l-.506 2.706c-.675-.015-1.258-.026-1.749-.033-.491-.007-.92-.011-1.287-.011h-1.584c-.528 0-.895.037-1.1.11-.205.073-.308.257-.308.55z"/></g></svg>