<svg width="83" height="35" viewBox="0 0 83 35" xmlns="http://www.w3.org/2000/svg"><title>24x7 UK Support, included with GURU at no extra cost</title><g fill="#fff"><path d="M8.47 21.76c.763.132 1.401.315 1.914.55.513.235.924.532 1.232.891.308.359.528.785.66 1.276s.198 1.06.198 1.705v.33c0 .792-.103 1.47-.308 2.035-.205.565-.55 1.034-1.034 1.408-.484.374-1.122.649-1.914.825-.792.176-1.767.264-2.926.264h-2.277c-.447 0-.953-.004-1.518-.011-.565-.007-1.206-.018-1.925-.033l.55-2.948c1.159.029 2.145.044 2.959.044h2.255c.484 0 .884-.026 1.199-.077.315-.051.565-.136.748-.253.183-.117.308-.275.374-.473.066-.198.099-.451.099-.759 0-.279-.018-.513-.055-.704-.037-.191-.117-.348-.242-.473-.125-.125-.293-.227-.506-.308-.213-.081-.495-.15-.847-.209l-2.31-.396c-.851-.147-1.547-.334-2.09-.561-.543-.227-.972-.517-1.287-.869-.315-.352-.532-.77-.649-1.254-.117-.484-.176-1.049-.176-1.694v-.352c0-.704.103-1.327.308-1.87.205-.543.543-1.005 1.012-1.386s1.082-.671 1.837-.869c.755-.198 1.676-.297 2.761-.297h2.387c.433 0 .902.004 1.408.011.506.007 1.082.018 1.727.033l-.55 2.948c-1.144-.029-2.116-.044-2.915-.044h-2.123c-.44 0-.807.026-1.1.077-.293.051-.521.132-.682.242-.161.11-.275.26-.341.451s-.099.425-.099.704c0 .249.018.462.055.638.037.176.11.323.22.44.11.117.268.216.473.297.205.081.477.15.814.209l2.684.462zm11.022 9.592c-.953 0-1.771-.073-2.453-.22-.682-.147-1.243-.389-1.683-.726-.44-.337-.763-.785-.968-1.342-.205-.557-.308-1.247-.308-2.068v-7.502h3.498v7.348c0 .308.022.572.066.792.044.22.132.403.264.55.132.147.323.253.572.319.249.066.587.099 1.012.099.411 0 .741-.033.99-.099s.44-.172.572-.319c.132-.147.22-.33.264-.55.044-.22.066-.484.066-.792v-7.348h3.498v7.502c0 .821-.103 1.511-.308 2.068-.205.557-.528 1.005-.968 1.342-.44.337-1.001.579-1.683.726-.682.147-1.492.22-2.431.22zm13.112-2.75c.425 0 .774-.033 1.045-.099.271-.066.484-.194.638-.385.154-.191.26-.466.319-.825.059-.359.088-.825.088-1.397v-1.276c0-.587-.029-1.06-.088-1.419s-.169-.634-.33-.825c-.161-.191-.378-.319-.649-.385s-.612-.099-1.023-.099c-.411 0-.752.033-1.023.099-.271.066-.488.191-.649.374-.161.183-.275.451-.341.803-.066.352-.099.814-.099 1.386v1.584c0 .513.033.928.099 1.243.066.315.18.565.341.748.161.183.378.308.649.374s.612.099 1.023.099zm5.632-2.794c0 1.027-.099 1.892-.297 2.596-.198.704-.506 1.276-.924 1.716-.418.44-.95.755-1.595.946-.645.191-1.415.286-2.31.286-.601 0-1.115-.055-1.54-.165-.425-.11-.785-.268-1.078-.473v4.136h-3.498v-10.296c0-.997.106-1.841.319-2.53.213-.689.55-1.247 1.012-1.672.462-.425 1.052-.733 1.771-.924.719-.191 1.584-.286 2.596-.286.983 0 1.826.092 2.53.275.704.183 1.28.488 1.727.913.447.425.774.997.979 1.716.205.719.308 1.606.308 2.662v1.1zm7.524 2.794c.425 0 .774-.033 1.045-.099.271-.066.484-.194.638-.385.154-.191.26-.466.319-.825.059-.359.088-.825.088-1.397v-1.276c0-.587-.029-1.06-.088-1.419s-.169-.634-.33-.825c-.161-.191-.378-.319-.649-.385s-.612-.099-1.023-.099c-.411 0-.752.033-1.023.099-.271.066-.488.191-.649.374-.161.183-.275.451-.341.803-.066.352-.099.814-.099 1.386v1.584c0 .513.033.928.099 1.243.066.315.18.565.341.748.161.183.378.308.649.374s.612.099 1.023.099zm5.632-2.794c0 1.027-.099 1.892-.297 2.596-.198.704-.506 1.276-.924 1.716-.418.44-.95.755-1.595.946-.645.191-1.415.286-2.31.286-.601 0-1.115-.055-1.54-.165-.425-.11-.785-.268-1.078-.473v4.136h-3.498v-10.296c0-.997.106-1.841.319-2.53.213-.689.55-1.247 1.012-1.672.462-.425 1.052-.733 1.771-.924.719-.191 1.584-.286 2.596-.286.983 0 1.826.092 2.53.275.704.183 1.28.488 1.727.913.447.425.774.997.979 1.716.205.719.308 1.606.308 2.662v1.1zm7.392-6.666c1.027 0 1.899.088 2.618.264.719.176 1.302.477 1.749.902.447.425.774.99.979 1.694.205.704.308 1.584.308 2.64v1.21c0 1.041-.103 1.914-.308 2.618-.205.704-.532 1.269-.979 1.694-.447.425-1.03.73-1.749.913-.719.183-1.591.275-2.618.275s-1.899-.092-2.618-.275c-.719-.183-1.305-.488-1.76-.913-.455-.425-.785-.99-.99-1.694-.205-.704-.308-1.577-.308-2.618v-1.21c0-1.056.103-1.936.308-2.64.205-.704.535-1.269.99-1.694.455-.425 1.041-.726 1.76-.902.719-.176 1.591-.264 2.618-.264zm2.112 5.39c0-.572-.029-1.03-.088-1.375s-.169-.609-.33-.792c-.161-.183-.378-.308-.649-.374s-.62-.099-1.045-.099c-.425 0-.774.033-1.045.099-.271.066-.488.191-.649.374-.161.183-.275.447-.341.792-.066.345-.099.803-.099 1.375v1.408c0 .572.033 1.034.099 1.386.066.352.18.62.341.803.161.183.378.308.649.374s.62.099 1.045.099c.425 0 .774-.033 1.045-.099.271-.066.488-.191.649-.374.161-.183.271-.451.33-.803.059-.352.088-.814.088-1.386v-1.408zm8.954 6.468h-3.498v-7.238c0-.821.103-1.511.308-2.068.205-.557.517-1.005.935-1.342.418-.337.939-.576 1.562-.715.623-.139 1.346-.209 2.167-.209h1.243c.403 0 .869.015 1.397.044l-.528 2.838c-.132-.015-.374-.026-.726-.033l-1.034-.011c-.396 0-.715.037-.957.11-.242.073-.429.183-.561.33-.132.147-.216.341-.253.583-.037.242-.055.524-.055.847v6.864zm8.646-8.756v4.158c0 .381.022.693.066.935.044.242.132.433.264.572.132.139.312.235.539.286.227.051.532.077.913.077h1.111l.594-.011.385-.011-.528 2.75h-.363l-.561.011-.605.011h-.473c-.983 0-1.789-.07-2.42-.209-.631-.139-1.126-.381-1.485-.726-.359-.345-.605-.81-.737-1.397s-.198-1.327-.198-2.222v-9.636l3.498-.506v3.168h4.004l-.528 2.75h-3.476z"/><path d="M6.804 9h-6.276v-1.608c3.468-2.508 4.116-3.06 4.116-3.852 0-.552-.516-.84-1.104-.84-.888 0-1.56.336-2.136.876l-1.14-1.368c.852-.936 2.124-1.332 3.24-1.332 1.884 0 3.24 1.056 3.24 2.664 0 1.224-.876 2.268-2.868 3.66h2.928v1.8zm7.648 0h-2.076v-1.464h-3.828v-1.608l3.036-4.932h2.868v4.728h.972v1.812h-.972v1.464zm-2.076-3.276v-2.928l-1.824 2.928h1.824zm10.516 3.276h-2.028l-1.116-1.752-1.128 1.752h-2.016l1.98-2.976-1.86-2.82h2.028l.996 1.572.984-1.572h2.028l-1.848 2.82 1.98 2.976zm4.636 0h-2.268l2.712-6.204h-3.9v-1.8h6.276v1.428l-2.82 6.576zm12.596.144c-2.58 0-3.792-1.416-3.792-3.384v-4.764h2.1v4.692c0 .948.564 1.632 1.692 1.632 1.104 0 1.68-.684 1.68-1.632v-4.692h2.088v4.752c0 1.992-1.212 3.396-3.768 3.396zm13.444-.144h-2.532l-2.1-3.012-.54.672v2.34h-2.064v-8.004h2.064v3.288l2.46-3.288h2.544l-3.108 3.744 3.276 4.26z"/></g></svg>