<svg id="TrustPilot" xmlns="http://www.w3.org/2000/svg" xmlns:xlink="http://www.w3.org/1999/xlink" viewBox="0 0 537.17 199.71"><defs><linearGradient id="linear-gradient" x1="110.57" y1="99.5" x2="110.57" y2="66.29" gradientUnits="userSpaceOnUse"><stop offset="0" stop-color="#e37a26"/><stop offset="0.47" stop-color="#f9a21e"/></linearGradient><linearGradient id="linear-gradient-2" x1="110.46" y1="63.95" x2="110.46" y2="41.67" gradientUnits="userSpaceOnUse"><stop offset="0" stop-color="#fff"/><stop offset="1" stop-color="#f9a21e"/></linearGradient><linearGradient id="linear-gradient-3" x1="139.6" y1="41.28" x2="139.6" y2="41.33" gradientUnits="userSpaceOnUse"><stop offset="0" stop-color="#484848"/><stop offset="1"/></linearGradient><linearGradient id="linear-gradient-4" x1="110.6" y1="41.56" x2="110.6" y2="99.27" xlink:href="#linear-gradient-3"/></defs><title>Trustpilot</title><g id="TrustPilot-2" data-name="TrustPilot"><path d="M202.79,43.69a11.16,11.16,0,0,1-.09,1.54,3.44,3.44,0,0,1-.31,1.06,1.58,1.58,0,0,1-.51.58,1.3,1.3,0,0,1-.68.18h-17V99.5a1.16,1.16,0,0,1-.19.66,1.24,1.24,0,0,1-.65.44,7.43,7.43,0,0,1-1.24.29,15.24,15.24,0,0,1-1.94.12,15.43,15.43,0,0,1-1.92-.12,7.45,7.45,0,0,1-1.27-.29,1.24,1.24,0,0,1-.65-.44,1.16,1.16,0,0,1-.19-.66V47.05h-17a1.28,1.28,0,0,1-.68-.18,1.37,1.37,0,0,1-.49-.58,4.19,4.19,0,0,1-.31-1.06,9.19,9.19,0,0,1-.11-1.54,9.61,9.61,0,0,1,.11-1.57A4.59,4.59,0,0,1,158,41a1.38,1.38,0,0,1,.49-.61,1.33,1.33,0,0,1,.68-.19H201.2a1.35,1.35,0,0,1,.68.19,1.57,1.57,0,0,1,.51.61,3.75,3.75,0,0,1,.31,1.1A11.66,11.66,0,0,1,202.79,43.69Z" transform="translate(-81.5 -40.23)" fill="#231f20"/><path d="M254.4,99.5a1.3,1.3,0,0,1-.15.66,1,1,0,0,1-.6.46,5.08,5.08,0,0,1-1.31.29,21.74,21.74,0,0,1-2.24.1,17.44,17.44,0,0,1-2-.1,4.63,4.63,0,0,1-1.24-.31,1.59,1.59,0,0,1-.72-.59,3.44,3.44,0,0,1-.45-.94l-5.56-14.25c-.65-1.62-1.34-3.11-2-4.46a14.58,14.58,0,0,0-2.5-3.51,10.23,10.23,0,0,0-3.41-2.29,12.2,12.2,0,0,0-4.72-.82H222.1V99.5a1,1,0,0,1-.21.66,1.35,1.35,0,0,1-.65.44,6.75,6.75,0,0,1-1.21.29,15.28,15.28,0,0,1-1.94.12,15.12,15.12,0,0,1-1.93-.12,7.46,7.46,0,0,1-1.25-.29,1.28,1.28,0,0,1-.65-.44,1.2,1.2,0,0,1-.18-.66v-56A3,3,0,0,1,215,41a3.31,3.31,0,0,1,2-.72H229.9c1.53,0,2.8,0,3.81.12s1.93.17,2.73.26a23.07,23.07,0,0,1,6.19,1.91,14.62,14.62,0,0,1,4.51,3.32,13.38,13.38,0,0,1,2.73,4.6,17.09,17.09,0,0,1,.91,5.72,16.82,16.82,0,0,1-.82,5.45,13.14,13.14,0,0,1-2.35,4.25,15.6,15.6,0,0,1-3.69,3.2,23.36,23.36,0,0,1-4.82,2.29A11.28,11.28,0,0,1,241.83,73a14.8,14.8,0,0,1,2.27,2.41,23.73,23.73,0,0,1,2,3.24c.61,1.2,1.24,2.58,1.86,4.11l5.42,13.31c.44,1.12.72,1.91.84,2.36A4.64,4.64,0,0,1,254.4,99.5ZM242.29,57a10.81,10.81,0,0,0-1.59-6,9,9,0,0,0-5.33-3.53,15.56,15.56,0,0,0-2.64-.47c-1-.09-2.27-.14-3.86-.14H222.1V67.25H230a17.55,17.55,0,0,0,5.49-.77,10.85,10.85,0,0,0,3.85-2.15,8.4,8.4,0,0,0,2.27-3.25A11.22,11.22,0,0,0,242.29,57Z" transform="translate(-81.5 -40.23)" fill="#231f20"/><path d="M308.27,78.06a27.53,27.53,0,0,1-1.58,9.68,19.67,19.67,0,0,1-4.54,7.2A19.1,19.1,0,0,1,295,99.4a28.09,28.09,0,0,1-9.61,1.53,26.87,26.87,0,0,1-9-1.43,19,19,0,0,1-6.95-4.21,18.5,18.5,0,0,1-4.46-7,27.55,27.55,0,0,1-1.56-9.66v-37a1.16,1.16,0,0,1,.18-.65,1.25,1.25,0,0,1,.64-.43,6.71,6.71,0,0,1,1.2-.27,12.4,12.4,0,0,1,1.93-.12,12.65,12.65,0,0,1,1.89.12,6.2,6.2,0,0,1,1.22.27,1.26,1.26,0,0,1,.62.43,1.16,1.16,0,0,1,.19.65v36a23.23,23.23,0,0,0,1,7.22A13.69,13.69,0,0,0,275.22,90a12.05,12.05,0,0,0,4.6,3.09,16.77,16.77,0,0,0,6.05,1,17,17,0,0,0,6.14-1,11.57,11.57,0,0,0,4.56-3,13.61,13.61,0,0,0,2.84-5,22,22,0,0,0,1-7V41.71a1.16,1.16,0,0,1,.19-.65,1.24,1.24,0,0,1,.64-.43,6.78,6.78,0,0,1,1.22-.27,12.66,12.66,0,0,1,1.91-.12,12.1,12.1,0,0,1,1.86.12,6.06,6.06,0,0,1,1.2.27,1.38,1.38,0,0,1,.65.43,1.07,1.07,0,0,1,.2.65Z" transform="translate(-81.5 -40.23)" fill="#231f20"/><path d="M353.62,83.55a17.16,17.16,0,0,1-1.53,7.4,15.89,15.89,0,0,1-4.24,5.49,18.36,18.36,0,0,1-6.39,3.4,26.68,26.68,0,0,1-7.91,1.14,27.29,27.29,0,0,1-5.49-.51,29.09,29.09,0,0,1-4.52-1.23,22,22,0,0,1-3.33-1.5,8.59,8.59,0,0,1-1.86-1.32,3.25,3.25,0,0,1-.78-1.39,8.18,8.18,0,0,1-.25-2.26,12.19,12.19,0,0,1,.09-1.66,3.85,3.85,0,0,1,.27-1.07,1.2,1.2,0,0,1,.45-.57,1.28,1.28,0,0,1,.64-.16,3.77,3.77,0,0,1,1.8.77,26.45,26.45,0,0,0,3,1.69A27.4,27.4,0,0,0,328,93.46a20,20,0,0,0,6,.8,15,15,0,0,0,4.68-.68,11.22,11.22,0,0,0,3.65-1.94,8.54,8.54,0,0,0,2.34-3.08,10.14,10.14,0,0,0,.81-4.15,7.83,7.83,0,0,0-1.13-4.29,11.52,11.52,0,0,0-3-3.12A26.43,26.43,0,0,0,337,74.55l-4.9-2.28a50.5,50.5,0,0,1-4.88-2.58A20.59,20.59,0,0,1,323,66.36a15.54,15.54,0,0,1-3-4.49,15,15,0,0,1-1.16-6.18,15.37,15.37,0,0,1,1.35-6.59,13.42,13.42,0,0,1,3.74-4.86,16.68,16.68,0,0,1,5.7-3,23.76,23.76,0,0,1,7.13-1,24.06,24.06,0,0,1,3.95.34,28,28,0,0,1,3.74.91,21.84,21.84,0,0,1,3.13,1.27,8,8,0,0,1,1.79,1.15,3.19,3.19,0,0,1,.57.68,2.31,2.31,0,0,1,.23.64,6,6,0,0,1,.14.94c0,.36.05.83.05,1.4a14.26,14.26,0,0,1-.07,1.46,5.13,5.13,0,0,1-.21,1.08,1.32,1.32,0,0,1-.39.64.9.9,0,0,1-.57.21,3.68,3.68,0,0,1-1.58-.64c-.71-.42-1.58-.9-2.62-1.44a24,24,0,0,0-3.67-1.46,16.18,16.18,0,0,0-4.77-.66,12.68,12.68,0,0,0-4.28.66,9,9,0,0,0-3,1.75,7,7,0,0,0-1.78,2.6,8.74,8.74,0,0,0-.59,3.2,7.71,7.71,0,0,0,1.14,4.24,11.58,11.58,0,0,0,3,3.14,27.13,27.13,0,0,0,4.31,2.5l4.92,2.31c1.67.77,3.31,1.62,4.93,2.55A21,21,0,0,1,349.41,73a15.05,15.05,0,0,1,3,4.47A14.57,14.57,0,0,1,353.62,83.55Z" transform="translate(-81.5 -40.23)" fill="#231f20"/><path d="M403.56,43.69a11,11,0,0,1-.09,1.53,3.33,3.33,0,0,1-.3,1.05,1.44,1.44,0,0,1-.51.58A1.23,1.23,0,0,1,402,47H385V99.4a1.11,1.11,0,0,1-.19.65,1.23,1.23,0,0,1-.65.45,7.09,7.09,0,0,1-1.24.27,15.34,15.34,0,0,1-3.85,0,7,7,0,0,1-1.26-.27,1.26,1.26,0,0,1-.66-.45,1.16,1.16,0,0,1-.19-.65V47H360a1.24,1.24,0,0,1-.68-.18,1.3,1.3,0,0,1-.49-.58,4.65,4.65,0,0,1-.31-1.05,9,9,0,0,1-.12-1.53,9.43,9.43,0,0,1,.12-1.56,5,5,0,0,1,.31-1.1,1.36,1.36,0,0,1,.49-.61,1.32,1.32,0,0,1,.68-.19h42a1.31,1.31,0,0,1,.68.19,1.5,1.5,0,0,1,.51.61,3.6,3.6,0,0,1,.3,1.1A11.54,11.54,0,0,1,403.56,43.69Z" transform="translate(-81.5 -40.23)" fill="#231f20"/><path d="M450.28,57.94a21.28,21.28,0,0,1-1.5,8.19,17.19,17.19,0,0,1-4.28,6.21,19,19,0,0,1-6.83,4,29.46,29.46,0,0,1-9.65,1.4h-6.87V99.5a1.09,1.09,0,0,1-.21.66,1.37,1.37,0,0,1-.65.44,6.63,6.63,0,0,1-1.22.29,16.28,16.28,0,0,1-3.87,0,7.13,7.13,0,0,1-1.25-.29,1.21,1.21,0,0,1-.65-.44,1.13,1.13,0,0,1-.19-.66V43.69a3.25,3.25,0,0,1,1-2.67,3.39,3.39,0,0,1,2.2-.8h12.94c1.31,0,2.56.05,3.77.17a34.12,34.12,0,0,1,4.25.7,17.58,17.58,0,0,1,5,2,15.8,15.8,0,0,1,4.32,3.62,15.45,15.45,0,0,1,2.73,5A19.29,19.29,0,0,1,450.28,57.94Zm-8.46.65a12.47,12.47,0,0,0-1.38-6.16,9.55,9.55,0,0,0-3.41-3.7,11.48,11.48,0,0,0-4.2-1.54,29.28,29.28,0,0,0-4.24-.33h-7.43V71.12h7.25a16.84,16.84,0,0,0,6-.94,11.33,11.33,0,0,0,4-2.59,10.93,10.93,0,0,0,2.48-4A14.72,14.72,0,0,0,441.81,58.6Z" transform="translate(-81.5 -40.23)" fill="#929497"/><path d="M469.3,99.46a1.12,1.12,0,0,1-.19.65,1.25,1.25,0,0,1-.65.44,6.83,6.83,0,0,1-1.23.28,13.42,13.42,0,0,1-1.93.11,13.59,13.59,0,0,1-1.9-.11,6.76,6.76,0,0,1-1.25-.28,1.27,1.27,0,0,1-.66-.44,1.17,1.17,0,0,1-.18-.65V41.72a1.09,1.09,0,0,1,.2-.65,1.37,1.37,0,0,1,.7-.43,6.94,6.94,0,0,1,1.25-.28,13,13,0,0,1,1.84-.12,13.55,13.55,0,0,1,1.93.12,6.28,6.28,0,0,1,1.23.28,1.22,1.22,0,0,1,.65.43,1.13,1.13,0,0,1,.19.65Z" transform="translate(-81.5 -40.23)" fill="#929497"/><path d="M515.52,97.5a11.3,11.3,0,0,1-.09,1.56,3.64,3.64,0,0,1-.31,1.08,1.48,1.48,0,0,1-.51.65,1.22,1.22,0,0,1-.73.22H487.14a3.29,3.29,0,0,1-2-.73,3,3,0,0,1-1-2.55v-56a1.13,1.13,0,0,1,.18-.65,1.26,1.26,0,0,1,.65-.44,7,7,0,0,1,1.27-.28,15.64,15.64,0,0,1,3.85,0,6.75,6.75,0,0,1,1.24.28,1.22,1.22,0,0,1,.65.44,1.14,1.14,0,0,1,.19.65V94h21.68a1.21,1.21,0,0,1,.73.21,1.58,1.58,0,0,1,.51.61,3.11,3.11,0,0,1,.31,1.05A11.8,11.8,0,0,1,515.52,97.5Z" transform="translate(-81.5 -40.23)" fill="#929497"/><path d="M570.28,69.87a45.71,45.71,0,0,1-1.69,12.88,27,27,0,0,1-5,9.76,22,22,0,0,1-8.39,6.19,29.75,29.75,0,0,1-11.79,2.16,30.42,30.42,0,0,1-11.49-2,20.28,20.28,0,0,1-8-5.77,24.53,24.53,0,0,1-4.71-9.37,48.51,48.51,0,0,1-1.55-12.88A44.75,44.75,0,0,1,519.3,58.2a26.34,26.34,0,0,1,5.06-9.67,22.27,22.27,0,0,1,8.42-6.14,29.79,29.79,0,0,1,11.78-2.16,30.1,30.1,0,0,1,11.33,2,20.66,20.66,0,0,1,8,5.71,24.39,24.39,0,0,1,4.77,9.29A46.54,46.54,0,0,1,570.28,69.87Zm-8.28.54a46.39,46.39,0,0,0-.89-9.31,21.57,21.57,0,0,0-3-7.46,14.29,14.29,0,0,0-5.52-4.94,18.68,18.68,0,0,0-8.55-1.77,17.5,17.5,0,0,0-8.55,1.91,16.08,16.08,0,0,0-5.61,5.09,21.2,21.2,0,0,0-3.09,7.44,41.6,41.6,0,0,0-.93,8.95,49.21,49.21,0,0,0,.87,9.56,21.43,21.43,0,0,0,2.91,7.52,13.93,13.93,0,0,0,5.48,4.92,18.83,18.83,0,0,0,8.62,1.75,17.81,17.81,0,0,0,8.63-1.91A15.54,15.54,0,0,0,558,87a22,22,0,0,0,3-7.53A43.59,43.59,0,0,0,562,70.41Z" transform="translate(-81.5 -40.23)" fill="#929497"/><path d="M617.22,43.69a10.39,10.39,0,0,1-.1,1.54,3.07,3.07,0,0,1-.31,1.06,1.5,1.5,0,0,1-.51.58,1.27,1.27,0,0,1-.67.18h-17V99.5a1.1,1.1,0,0,1-.2.66,1.18,1.18,0,0,1-.65.44,7.36,7.36,0,0,1-1.24.29,15.08,15.08,0,0,1-1.94.12,15.35,15.35,0,0,1-1.91-.12,7.27,7.27,0,0,1-1.26-.29,1.22,1.22,0,0,1-.65-.44,1.15,1.15,0,0,1-.19-.66V47.05h-17a1.26,1.26,0,0,1-.67-.18,1.37,1.37,0,0,1-.5-.58,4.67,4.67,0,0,1-.3-1.06,8.66,8.66,0,0,1-.12-1.54,9,9,0,0,1,.12-1.57,5.13,5.13,0,0,1,.3-1.1,1.37,1.37,0,0,1,.5-.61,1.31,1.31,0,0,1,.67-.19h42.08a1.31,1.31,0,0,1,.67.19,1.5,1.5,0,0,1,.51.61,3.35,3.35,0,0,1,.31,1.1A10.86,10.86,0,0,1,617.22,43.69Z" transform="translate(-81.5 -40.23)" fill="#929497"/><path d="M81.56,41.28V67S101,76.22,110.83,92.78c0,0,4.36-36.55,28.81-51.5Z" transform="translate(-81.5 -40.23)" fill="#f9a21e"/><path d="M81.5,88.13V99.5h26.13A41.11,41.11,0,0,0,81.5,88.13Zm33.15,11.35h25V66.29C125.5,70.12,114.65,99.48,114.65,99.48Z" transform="translate(-81.5 -40.23)" fill="url(#linear-gradient)"/><path d="M81.89,41.67H139s-9.39,3.3-19.49,21.93c0,0-22.09,2.25-37.6-4.5Z" transform="translate(-81.5 -40.23)" opacity="0.5" fill="url(#linear-gradient-2)"/><path d="M139.56,41.33l.07,0" transform="translate(-81.5 -40.23)" fill="url(#linear-gradient-3)"/><path d="M110.83,92.78C101,76.22,81.56,67,81.56,67V88.14A41.13,41.13,0,0,1,107.64,99.5l7,0s10.85-29.36,25-33.19v-25h-.07C115.18,56.3,110.83,92.78,110.83,92.78Z" transform="translate(-81.5 -40.23)" fill="url(#linear-gradient-4)"/></g><path id="_5_Stars" data-name="5 Stars" d="M169.77,143.17H90a8.53,8.53,0,0,0-8.5,8.5v79.77a8.53,8.53,0,0,0,8.5,8.5h79.77a8.53,8.53,0,0,0,8.5-8.5V151.67A8.53,8.53,0,0,0,169.77,143.17Zm-8.94,40.61-14.06,13.7,3.32,19.35a1.33,1.33,0,0,1-1.93,1.4l-17.38-9.14-17.38,9.14a1.33,1.33,0,0,1-1.93-1.4l3.32-19.36-14.06-13.7a1.33,1.33,0,0,1,.74-2.27l19.43-2.82,8.69-17.61a1.33,1.33,0,0,1,2.39,0l8.69,17.61,19.43,2.82A1.33,1.33,0,0,1,160.84,183.78Zm119-40.61H200.11a8.53,8.53,0,0,0-8.5,8.5v79.77a8.53,8.53,0,0,0,8.5,8.5h79.77a8.53,8.53,0,0,0,8.5-8.5V151.67A8.53,8.53,0,0,0,279.87,143.17Zm-8.94,40.61-14.06,13.7,3.32,19.35a1.33,1.33,0,0,1-1.93,1.4l-17.38-9.14-17.38,9.14a1.33,1.33,0,0,1-1.93-1.4l3.32-19.36-14.06-13.7a1.33,1.33,0,0,1,.74-2.27L231,178.68l8.69-17.61a1.33,1.33,0,0,1,2.39,0l8.69,17.61,19.43,2.82A1.33,1.33,0,0,1,270.93,183.78Zm119-40.61H310.2a8.53,8.53,0,0,0-8.5,8.5v79.77a8.53,8.53,0,0,0,8.5,8.5H390a8.53,8.53,0,0,0,8.5-8.5V151.67A8.53,8.53,0,0,0,390,143.17ZM381,183.78,367,197.48l3.32,19.35a1.33,1.33,0,0,1-1.93,1.4L351,209.1l-17.38,9.14a1.33,1.33,0,0,1-1.93-1.4L335,197.48l-14.06-13.7a1.33,1.33,0,0,1,.74-2.27l19.43-2.82,8.69-17.61a1.33,1.33,0,0,1,2.39,0l8.69,17.61,19.43,2.82A1.33,1.33,0,0,1,381,183.78Zm119-40.61H420.3a8.53,8.53,0,0,0-8.5,8.5v79.77a8.53,8.53,0,0,0,8.5,8.5h79.77a8.53,8.53,0,0,0,8.5-8.5V151.67A8.53,8.53,0,0,0,500.07,143.17Zm-8.94,40.61-14.06,13.7,3.32,19.35a1.33,1.33,0,0,1-1.93,1.4l-17.38-9.14-17.38,9.14a1.33,1.33,0,0,1-1.93-1.4l3.32-19.36L431,183.78a1.33,1.33,0,0,1,.74-2.27l19.43-2.82,8.69-17.61a1.33,1.33,0,0,1,2.39,0L471,178.68l19.43,2.82A1.33,1.33,0,0,1,491.13,183.78Zm119-40.61H530.4a8.53,8.53,0,0,0-8.5,8.5v79.77a8.53,8.53,0,0,0,8.5,8.5h79.77a8.53,8.53,0,0,0,8.5-8.5V151.67A8.53,8.53,0,0,0,610.16,143.17Zm-8.94,40.61-14.06,13.7,3.32,19.35a1.33,1.33,0,0,1-1.93,1.4l-17.38-9.14-17.38,9.14a1.33,1.33,0,0,1-1.93-1.4l3.32-19.36-14.06-13.7a1.33,1.33,0,0,1,.74-2.27l19.43-2.82L570,161.07a1.33,1.33,0,0,1,2.39,0l8.69,17.61,19.43,2.82A1.33,1.33,0,0,1,601.23,183.78Z" transform="translate(-81.5 -40.23)" fill="#3dc154"/></svg>